<svg version="1.1" preserveAspectRatio="none" xmlns="http://www.w3.org/2000/svg" width="500" height="500" viewBox="0 0 500 500"><rect width="100%" height="100%" fill="#070707" fill-opacity="1"/><svg viewBox="70.2496 57.5433 383.0196 296.8913" width="333" height="258.1194354022614" x="83.5px" y="120.9403px" xmlns="http://www.w3.org/2000/svg" xmlns:xlink="http://www.w3.org/1999/xlink" preserveAspectRatio="none"><defs></defs><style>.companyName {fill:#F7DC5F;fill-opacity:1;}.icon1 {fill:#F7DC5F;fill-opacity:1;}.icon2 {fill:#8C7848;fill-opacity:1;}.icon3 {fill:#534538;fill-opacity:1;}.icon3-str {stroke:#534538;stroke-opacity:1;}.text {fill:#F7DC5F;fill-opacity:1;}</style><g opacity="1" transform="rotate(0 164.8087 338.2346)">
<svg width="193.9014" height="16.2" x="164.8087" y="338.2346" version="1.1" preserveAspectRatio="none" viewBox="0.56 -28.32 342.76 28.64">
  <g transform="matrix(1 0 0 1 0 0)" class="text"><path id="id-6izo4zJp16" d="M22.04-26.48L22.04-23.60L12.80-23.60L12.80 0L9.80 0L9.80-23.60L0.56-23.60L0.56-26.48L22.04-26.48Z M29.20-28L32.20-28L32.20-16.88Q33.28-18.32 34.84-19.32Q36.40-20.32 38.40-20.32Q40.40-20.32 41.84-19.76Q43.28-19.20 44.36-18.08L44.36-18.08Q46.84-15.64 46.84-11.64L46.84-11.64L46.84 0L43.84 0L43.84-11.56Q43.84-14.32 42.28-15.96Q40.72-17.60 38.24-17.60L38.24-17.60Q35.72-17.60 33.96-15.92L33.96-15.92Q32.20-14.20 32.20-11.52L32.20-11.52L32.20 0L29.20 0L29.20-28Z M64.76-2.40L64.76-2.40Q68.80-2.40 70.56-5.76L70.56-5.76L73.84-5.76Q72.80-3.04 70.54-1.36Q68.28 0.32 64.72 0.32L64.72 0.32Q60.20 0.32 57.36-2.68L57.36-2.68Q54.60-5.60 54.60-10L54.60-10Q54.60-14.44 57.24-17.32L57.24-17.32Q60.04-20.32 64.52-20.32L64.52-20.32Q69-20.32 71.80-17.32L71.80-17.32Q74.44-14.44 74.44-10L74.44-10L74.44-8.80L57.68-8.80Q58-6.04 59.88-4.24L59.88-4.24Q61.80-2.40 64.76-2.40ZM64.52-17.60L64.52-17.60Q61.76-17.60 59.88-15.88L59.88-15.88Q58.12-14.24 57.72-11.60L57.72-11.60L71.32-11.60Q70.92-14.24 69.16-15.88L69.16-15.88Q67.28-17.60 64.52-17.60Z M109.44-14.64L106.40-14.64Q106-17.76 101.38-17.76Q96.76-17.76 96.76-14.88L96.76-14.88Q96.76-13.68 97.74-13.06Q98.72-12.44 100.20-12.04Q101.68-11.64 103.42-11.30Q105.16-10.96 106.64-10.34Q108.12-9.72 109.10-8.64Q110.08-7.56 110.08-5.68L110.08-5.68Q110.08-2.76 107.88-1.22Q105.68 0.32 101.92 0.32L101.92 0.32Q97.92 0.32 95.56-1.68L95.56-1.68Q93.40-3.44 93.24-6.28L93.24-6.28L96.36-6.28Q96.64-3.52 99.48-2.56L99.48-2.56Q100.52-2.24 101.54-2.24Q102.56-2.24 103.44-2.36Q104.32-2.48 105.16-2.80L105.16-2.80Q107.08-3.56 107.08-5.40L107.08-5.40Q107.08-6.64 106.10-7.30Q105.12-7.96 103.64-8.38Q102.16-8.80 100.42-9.14Q98.68-9.48 97.20-10.08Q95.72-10.68 94.74-11.72Q93.76-12.76 93.76-14.60L93.76-14.60Q93.76-17.32 95.74-18.82Q97.72-20.32 101.60-20.32L101.60-20.32Q105.28-20.32 107.40-18.56L107.40-18.56Q109.16-17.08 109.44-14.64L109.44-14.64Z M126.60-20.32L126.60-20.32Q131.08-20.32 133.88-17.32L133.88-17.32Q136.52-14.44 136.52-10L136.52-10Q136.52-5.56 133.88-2.68L133.88-2.68Q131.08 0.32 126.60 0.32L126.60 0.32Q122.12 0.32 119.32-2.68L119.32-2.68Q116.68-5.56 116.68-10L116.68-10Q116.68-14.44 119.32-17.32L119.32-17.32Q122.12-20.32 126.60-20.32ZM126.60-2.40L126.60-2.40Q129.84-2.40 131.72-4.64L131.72-4.64Q133.52-6.76 133.52-10L133.52-10Q133.52-13.24 131.72-15.36L131.72-15.36Q129.84-17.60 126.60-17.60L126.60-17.60Q123.36-17.60 121.48-15.36L121.48-15.36Q119.68-13.24 119.68-10L119.68-10Q119.68-6.76 121.48-4.64L121.48-4.64Q123.36-2.40 126.60-2.40Z M161.92 0L158.92 0L158.92-3.12Q157.84-1.68 156.28-0.68Q154.72 0.32 152.72 0.32Q150.72 0.32 149.28-0.24Q147.84-0.80 146.76-1.92L146.76-1.92Q144.28-4.36 144.28-8.36L144.28-8.36L144.28-20L147.28-20L147.28-8.44Q147.28-5.68 148.84-4.04Q150.40-2.40 152.88-2.40L152.88-2.40Q155.40-2.40 157.16-4.08L157.16-4.08Q158.92-5.80 158.92-8.48L158.92-8.48L158.92-20L161.92-20L161.92 0Z M174.12-28L174.12 0L171.12 0L171.12-28L174.12-28Z M204.52-20.32L204.52-20.32Q209.00-20.32 211.80-17.32L211.80-17.32Q214.44-14.44 214.44-10L214.44-10Q214.44-5.56 211.80-2.68L211.80-2.68Q209.00 0.32 204.52 0.32L204.52 0.32Q200.04 0.32 197.24-2.68L197.24-2.68Q194.60-5.56 194.60-10L194.60-10Q194.60-14.44 197.24-17.32L197.24-17.32Q200.04-20.32 204.52-20.32ZM204.52-2.40L204.52-2.40Q207.76-2.40 209.64-4.64L209.64-4.64Q211.44-6.76 211.44-10L211.44-10Q211.44-13.24 209.64-15.36L209.64-15.36Q207.76-17.60 204.52-17.60L204.52-17.60Q201.28-17.60 199.40-15.36L199.40-15.36Q197.60-13.24 197.60-10L197.60-10Q197.60-6.76 199.40-4.64L199.40-4.64Q201.28-2.40 204.52-2.40Z M231.16-25.48L230.76-25.48Q228.64-25.48 227.58-24.54Q226.52-23.60 226.52-21.52L226.52-21.52L226.52-20L231.16-20L231.16-17.36L226.52-17.36L226.52 0L223.52 0L223.52-17.36L220.08-17.36L220.08-20L223.52-20L223.52-21.76Q223.52-25.04 225.48-26.68Q227.44-28.32 230.92-28.32L230.92-28.32L231.16-28.32L231.16-25.48Z M270.40-26.48L270.40-23.60L261.16-23.60L261.16 0L258.16 0L258.16-23.60L248.92-23.60L248.92-26.48L270.40-26.48Z M282.56-2.40L282.56-2.40Q286.60-2.40 288.36-5.76L288.36-5.76L291.64-5.76Q290.60-3.04 288.34-1.36Q286.08 0.32 282.52 0.32L282.52 0.32Q278.00 0.32 275.16-2.68L275.16-2.68Q272.40-5.60 272.40-10L272.40-10Q272.40-14.44 275.04-17.32L275.04-17.32Q277.84-20.32 282.32-20.32L282.32-20.32Q286.80-20.32 289.60-17.32L289.60-17.32Q292.24-14.44 292.24-10L292.24-10L292.24-8.80L275.48-8.80Q275.80-6.04 277.68-4.24L277.68-4.24Q279.60-2.40 282.56-2.40ZM282.32-17.60L282.32-17.60Q279.56-17.60 277.68-15.88L277.68-15.88Q275.92-14.24 275.52-11.60L275.52-11.60L289.12-11.60Q288.72-14.24 286.96-15.88L286.96-15.88Q285.08-17.60 282.32-17.60Z M309.16-2.40L309.16-2.40Q311.08-2.40 312.56-3.48Q314.04-4.56 314.72-6.28L314.72-6.28L317.96-6.28Q317.04-3.32 314.60-1.52L314.60-1.52Q312.04 0.32 308.52 0.32L308.52 0.32Q304.12 0.32 301.36-2.68L301.36-2.68Q298.68-5.60 298.68-10L298.68-10Q298.68-14.40 301.36-17.32L301.36-17.32Q304.12-20.32 308.52-20.32L308.52-20.32Q312.04-20.32 314.60-18.48L314.60-18.48Q317.04-16.68 317.96-13.72L317.96-13.72L314.72-13.72Q314.04-15.44 312.56-16.52Q311.08-17.60 309.16-17.60Q307.24-17.60 305.90-17Q304.56-16.40 303.64-15.36L303.64-15.36Q301.68-13.20 301.68-10L301.68-10Q301.68-6.80 303.64-4.64L303.64-4.64Q305.64-2.40 309.16-2.40Z M325.68-28L328.68-28L328.68-16.88Q329.76-18.32 331.32-19.32Q332.88-20.32 334.88-20.32Q336.88-20.32 338.32-19.76Q339.76-19.20 340.84-18.08L340.84-18.08Q343.32-15.64 343.32-11.64L343.32-11.64L343.32 0L340.32 0L340.32-11.56Q340.32-14.32 338.76-15.96Q337.20-17.60 334.72-17.60L334.72-17.60Q332.20-17.60 330.44-15.92L330.44-15.92Q328.68-14.20 328.68-11.52L328.68-11.52L328.68 0L325.68 0L325.68-28Z"/></g>
</svg>
</g><g opacity="1" transform="rotate(0 70.2496 284.2346)">
<svg width="383.0196" height="36" x="70.2496" y="284.2346" version="1.1" preserveAspectRatio="none" viewBox="-6.72 -33.2 463.88000000000005 43.60000000000001">
  <g transform="matrix(1 0 0 1 0 0)" class="companyName"><path id="id-D6z1nYkh19" d="M5.20 0.92L5.20-24.64Q5.20-26.04 5.06-26.90Q4.92-27.76 4.52-28.26Q4.12-28.76 3.38-28.94Q2.64-29.12 1.40-29.20L1.40-29.20L1.40-30.80L14.88-30.80L14.88-29.20Q13.64-29.16 12.88-28.96Q12.12-28.76 11.72-28.24Q11.32-27.72 11.20-26.80Q11.08-25.88 11.08-24.36L11.08-24.36L11.08 0.08Q11.08 5.12 8.52 7.76Q5.96 10.40 0.88 10.40L0.88 10.40Q-2.76 10.40-4.74 9.16Q-6.72 7.92-6.72 6L-6.72 6Q-6.72 4.84-5.98 4.22Q-5.24 3.60-4.16 3.60L-4.16 3.60Q-3.24 3.60-2.70 4.08Q-2.16 4.56-1.36 5.88L-1.36 5.88Q-0.56 7.20 0.08 7.64Q0.72 8.08 1.64 8.08L1.64 8.08Q3.36 8.08 4.28 6.20Q5.20 4.32 5.20 0.92L5.20 0.92Z M38.04-5.12L39.16-3.72Q35.52 0.40 30.08 0.40L30.08 0.40Q27.60 0.40 25.58-0.38Q23.56-1.16 22.12-2.58Q20.68-4 19.88-5.96Q19.08-7.92 19.08-10.32L19.08-10.32Q19.08-12.80 19.92-14.86Q20.76-16.92 22.30-18.42Q23.84-19.92 25.94-20.76Q28.04-21.60 30.56-21.60L30.56-21.60Q34.80-21.60 37.16-19.32Q39.52-17.04 39.52-12.92L39.52-12.92Q39.52-12.28 39.32-12.14Q39.12-12 38.20-12L38.20-12L25.32-12Q25.16-11.64 25.16-10.68L25.16-10.68Q25.16-6.76 26.86-4.48Q28.56-2.20 31.48-2.20L31.48-2.20Q33.16-2.20 34.82-2.96Q36.48-3.72 38.04-5.12L38.04-5.12ZM25.60-14.24L31.40-14.24Q33-14.24 33.46-14.42Q33.92-14.60 33.92-15.28L33.92-15.28Q33.92-17.04 32.92-18.16Q31.92-19.28 30.40-19.28L30.40-19.28Q28.68-19.28 27.34-17.86Q26-16.44 25.60-14.24L25.60-14.24Z M63.08-12.92L53.92 6.28Q53.48 7.16 52.82 7.92Q52.16 8.68 51.34 9.22Q50.52 9.76 49.64 10.08Q48.76 10.40 47.88 10.40L47.88 10.40Q46.56 10.40 45.76 9.76Q44.96 9.12 44.96 8.04L44.96 8.04Q44.96 7.04 45.66 6.48Q46.36 5.92 47.92 5.80L47.92 5.80Q51.48 5.52 52.52 3.56L52.52 3.56L53.60 1.48L46.52-16.04Q46.04-17.20 45.70-17.88Q45.36-18.56 44.96-18.94Q44.56-19.32 44.04-19.44Q43.52-19.56 42.76-19.60L42.76-19.60L42.76-21.20L54.88-21.20L54.88-19.60Q53.32-19.60 52.70-19.30Q52.08-19 52.08-18.20L52.08-18.20Q52.08-17.88 52.18-17.46Q52.28-17.04 52.44-16.60L52.44-16.60L56.52-4.92L56.68-4.92L60.12-12.72Q60.64-13.96 61-14.78Q61.36-15.60 61.54-16.18Q61.72-16.76 61.80-17.12Q61.88-17.48 61.88-17.84L61.88-17.84Q61.88-18.88 61.30-19.24Q60.72-19.60 58.96-19.60L58.96-19.60L58.96-21.20L68.60-21.20L68.60-19.60Q67.80-19.60 67.24-19.38Q66.68-19.16 66.10-18.48Q65.52-17.80 64.82-16.46Q64.12-15.12 63.08-12.92L63.08-12.92Z M90.92-12.92L81.76 6.28Q81.32 7.16 80.66 7.92Q80 8.68 79.18 9.22Q78.36 9.76 77.48 10.08Q76.60 10.40 75.72 10.40L75.72 10.40Q74.40 10.40 73.60 9.76Q72.80 9.12 72.80 8.04L72.80 8.04Q72.80 7.04 73.50 6.48Q74.20 5.92 75.76 5.80L75.76 5.80Q79.32 5.52 80.36 3.56L80.36 3.56L81.44 1.48L74.36-16.04Q73.88-17.20 73.54-17.88Q73.20-18.56 72.80-18.94Q72.40-19.32 71.88-19.44Q71.36-19.56 70.60-19.60L70.60-19.60L70.60-21.20L82.72-21.20L82.72-19.60Q81.16-19.60 80.54-19.30Q79.92-19 79.92-18.20L79.92-18.20Q79.92-17.88 80.02-17.46Q80.12-17.04 80.28-16.60L80.28-16.60L84.36-4.92L84.52-4.92L87.96-12.72Q88.48-13.96 88.84-14.78Q89.20-15.60 89.38-16.18Q89.56-16.76 89.64-17.12Q89.72-17.48 89.72-17.84L89.72-17.84Q89.72-18.88 89.14-19.24Q88.56-19.60 86.80-19.60L86.80-19.60L86.80-21.20L96.44-21.20L96.44-19.60Q95.64-19.60 95.08-19.38Q94.52-19.16 93.94-18.48Q93.36-17.80 92.66-16.46Q91.96-15.12 90.92-12.92L90.92-12.92Z M111.40-7.60L111.40-11.40Q108.04-9.88 106.34-8.58Q104.64-7.28 104.64-5.88L104.64-5.88Q104.64-4.72 105.28-4.04Q105.92-3.36 106.88-3.36L106.88-3.36Q107.84-3.36 108.68-3.70Q109.52-4.04 110.12-4.60Q110.72-5.16 111.06-5.94Q111.40-6.72 111.40-7.60L111.40-7.60ZM105.76-11.08L111.40-13.52L111.40-15.20Q111.40-17.52 110.58-18.58Q109.76-19.64 108.04-19.64L108.04-19.64Q106.88-19.64 106.28-19.02Q105.68-18.40 105.16-16.96L105.16-16.96Q104.80-15.96 104.14-15.40Q103.48-14.84 102.32-14.84L102.32-14.84Q101.20-14.84 100.60-15.52Q100-16.20 100-17.44L100-17.44Q100-19.36 102.10-20.48Q104.20-21.60 108.44-21.60L108.44-21.60Q112.92-21.60 114.84-19.98Q116.76-18.36 116.76-14.56L116.76-14.56L116.76-5.80Q116.76-2.40 118.12-2.40L118.12-2.40Q118.88-2.40 119.52-2.92L119.52-2.92L120.12-1.76Q119.56-0.76 118.38-0.18Q117.20 0.40 115.72 0.40L115.72 0.40Q113.88 0.40 112.92-0.72Q111.96-1.84 111.96-3.88L111.96-3.88L111.76-3.88Q110.60-1.80 108.76-0.72Q106.92 0.36 104.56 0.36L104.56 0.36Q102.04 0.36 100.52-1.06Q99-2.48 99-4.76L99-4.76Q99-6.52 100.56-8.06Q102.12-9.60 105.76-11.08L105.76-11.08Z M132.92-8.12L132.92-6.20Q132.92-4.64 133.06-3.74Q133.20-2.84 133.64-2.36Q134.08-1.88 134.92-1.74Q135.76-1.60 137.16-1.60L137.16-1.60L137.16 0L123.80 0L123.80-1.60Q125-1.68 125.72-1.84Q126.44-2 126.80-2.48Q127.16-2.96 127.26-3.86Q127.36-4.76 127.36-6.28L127.36-6.28L127.36-11.16Q127.36-13.64 127.24-15.12Q127.12-16.60 126.72-17.40Q126.32-18.20 125.58-18.46Q124.84-18.72 123.64-18.72L123.64-18.72L123.64-20.12L131.64-21.60L132.28-17L132.44-17Q133.52-19.12 135.28-20.36Q137.04-21.60 139-21.60L139-21.60Q140.52-21.60 141.48-20.84Q142.44-20.08 142.44-18.92L142.44-18.92Q142.44-17.64 141.70-16.76Q140.96-15.88 139.68-15.88L139.68-15.88Q139.08-15.88 138.60-16.12Q138.12-16.36 137.74-16.66Q137.36-16.96 136.98-17.22Q136.60-17.48 136.20-17.48L136.20-17.48Q135.44-17.48 134.76-16.48Q134.08-15.48 133.64-13.80L133.64-13.80Q133.32-12.60 133.12-11.10Q132.92-9.60 132.92-8.12L132.92-8.12Z M187.48-30.80L187.88-22L186.16-22Q186.04-23.96 185.58-25.26Q185.12-26.56 184.28-27.34Q183.44-28.12 182.24-28.42Q181.04-28.72 179.44-28.72L179.44-28.72Q177.88-28.72 176.94-28.66Q176-28.60 175.50-28.46Q175-28.32 174.84-28.08Q174.68-27.84 174.68-27.48L174.68-27.48L174.68-6.52Q174.68-5.24 174.86-4.32Q175.04-3.40 175.60-2.82Q176.16-2.24 177.24-1.94Q178.32-1.64 180.08-1.60L180.08-1.60L180.08 0L163.32 0L163.32-1.60Q165.12-1.64 166.20-1.94Q167.28-2.24 167.86-2.82Q168.44-3.40 168.62-4.32Q168.80-5.24 168.80-6.52L168.80-6.52L168.80-27.48Q168.80-27.84 168.66-28.08Q168.52-28.32 168.08-28.46Q167.64-28.60 166.82-28.66Q166-28.72 164.68-28.72L164.68-28.72Q163.24-28.72 161.92-28.58Q160.60-28.44 159.60-27.78Q158.60-27.12 157.98-25.78Q157.36-24.44 157.32-22L157.32-22L155.76-22L156.16-30.80L187.48-30.80Z M207.60-5.12L208.72-3.72Q205.08 0.40 199.64 0.40L199.64 0.40Q197.16 0.40 195.14-0.38Q193.12-1.16 191.68-2.58Q190.24-4 189.44-5.96Q188.64-7.92 188.64-10.32L188.64-10.32Q188.64-12.80 189.48-14.86Q190.32-16.92 191.86-18.42Q193.40-19.92 195.50-20.76Q197.60-21.60 200.12-21.60L200.12-21.60Q204.36-21.60 206.72-19.32Q209.08-17.04 209.08-12.92L209.08-12.92Q209.08-12.28 208.88-12.14Q208.68-12 207.76-12L207.76-12L194.88-12Q194.72-11.64 194.72-10.68L194.72-10.68Q194.72-6.76 196.42-4.48Q198.12-2.20 201.04-2.20L201.04-2.20Q202.72-2.20 204.38-2.96Q206.04-3.72 207.60-5.12L207.60-5.12ZM195.16-14.24L200.96-14.24Q202.56-14.24 203.02-14.42Q203.48-14.60 203.48-15.28L203.48-15.28Q203.48-17.04 202.48-18.16Q201.48-19.28 199.96-19.28L199.96-19.28Q198.24-19.28 196.90-17.86Q195.56-16.44 195.16-14.24L195.16-14.24Z M232.60-4.84L233.64-3.32Q232.12-1.64 229.86-0.72Q227.60 0.20 224.96 0.20L224.96 0.20Q222.52 0.20 220.52-0.58Q218.52-1.36 217.08-2.76Q215.64-4.16 214.86-6.14Q214.08-8.12 214.08-10.52L214.08-10.52Q214.08-13 214.92-15.04Q215.76-17.08 217.28-18.54Q218.80-20 220.92-20.80Q223.04-21.60 225.60-21.60L225.60-21.60Q227.40-21.60 228.94-21.24Q230.48-20.88 231.58-20.24Q232.68-19.60 233.32-18.74Q233.96-17.88 233.96-16.88L233.96-16.88Q233.96-15.72 233.30-15.04Q232.64-14.36 231.52-14.36L231.52-14.36Q230.60-14.36 229.90-14.84Q229.20-15.32 228.52-16.40L228.52-16.40Q227.92-17.36 227.50-17.92Q227.08-18.48 226.72-18.78Q226.36-19.08 226-19.18Q225.64-19.28 225.12-19.28L225.12-19.28Q222.80-19.28 221.52-17.12Q220.24-14.96 220.24-11.08L220.24-11.08Q220.24-6.92 221.78-4.68Q223.32-2.44 226.20-2.44L226.20-2.44Q227.84-2.44 229.48-3.06Q231.12-3.68 232.60-4.84L232.60-4.84Z M246.84-11.88L246.84-6.56Q246.84-4.92 246.94-3.98Q247.04-3.04 247.38-2.52Q247.72-2 248.42-1.84Q249.12-1.68 250.32-1.60L250.32-1.60L250.32 0L237.72 0L237.72-1.60Q238.92-1.68 239.64-1.84Q240.36-2 240.72-2.48Q241.08-2.96 241.18-3.86Q241.28-4.76 241.28-6.28L241.28-6.28L241.28-22.72Q241.28-25.12 241.22-26.50Q241.16-27.88 241-28.60L241-28.60Q240.88-29.12 240.72-29.42Q240.56-29.72 240.22-29.90Q239.88-30.08 239.30-30.14Q238.72-30.20 237.84-30.20L237.84-30.20L237.84-31.68L246.76-33.20L246.76-18.44L246.92-18.44Q248.16-20.08 249.70-20.84Q251.24-21.60 253.40-21.60L253.40-21.60Q257.32-21.60 259.48-19.20L259.48-19.20Q260.52-18 261.12-16.30Q261.72-14.60 261.72-12.76L261.72-12.76L261.72-6.56Q261.72-4.88 261.80-3.94Q261.88-3 262.22-2.50Q262.56-2 263.24-1.84Q263.92-1.68 265.12-1.60L265.12-1.60L265.12 0L252.60 0L252.60-1.60Q253.80-1.64 254.50-1.82Q255.20-2 255.58-2.48Q255.96-2.96 256.06-3.86Q256.16-4.76 256.16-6.28L256.16-6.28L256.16-11.20Q256.16-15.44 255.24-17.20Q254.32-18.96 252.08-18.96L252.08-18.96Q249.68-18.96 248.28-17.20L248.28-17.20Q247.60-16.28 247.22-14.92Q246.84-13.56 246.84-11.88L246.84-11.88Z M277.92-12.04L277.92-6.52Q277.92-4.88 278.02-3.94Q278.12-3 278.46-2.50Q278.80-2 279.50-1.84Q280.20-1.68 281.40-1.60L281.40-1.60L281.40 0L268.80 0L268.80-1.60Q269.96-1.68 270.66-1.84Q271.36-2 271.74-2.48Q272.12-2.96 272.24-3.84Q272.36-4.72 272.36-6.24L272.36-6.24L272.36-11.24Q272.36-13.60 272.28-15.06Q272.20-16.52 272.08-17.04L272.08-17.04Q271.96-17.56 271.76-17.90Q271.56-18.24 271.16-18.42Q270.76-18.60 270.16-18.66Q269.56-18.72 268.64-18.72L268.64-18.72L268.64-20.08L276.36-21.60L276.88-18.08L277.04-18.08Q278.36-19.76 280.16-20.68Q281.96-21.60 284.12-21.60L284.12-21.60Q286.68-21.60 288.26-20.90Q289.84-20.20 291.08-18.56L291.08-18.56Q291.76-17.64 292.28-16.18Q292.80-14.72 292.80-12.16L292.80-12.16L292.80-6.52Q292.80-4.88 292.90-3.94Q293-3 293.34-2.50Q293.68-2 294.36-1.84Q295.04-1.68 296.20-1.60L296.20-1.60L296.20 0L283.68 0L283.68-1.60Q284.88-1.64 285.58-1.82Q286.28-2 286.64-2.48Q287-2.96 287.12-3.86Q287.24-4.76 287.24-6.24L287.24-6.24L287.24-11.68Q287.24-13.72 287-15.12Q286.76-16.52 286.22-17.38Q285.68-18.24 284.80-18.62Q283.92-19 282.60-19L282.60-19Q281.32-19 280.40-18.28Q279.48-17.56 278.80-16.28L278.80-16.28Q278.44-15.56 278.18-14.42Q277.92-13.28 277.92-12.04L277.92-12.04Z M311.84-21.60L311.84-21.60Q314.24-21.60 316.38-20.78Q318.52-19.96 320.14-18.52Q321.76-17.08 322.70-15.10Q323.64-13.12 323.64-10.76L323.64-10.76Q323.64-8.32 322.70-6.28Q321.76-4.24 320.14-2.76Q318.52-1.28 316.38-0.44Q314.24 0.40 311.84 0.40L311.84 0.40Q309.48 0.40 307.36-0.42Q305.24-1.24 303.64-2.72Q302.04-4.20 301.12-6.26Q300.20-8.32 300.20-10.76L300.20-10.76Q300.20-13.12 301.12-15.12Q302.04-17.12 303.64-18.56Q305.24-20 307.36-20.80Q309.48-21.60 311.84-21.60ZM311.84-19.28L311.84-19.28Q310.64-19.28 309.64-18.66Q308.64-18.04 307.94-16.92Q307.24-15.80 306.86-14.22Q306.48-12.64 306.48-10.72L306.48-10.72Q306.48-8.72 306.86-7.12Q307.24-5.52 307.94-4.40Q308.64-3.28 309.62-2.66Q310.60-2.04 311.84-2.04L311.84-2.04Q313.08-2.04 314.10-2.66Q315.12-3.28 315.84-4.42Q316.56-5.56 316.96-7.16Q317.36-8.76 317.36-10.72L317.36-10.72Q317.36-12.64 316.96-14.20Q316.56-15.76 315.84-16.90Q315.12-18.04 314.10-18.66Q313.08-19.28 311.84-19.28Z M337.00-33.20L337.00-6.56Q337.00-4.96 337.12-4Q337.24-3.04 337.60-2.52Q337.96-2 338.64-1.82Q339.32-1.64 340.48-1.60L340.48-1.60L340.48 0L327.88 0L327.88-1.60Q329.00-1.64 329.70-1.86Q330.40-2.08 330.78-2.58Q331.16-3.08 331.30-3.98Q331.44-4.88 331.44-6.28L331.44-6.28L331.44-22.80Q331.44-25.12 331.36-26.62Q331.28-28.12 331.16-28.68L331.16-28.68Q330.96-29.68 330.26-30Q329.56-30.32 327.72-30.32L327.72-30.32L327.72-31.68L337.00-33.20Z M356.44-21.60L356.44-21.60Q358.84-21.60 360.98-20.78Q363.12-19.96 364.74-18.52Q366.36-17.08 367.30-15.10Q368.24-13.12 368.24-10.76L368.24-10.76Q368.24-8.32 367.30-6.28Q366.36-4.24 364.74-2.76Q363.12-1.28 360.98-0.44Q358.84 0.40 356.44 0.40L356.44 0.40Q354.08 0.40 351.96-0.42Q349.84-1.24 348.24-2.72Q346.64-4.20 345.72-6.26Q344.80-8.32 344.80-10.76L344.80-10.76Q344.80-13.12 345.72-15.12Q346.64-17.12 348.24-18.56Q349.84-20 351.96-20.80Q354.08-21.60 356.44-21.60ZM356.44-19.28L356.44-19.28Q355.24-19.28 354.24-18.66Q353.24-18.04 352.54-16.92Q351.84-15.80 351.46-14.22Q351.08-12.64 351.08-10.72L351.08-10.72Q351.08-8.72 351.46-7.12Q351.84-5.52 352.54-4.40Q353.24-3.28 354.22-2.66Q355.20-2.04 356.44-2.04L356.44-2.04Q357.68-2.04 358.70-2.66Q359.72-3.28 360.44-4.42Q361.16-5.56 361.56-7.16Q361.96-8.76 361.96-10.72L361.96-10.72Q361.96-12.64 361.56-14.20Q361.16-15.76 360.44-16.90Q359.72-18.04 358.70-18.66Q357.68-19.28 356.44-19.28Z M380.84-4.32L380.84-4.32Q381.92-4.24 382.74-4.16Q383.56-4.08 384.30-3.98Q385.04-3.88 385.78-3.78Q386.52-3.68 387.36-3.56L387.36-3.56Q390.48-3.12 392.26-1.22Q394.04 0.68 394.04 3.48L394.04 3.48Q394.04 6.88 391.24 8.64Q388.44 10.40 383.00 10.40L383.00 10.40Q378.00 10.40 375.30 8.94Q372.60 7.48 372.60 4.80L372.60 4.80Q372.60 2.72 373.68 1.66Q374.76 0.60 376.40 0.60L376.40 0.60Q377.44 0.60 378.42 1.02Q379.40 1.44 380.08 2.24L380.08 2.24Q379.04 2.44 378.38 3.18Q377.72 3.92 377.72 4.92L377.72 4.92Q377.72 6.52 379.14 7.38Q380.56 8.24 383.32 8.24L383.32 8.24Q389.32 8.24 389.32 4.44L389.32 4.44Q389.32 3.08 388.42 2.10Q387.52 1.12 385.84 0.92L385.84 0.92L378.84-0.04Q374.40-0.64 374.40-4L374.40-4Q374.40-5.64 375.46-6.68Q376.52-7.72 378.48-8.12L378.48-8.12L378.48-8.28Q377.56-8.64 376.82-9.28Q376.08-9.92 375.52-10.76Q374.96-11.60 374.66-12.58Q374.36-13.56 374.36-14.60L374.36-14.60Q374.36-16.08 374.98-17.38Q375.60-18.68 376.70-19.60Q377.80-20.52 379.30-21.06Q380.80-21.60 382.56-21.60L382.56-21.60Q384.28-21.60 385.92-21.08Q387.56-20.56 388.72-19.64L388.72-19.64Q389.64-20.20 390.32-20.58Q391.00-20.96 391.58-21.18Q392.16-21.40 392.64-21.50Q393.12-21.60 393.60-21.60L393.60-21.60Q395.12-21.60 396.06-20.92Q397.00-20.24 397.00-19.12L397.00-19.12Q397.00-18.28 396.48-17.74Q395.96-17.20 395.12-17.20L395.12-17.20Q394.52-17.20 394.16-17.46Q393.80-17.72 393.46-18.06Q393.12-18.40 392.76-18.66Q392.40-18.92 391.80-18.92L391.80-18.92Q390.96-18.92 390.20-17.84L390.20-17.84Q390.60-17.16 390.76-16.38Q390.92-15.60 390.92-14.56L390.92-14.56Q390.92-13.04 390.44-11.76Q389.96-10.48 388.94-9.50Q387.92-8.52 386.32-7.84Q384.72-7.16 382.44-6.92L382.44-6.92Q380.52-6.72 379.78-6.40Q379.04-6.08 379.04-5.44L379.04-5.44Q379.04-4.48 380.84-4.32ZM382.76-9.20L382.76-9.20Q384.04-9.20 384.76-10.56Q385.48-11.92 385.48-14.36L385.48-14.36Q385.48-16.84 384.76-18.18Q384.04-19.52 382.72-19.52L382.72-19.52Q381.36-19.52 380.56-18.16Q379.76-16.80 379.76-14.44L379.76-14.44Q379.76-12.04 380.58-10.62Q381.40-9.20 382.76-9.20Z M408.40-21.60L408.40-6.56Q408.40-4.96 408.52-4Q408.64-3.04 409.00-2.52Q409.36-2 410.04-1.82Q410.72-1.64 411.88-1.60L411.88-1.60L411.88 0L399.28 0L399.28-1.60Q400.40-1.64 401.10-1.86Q401.80-2.08 402.18-2.58Q402.56-3.08 402.70-3.98Q402.84-4.88 402.84-6.28L402.84-6.28L402.84-11.20Q402.84-13.52 402.76-15.02Q402.68-16.52 402.56-17.08L402.56-17.08Q402.36-18.08 401.66-18.40Q400.96-18.72 399.12-18.72L399.12-18.72L399.12-20.08L408.40-21.60ZM402.52-30.08L402.52-30.08Q402.52-31.40 403.42-32.30Q404.32-33.20 405.60-33.20L405.60-33.20Q406.92-33.20 407.82-32.30Q408.72-31.40 408.72-30.08L408.72-30.08Q408.72-28.80 407.82-27.90Q406.92-27 405.60-27L405.60-27Q404.32-27 403.42-27.90Q402.52-28.80 402.52-30.08Z M435.04-5.12L436.16-3.72Q432.52 0.40 427.08 0.40L427.08 0.40Q424.60 0.40 422.58-0.38Q420.56-1.16 419.12-2.58Q417.68-4 416.88-5.96Q416.08-7.92 416.08-10.32L416.08-10.32Q416.08-12.80 416.92-14.86Q417.76-16.92 419.30-18.42Q420.84-19.92 422.94-20.76Q425.04-21.60 427.56-21.60L427.56-21.60Q431.80-21.60 434.16-19.32Q436.52-17.04 436.52-12.92L436.52-12.92Q436.52-12.28 436.32-12.14Q436.12-12 435.20-12L435.20-12L422.32-12Q422.16-11.64 422.16-10.68L422.16-10.68Q422.16-6.76 423.86-4.48Q425.56-2.20 428.48-2.20L428.48-2.20Q430.16-2.20 431.82-2.96Q433.48-3.72 435.04-5.12L435.04-5.12ZM422.60-14.24L428.40-14.24Q430.00-14.24 430.46-14.42Q430.92-14.60 430.92-15.28L430.92-15.28Q430.92-17.04 429.92-18.16Q428.92-19.28 427.40-19.28L427.40-19.28Q425.68-19.28 424.34-17.86Q423.00-16.44 422.60-14.24L422.60-14.24Z M444.24-1.40L443.36 0L442.12 0L442.12-7.28L443.80-7.28Q444.48-4.40 445.76-3.08Q447.04-1.76 449.08-1.76L449.08-1.76Q450.56-1.76 451.38-2.38Q452.20-3 452.20-4.08L452.20-4.08Q452.20-5.20 451.20-6.26Q450.20-7.32 447.96-8.52L447.96-8.52Q444.92-10.16 443.60-11.78Q442.28-13.40 442.28-15.44L442.28-15.44Q442.28-16.76 442.78-17.90Q443.28-19.04 444.14-19.88Q445.00-20.72 446.20-21.18Q447.40-21.64 448.80-21.64L448.80-21.64Q450.04-21.64 451.26-21.28Q452.48-20.92 453.40-20.28L453.40-20.28L454.12-21.24L455.16-21.24L455.16-15.20L453.60-15.20Q452.68-17.48 451.70-18.48Q450.72-19.48 449.32-19.48L449.32-19.48Q448.20-19.48 447.54-18.88Q446.88-18.28 446.88-17.28L446.88-17.28Q446.88-16.16 447.86-15.16Q448.84-14.16 451.12-12.96L451.12-12.96Q452.72-12.08 453.88-11.24Q455.04-10.40 455.76-9.54Q456.48-8.68 456.82-7.74Q457.16-6.80 457.16-5.72L457.16-5.72Q457.16-4.32 456.64-3.20Q456.12-2.08 455.16-1.28Q454.20-0.48 452.86-0.04Q451.52 0.40 449.88 0.40L449.88 0.40Q448.16 0.40 446.68-0.06Q445.20-0.52 444.24-1.40L444.24-1.40Z"/></g>
</svg>
</g><g opacity="1" transform="rotate(0 166.0045 57.5433)">
<svg width="191.5098" height="196.6913" x="166.0045" y="57.5433" version="1.1" preserveAspectRatio="none" viewBox="0.581000030040741 0.5759999752044678 3.806999921798706 3.9100000858306885">
  <g transform="matrix(1 0 0 1 0 0)" class="icon1"><g><g><g><circle cx="0.892" cy="1.597" r="0.066"></circle></g></g><g><g><circle cx="0.988" cy="1.966" r="0.067"></circle></g></g><g><g><circle cx="0.809" cy="1.788" r="0.066"></circle></g></g><g><g><rect x="0.772" y="1.849" transform="matrix(0.7022 0.7119 -0.7119 0.7022 1.6039 -0.0801)" width="0.252" height="0.057"></rect></g></g><g><g><circle cx="3.201" cy="1.517" r="0.066"></circle></g></g><g><g><circle cx="3.199" cy="1.709" r="0.066"></circle></g></g><g><g><polygon points="0.619,3.095 0.619,2.299 0.676,2.299 0.676,3.071    "></polygon></g></g><g><g><polygon points="1.623,4.269 1.564,4.269 1.564,4.113 1.333,3.882 1.333,3.531 1.654,3.209 1.695,3.251      1.391,3.555 1.391,3.858 1.623,4.09    "></polygon></g></g><g><g><circle cx="1.681" cy="3.23" r="0.066"></circle></g></g><g><g><polygon points="1.647,3.987 1.516,3.855 1.516,3.625 1.67,3.471 1.711,3.512 1.574,3.649 1.574,3.833      1.688,3.948    "></polygon></g></g><g><g><circle cx="1.69" cy="3.491" r="0.066"></circle></g></g><g><g><circle cx="1.662" cy="3.961" r="0.066"></circle></g></g><g><g><circle cx="0.647" cy="2.299" r="0.066"></circle></g></g><g><g><circle cx="0.838" cy="3.282" r="0.066"></circle></g></g><g><g><circle cx="1.218" cy="3.729" r="0.066"></circle></g></g><g><g><circle cx="1.125" cy="3.96" r="0.066"></circle></g></g><g><g><circle cx="1.352" cy="4.13" r="0.066"></circle></g></g><g><g><circle cx="0.838" cy="2.904" r="0.066"></circle></g></g><g><g><circle cx="1.703" cy="2.526" r="0.067"></circle></g></g><g><g><circle cx="1.125" cy="3.512" r="0.066"></circle></g></g><g><g><circle cx="1.831" cy="4.321" r="0.066"></circle></g></g><g><g><circle cx="1.721" cy="3.729" r="0.066"></circle></g></g><g><g><circle cx="0.647" cy="3.062" r="0.066"></circle></g></g><g><g><circle cx="1.594" cy="4.269" r="0.066"></circle></g></g><g><g><rect x="0.81" y="2.904" width="0.057" height="0.408"></rect></g></g><g><g><polygon points="1.146,3.533 1.104,3.492 1.674,2.923 1.674,2.532 1.731,2.532 1.674,2.532 1.731,2.532      1.731,2.949    "></polygon></g></g><g><g><circle cx="1.106" cy="3.244" r="0.067"></circle></g></g><g><g><circle cx="1.104" cy="3.053" r="0.066"></circle></g></g><g><g><circle cx="0.83" cy="2.412" r="0.066"></circle></g></g><g><g><circle cx="0.977" cy="2.265" r="0.066"></circle></g></g><g><g><circle cx="1.208" cy="2.033" r="0.066"></circle></g></g><g><g><circle cx="1.344" cy="2.195" r="0.066"></circle></g></g><g><g><circle cx="1.344" cy="2.476" r="0.066"></circle></g></g><g><g><circle cx="1.323" cy="2.789" r="0.066"></circle></g></g><g><g><circle cx="1.323" cy="3.083" r="0.066"></circle></g></g><g><g><circle cx="1.029" cy="2.511" r="0.066"></circle></g></g><g><g><circle cx="1.151" cy="2.683" r="0.066"></circle></g></g><g><g><circle cx="0.802" cy="2.095" r="0.066"></circle></g></g><g><g><polygon points="1.217,3.759 1.085,3.759 0.943,3.616 0.943,3.368 1.086,3.225 1.126,3.265 1,3.391 1,3.591      1.109,3.701 1.217,3.701    "></polygon></g></g><g><g><polygon points="1.86,4.321 1.802,4.321 1.802,3.845 1.702,3.752 1.74,3.708 1.86,3.819    "></polygon></g></g><g><g><polygon points="1.138,3.083 1.081,3.083 1.081,2.92 0.802,2.641 0.802,2.412 0.859,2.412 0.859,2.618      1.138,2.897    "></polygon></g></g><g><g><g><circle cx="3.065" cy="0.842" r="0.066"></circle></g></g></g><g><g><polygon points="2.706,1.895 2.096,1.895 2.096,1.838 2.681,1.838 2.974,1.544 3.014,1.586    "></polygon></g></g><g><g><polygon points="1.731,2.259 1.674,2.259 1.674,1.735 1.93,1.479 2.297,1.479 2.5,1.274 2.5,0.99 2.829,0.659      2.87,0.699 2.558,1.015 2.558,1.299 2.32,1.536 1.955,1.536 1.731,1.759    "></polygon></g></g><g><g><polygon points="2.58,1.519 2.539,1.479 2.705,1.312 2.705,1.048 2.826,0.927 2.866,0.968 2.763,1.072      2.763,1.337    "></polygon></g></g><g><g><polygon points="1.537,2.659 1.479,2.659 1.479,1.648 1.818,1.308 1.972,1.308 1.972,1.365 1.843,1.365      1.537,1.672    "></polygon></g></g><g><g><polygon points="2.224,1.355 2.182,1.316 2.264,1.233 2.264,0.708 2.323,0.708 2.323,1.258    "></polygon></g></g><g><g><polygon points="1.376,1.866 1.319,1.866 1.319,1.554 1.55,1.322 1.55,0.974 1.607,0.951 1.607,1.346      1.376,1.577    "></polygon></g></g><g><g><circle cx="1.574" cy="0.951" r="0.067"></circle></g></g><g><g><circle cx="1.79" cy="0.958" r="0.067"></circle></g></g><g><g><polyline points="1.425,1.089 1.425,1.321 1.293,1.452 1.252,1.412 1.368,1.296 1.368,1.113    "></polyline></g></g><g><g><circle cx="1.278" cy="1.426" r="0.066"></circle></g></g><g><g><circle cx="2.293" cy="0.708" r="0.066"></circle></g></g><g><g><circle cx="2.449" cy="0.833" r="0.067"></circle></g></g><g><g><circle cx="2.211" cy="1.333" r="0.066"></circle></g></g><g><g><circle cx="2.103" cy="1.169" r="0.066"></circle></g></g><g><g><circle cx="1.723" cy="1.194" r="0.067"></circle></g></g><g><g><circle cx="1.998" cy="1.333" r="0.066"></circle></g></g><g><g><circle cx="2.103" cy="0.747" r="0.066"></circle></g></g><g><g><circle cx="1.397" cy="1.102" r="0.066"></circle></g></g><g><g><circle cx="1.094" cy="1.77" r="0.066"></circle></g></g><g><g><circle cx="1.205" cy="1.212" r="0.066"></circle></g></g><g><g><circle cx="2.849" cy="0.679" r="0.067"></circle></g></g><g><g><circle cx="2.636" cy="0.643" r="0.067"></circle></g></g><g><g><circle cx="2.845" cy="0.948" r="0.066"></circle></g></g><g><g><circle cx="2.095" cy="1.866" r="0.066"></circle></g></g><g><g><circle cx="2.029" cy="2.047" r="0.066"></circle></g></g><g><g><circle cx="2.917" cy="2.618" r="0.066"></circle></g></g><g><g><circle cx="3.699" cy="2.823" r="0.067"></circle></g></g><g><g><circle cx="1.703" cy="2.259" r="0.067"></circle></g></g><g><g><rect x="1.479" y="1.66" width="0.057" height="1.196"></rect></g></g><g><g><circle cx="1.508" cy="2.855" r="0.067"></circle></g></g><g><g><circle cx="1.347" cy="1.866" r="0.067"></circle></g></g><g><g><circle cx="2.52" cy="1.522" r="0.067"></circle></g></g><g><g><g><polygon points="1.885,2.823 1.828,2.823 1.828,1.831 1.992,1.666 2.583,1.666 2.956,1.293 2.997,1.333       2.606,1.724 2.015,1.724 1.885,1.854     "></polygon></g></g><g><g><circle cx="1.857" cy="2.823" r="0.066"></circle></g></g><g><g><circle cx="2.976" cy="1.31" r="0.067"></circle></g></g></g><g><g><circle cx="2.994" cy="1.565" r="0.067"></circle></g></g><g><g><rect x="2.073" y="0.747" width="0.057" height="0.423"></rect></g></g><g><g><circle cx="1.875" cy="0.75" r="0.066"></circle></g></g><g><g><polygon points="1.855,1.223 1.723,1.223 1.723,1.165 1.831,1.165 1.94,1.055 1.94,0.855 1.815,0.729      1.855,0.688 1.998,0.832 1.998,1.08    "></polygon></g></g><g><g><polygon points="1.123,1.768 1.065,1.768 1.065,1.302 1.185,1.193 1.225,1.234 1.123,1.328    "></polygon></g></g><g><g><rect x="2.608" y="0.648" width="0.057" height="0.253"></rect></g></g><g><g><polygon points="2.945,2.618 2.887,2.618 2.887,2.258 2.707,2.078 2.003,2.078 2.003,2.02 2.73,2.02 2.945,2.235         "></polygon></g></g><g><g><polygon points="3.196,1.244 3.155,1.203 3.26,1.1 3.26,1 3.328,0.931 3.368,0.971 3.317,1.022 3.317,1.123         "></polygon></g></g><g><g><polygon points="3.757,2.248 3.7,2.248 3.7,1.328 3.757,1.351    "></polygon></g></g><g><g><circle cx="3.729" cy="2.248" r="0.067"></circle></g></g><g><g><circle cx="3.575" cy="1.088" r="0.066"></circle></g></g><g><g><circle cx="3.361" cy="2.408" r="0.067"></circle></g></g><g><g><circle cx="3.361" cy="2.625" r="0.067"></circle></g></g><g><g><circle cx="3.293" cy="1.884" r="0.066"></circle></g></g><g><g><circle cx="3.141" cy="2.625" r="0.066"></circle></g></g><g><g><circle cx="3.729" cy="1.333" r="0.067"></circle></g></g><g><g><circle cx="3.919" cy="1.491" r="0.066"></circle></g></g><g><g><circle cx="3.919" cy="1.966" r="0.066"></circle></g></g><g><g><circle cx="3.385" cy="1.424" r="0.067"></circle></g></g><g><g><circle cx="2.962" cy="1.867" r="0.066"></circle></g></g><g><g><circle cx="2.961" cy="2.047" r="0.067"></circle></g></g><g><g><circle cx="3.385" cy="1.693" r="0.067"></circle></g></g><g><g><circle cx="3.176" cy="1.224" r="0.066"></circle></g></g><g><g><circle cx="3.387" cy="0.928" r="0.066"></circle></g></g><g><g><circle cx="3.002" cy="1.067" r="0.067"></circle></g></g><g><g><rect x="3.891" y="1.491" width="0.057" height="0.475"></rect></g></g><g><g><circle cx="4.186" cy="1.818" r="0.067"></circle></g></g><g><g><circle cx="3.911" cy="2.823" r="0.066"></circle></g></g><g><g><circle cx="3.708" cy="2.459" r="0.067"></circle></g></g><g><g><polygon points="3.389,2.408 3.332,2.408 3.332,2.067 3.546,1.852 3.546,1.088 3.604,1.088 3.604,1.876      3.389,2.092    "></polygon></g></g><g><g><polygon points="3.94,2.823 3.883,2.823 3.883,2.229 4.161,1.95 4.161,1.789 4.219,1.789 4.219,1.975 3.94,2.253         "></polygon></g></g><g><g><rect x="3.356" y="1.434" width="0.057" height="0.255"></rect></g></g><g><g><circle cx="3.509" cy="2.186" r="0.066"></circle></g></g><g><g><rect x="3.48" y="1.926" width="0.057" height="0.255"></rect></g></g><g><g><polygon points="3.17,2.625 3.112,2.625 3.112,2.01 3.274,1.85 3.314,1.89 3.17,2.035    "></polygon></g></g><g><g><rect x="2.919" y="2.116" transform="matrix(0.7071 0.7071 -0.7071 0.7071 2.4114 -1.5326)" width="0.273" height="0.058"></rect></g></g><g><g><polygon points="4.006,3.787 4.006,3.607 3.901,3.503 3.942,3.463 4.063,3.584 4.063,3.764    "></polygon></g></g><g><g><circle cx="4.322" cy="3.195" r="0.066"></circle></g></g><g><g><circle cx="4.107" cy="2.327" r="0.067"></circle></g></g><g><g><circle cx="3.771" cy="3.067" r="0.066"></circle></g></g><g><g><circle cx="3.922" cy="3.483" r="0.066"></circle></g></g><g><g><circle cx="4.034" cy="3.775" r="0.066"></circle></g></g><g><g><circle cx="3.807" cy="3.828" r="0.066"></circle></g></g><g><g><circle cx="3.633" cy="3.982" r="0.067"></circle></g></g><g><g><g><circle cx="3.11" cy="4.336" r="0.066"></circle></g></g><g><g><circle cx="3.11" cy="3.775" r="0.066"></circle></g></g><g><g><rect x="3.081" y="3.775" width="0.058" height="0.561"></rect></g></g></g><g><g><circle cx="4.207" cy="3.533" r="0.066"></circle></g></g><g><g><polygon points="4.351,3.195 4.292,3.195 4.292,3.019 4.079,2.804 4.079,2.327 4.136,2.327 4.136,2.781      4.351,2.995    "></polygon></g></g><g><g><g><circle cx="4.091" cy="3.332" r="0.067"></circle></g></g><g><g><circle cx="4.091" cy="2.998" r="0.067"></circle></g></g><g><g><rect x="4.062" y="3.002" width="0.057" height="0.35"></rect></g></g></g><g><g><circle cx="4.254" cy="2.162" r="0.066"></circle></g></g><g><g><rect x="4.225" y="2.166" width="0.058" height="0.778"></rect></g></g><g><g><polygon points="3.746,3.619 3.331,3.206 2.765,3.206 2.601,3.042 2.601,2.228 2.658,2.228 2.658,3.017      2.788,3.148 3.355,3.148 3.786,3.58    "></polygon></g></g><g><g><polygon points="3.72,3.326 3.428,3.035 2.891,3.035 2.891,2.977 3.452,2.977 3.761,3.286    "></polygon></g></g><g><g><polygon points="3.583,4.219 3.246,3.88 3.246,3.596 3.042,3.394 2.676,3.394 2.42,3.136 2.42,2.425 2.478,2.425      2.478,3.112 2.701,3.335 3.066,3.335 3.303,3.573 3.303,3.857 3.623,4.178    "></polygon></g></g><g><g><polygon points="3.572,3.78 3.451,3.659 3.451,3.559 3.284,3.392 3.325,3.352 3.509,3.534 3.509,3.636      3.613,3.74    "></polygon></g></g><g><g><polygon points="2.718,3.563 2.565,3.563 2.226,3.224 2.226,2.238 2.283,2.238 2.283,3.2 2.589,3.505      2.718,3.505    "></polygon></g></g><g><g><polygon points="2.04,4.19 1.999,4.148 2.296,3.852 2.296,3.549 2.006,3.258 2.006,2.334 2.064,2.334      2.064,3.235 2.354,3.525 2.354,3.875    "></polygon></g></g><g><g><circle cx="2.013" cy="4.169" r="0.066"></circle></g></g><g><g><polygon points="2.018,3.936 1.977,3.895 2.113,3.758 2.113,3.575 1.999,3.46 2.04,3.419 2.171,3.552      2.171,3.782    "></polygon></g></g><g><g><circle cx="1.997" cy="3.915" r="0.066"></circle></g></g><g><g><circle cx="2.024" cy="3.447" r="0.066"></circle></g></g><g><g><circle cx="2.957" cy="3.538" r="0.066"></circle></g></g><g><g><circle cx="2.848" cy="3.702" r="0.067"></circle></g></g><g><g><circle cx="2.469" cy="3.678" r="0.066"></circle></g></g><g><g><circle cx="2.744" cy="3.538" r="0.066"></circle></g></g><g><g><circle cx="2.848" cy="4.382" r="0.067"></circle></g></g><g><g><circle cx="2.073" cy="4.382" r="0.066"></circle></g></g><g><g><circle cx="2.561" cy="3.894" r="0.066"></circle></g></g><g><g><circle cx="1.857" cy="3.083" r="0.066"></circle></g></g><g><g><circle cx="1.966" cy="3.678" r="0.066"></circle></g></g><g><g><circle cx="3.603" cy="4.199" r="0.067"></circle></g></g><g><g><circle cx="3.351" cy="4.197" r="0.066"></circle></g></g><g><g><circle cx="3.592" cy="3.76" r="0.067"></circle></g></g><g><g><circle cx="2.629" cy="2.228" r="0.066"></circle></g></g><g><g><circle cx="2.891" cy="3.004" r="0.066"></circle></g></g><g><g><circle cx="2.782" cy="2.823" r="0.067"></circle></g></g><g><g><circle cx="2.449" cy="2.425" r="0.067"></circle></g></g><g><g><circle cx="2.254" cy="2.238" r="0.066"></circle></g></g><g><g><circle cx="2.035" cy="2.334" r="0.066"></circle></g></g><g><g><circle cx="3.266" cy="3.349" r="0.067"></circle></g></g><g><g><circle cx="3.765" cy="3.603" r="0.067"></circle></g></g><g><g><circle cx="3.74" cy="3.306" r="0.067"></circle></g></g><g><g><rect x="2.82" y="3.702" width="0.057" height="0.68"></rect></g></g><g><g><rect x="2.29" y="3.792" transform="matrix(0.7157 0.6984 -0.6984 0.7157 3.5488 -0.4425)" width="0.057" height="0.691"></rect></g></g><g><g><circle cx="2.515" cy="4.229" r="0.066"></circle></g></g><g><g><circle cx="2.59" cy="4.42" r="0.066"></circle></g></g><g><g><polygon points="2.535,4.249 2.494,4.208 2.687,4.015 2.687,3.815 2.578,3.707 2.469,3.707 2.469,3.649      2.602,3.649 2.744,3.792 2.744,4.04    "></polygon></g></g><g><g><polygon points="1.946,3.698 1.827,3.588 1.828,3.086 1.885,3.086 1.885,3.563 1.986,3.655    "></polygon></g></g><g><g><rect x="3.323" y="3.943" width="0.057" height="0.254"></rect></g></g><g><g><rect x="2.756" y="2.795" width="0.96" height="0.056"></rect></g></g><g><g><polygon points="3.572,2.661 3.374,2.661 3.374,2.604 3.547,2.604 3.687,2.464 3.728,2.504    "></polygon></g></g><g><g><rect x="1.066" y="1.973" transform="matrix(0.7113 0.7029 -0.7029 0.7113 1.8286 -0.1482)" width="0.058" height="0.358"></rect></g></g><g><g><rect x="1.159" y="2.13" transform="matrix(0.6944 0.7195 -0.7195 0.6944 2.0575 -0.1357)" width="0.058" height="0.449"></rect></g></g><g><g><rect x="1.225" y="2.413" transform="matrix(0.6944 0.7195 -0.7195 0.6944 2.2334 -0.1167)" width="0.058" height="0.316"></rect></g></g><g><g><rect x="1.294" y="2.789" width="0.058" height="0.299"></rect></g></g><g><g><circle cx="2.336" cy="4.42" r="0.066"></circle></g></g></g></g>
</svg>
</g></svg></svg>