<svg version="1.1" preserveAspectRatio="none" xmlns="http://www.w3.org/2000/svg" width="500" height="500" viewBox="0 0 500 500"><rect width="100%" height="100%" fill="#0B0633" fill-opacity="1"/><svg viewBox="40.6083 146.2641 595.951 190" width="333" height="106.1664465702717" x="83.5px" y="196.9168px" xmlns="http://www.w3.org/2000/svg" xmlns:xlink="http://www.w3.org/1999/xlink" preserveAspectRatio="none"><defs></defs><style>.companyName {fill:#F5F4F4;fill-opacity:1;}.icon1 {fill:#FF4949;fill-opacity:1;}.icon2 {fill:#4F53FF;fill-opacity:1;}.icon3 {fill:#EB63DD;fill-opacity:1;}.icon3-str {stroke:#EB63DD;stroke-opacity:1;}.shapeStroke-str {stroke:#313131;stroke-opacity:1;}.text {fill:#F9F9F9;fill-opacity:1;}</style><g opacity="1" transform="rotate(0 40.6083 161.2641)">
<svg width="159.3904" height="160" x="40.6083" y="161.2641" version="1.1" preserveAspectRatio="none" viewBox="0.6700000166893005 0.6630000472068787 3.6599998474121094 3.6740002632141113">
  <g transform="matrix(1 0 0 1 0 0)" class="icon1"><g><path d="M1.022,1.399c0.075,0,0.149,0.002,0.224,0.01C1.43,1.426,1.613,1.461,1.794,1.506C1.975,1.552,2.153,1.607,2.329,1.67   c0.177,0.063,0.338,0.126,0.505,0.187C2.999,1.918,3.161,1.978,3.32,2.03c0.159,0.052,0.315,0.097,0.465,0.127   c0.149,0.03,0.293,0.046,0.424,0.041c0.033,0,0.065-0.003,0.096-0.007C4.3,2.161,4.294,2.131,4.287,2.102c0,0,0,0-0.001,0   C4.167,2.086,4.043,2.06,3.915,2.026C3.761,1.986,3.602,1.935,3.44,1.874C3.279,1.812,3.115,1.742,2.953,1.662   C2.872,1.622,2.792,1.58,2.712,1.535c-0.04-0.022-0.08-0.044-0.118-0.068L2.478,1.4C2.325,1.312,2.169,1.231,2.013,1.161   C1.857,1.09,1.702,1.029,1.55,0.986C1.526,0.98,1.503,0.974,1.479,0.968C1.304,1.084,1.149,1.231,1.022,1.399z"></path><path d="M2.633,1.138L2.75,1.211c0.038,0.024,0.075,0.047,0.113,0.071C2.937,1.33,3.012,1.377,3.086,1.423   c0.148,0.093,0.295,0.182,0.441,0.262c0.146,0.081,0.29,0.153,0.431,0.209C4.061,1.936,4.162,1.968,4.259,1.99   C4.038,1.223,3.331,0.663,2.494,0.663c-0.207,0-0.406,0.034-0.591,0.098C1.986,0.793,2.068,0.83,2.15,0.87   C2.315,0.951,2.477,1.042,2.633,1.138z"></path><path d="M3.869,2.917C3.736,2.971,3.594,3.021,3.445,3.066C3.295,3.11,3.139,3.148,2.979,3.178c-0.04,0.007-0.08,0.014-0.121,0.021   c-0.04,0.006-0.081,0.012-0.122,0.017c-0.042,0.005-0.08,0.01-0.122,0.015C2.577,3.235,2.538,3.24,2.499,3.245   c-0.156,0.02-0.31,0.044-0.458,0.077c-0.147,0.032-0.29,0.072-0.416,0.123C1.562,3.471,1.503,3.498,1.45,3.528   C1.398,3.559,1.352,3.593,1.317,3.626c-0.035,0.035-0.06,0.069-0.074,0.101S1.224,3.789,1.226,3.821   c0,0.003,0.001,0.006,0.001,0.009c0.33,0.314,0.775,0.507,1.266,0.507c0.957,0,1.743-0.732,1.829-1.667   c-0.029,0.022-0.06,0.043-0.091,0.064C4.124,2.802,4.001,2.862,3.869,2.917z"></path><path d="M1.257,3.195c0.074-0.042,0.15-0.078,0.228-0.107c0.156-0.059,0.318-0.1,0.481-0.131c0.164-0.03,0.331-0.051,0.496-0.063   c0.042-0.003,0.083-0.006,0.125-0.008c0.04-0.003,0.079-0.004,0.119-0.007c0.079-0.005,0.157-0.009,0.235-0.014   c0.156-0.01,0.309-0.019,0.457-0.034c0.148-0.015,0.29-0.036,0.422-0.067C3.95,2.732,4.071,2.69,4.173,2.635   C4.233,2.602,4.288,2.564,4.33,2.523c0-0.008,0-0.016,0-0.023c0,0,0,0,0,0C4.274,2.525,4.214,2.546,4.152,2.566   C4.015,2.609,3.865,2.642,3.706,2.669C3.547,2.697,3.378,2.719,3.203,2.733C3.027,2.749,2.846,2.755,2.663,2.75   c-0.045,0-0.092-0.002-0.138-0.005C2.479,2.744,2.433,2.741,2.386,2.737C2.339,2.733,2.295,2.729,2.249,2.725   S2.161,2.717,2.116,2.713C1.94,2.698,1.765,2.688,1.595,2.687c-0.17-0.002-0.335,0.005-0.488,0.025   c-0.076,0.01-0.149,0.022-0.216,0.04C0.823,2.769,0.762,2.789,0.71,2.813C0.702,2.817,0.694,2.821,0.686,2.825   c0.042,0.237,0.13,0.458,0.254,0.654c0.031-0.049,0.068-0.092,0.108-0.13C1.113,3.287,1.184,3.237,1.257,3.195z"></path><path d="M4.218,2.326C4.076,2.34,3.924,2.342,3.763,2.334c-0.16-0.006-0.329-0.022-0.502-0.045S2.91,2.233,2.732,2.19   C2.688,2.18,2.644,2.168,2.6,2.156C2.556,2.144,2.511,2.132,2.467,2.118c-0.045-0.014-0.088-0.026-0.132-0.04l-0.128-0.04   C2.038,1.986,1.868,1.939,1.7,1.903C1.533,1.866,1.367,1.839,1.211,1.828C1.056,1.816,0.908,1.819,0.787,1.847   C0.783,1.848,0.779,1.849,0.775,1.85C0.724,1.986,0.688,2.131,0.67,2.281c0.033-0.01,0.066-0.019,0.099-0.027   c0.092-0.022,0.185-0.038,0.278-0.048c0.186-0.02,0.374-0.022,0.562-0.014C1.796,2.202,1.984,2.22,2.169,2.247   c0.187,0.027,0.357,0.056,0.532,0.083C2.874,2.359,3.044,2.387,3.21,2.41c0.166,0.023,0.327,0.039,0.479,0.042   c0.152,0.003,0.296-0.007,0.422-0.035C4.19,2.4,4.262,2.376,4.324,2.345c0-0.011-0.002-0.022-0.002-0.034   C4.288,2.317,4.253,2.322,4.218,2.326z"></path></g></g>
</svg>
</g><g opacity="1" transform="rotate(0 263.9987 161.2641)">
<svg width="372.5606" height="120" x="263.9987" y="161.2641" version="1.1" preserveAspectRatio="none" viewBox="1 -28.32 241.68 77.84">
  <g transform="matrix(1 0 0 1 0 0)" class="companyName"><path id="id-D6z1nYkh18" d="M1.00 7.52L1.00 6.72Q2.68 6.56 3.78 5.74Q4.88 4.92 5.46 3.02Q6.04 1.12 6.04-2.16L6.04-2.16L6.04-24.08Q6.04-25.60 5.82-26.28Q5.60-26.96 4.98-27.20Q4.36-27.44 3.04-27.52L3.04-27.52L3.04-28.32Q5.04-28.20 9.08-28.20L9.08-28.20Q13.20-28.20 15.40-28.32L15.40-28.32L15.40-27.52Q14.04-27.44 13.44-27.20Q12.84-26.96 12.62-26.28Q12.40-25.60 12.40-24.08L12.40-24.08L12.40-9.44L12.40-7Q12.40-1.36 11.72 1L11.72 1Q10.88 3.92 8.14 5.72Q5.40 7.52 1.00 7.52L1.00 7.52Z M28.44-2.72Q31.72-2.72 33.72-5.92L33.72-5.92L34.44-5.68Q33.64-3.08 31.58-1.26Q29.52 0.56 26.44 0.56L26.44 0.56Q22.20 0.56 19.70-2.14Q17.20-4.84 17.20-10.12L17.20-10.12Q17.20-15.52 19.88-18.38Q22.56-21.24 27-21.24L27-21.24Q34.52-21.24 34.52-12.36L34.52-12.36L23.28-12.36Q23.24-11.76 23.24-10.48L23.24-10.48Q23.24-7.84 23.98-6.08Q24.72-4.32 25.90-3.52Q27.08-2.72 28.44-2.72L28.44-2.72ZM26.76-20.40Q25.32-20.40 24.38-18.62Q23.44-16.84 23.20-13.12L23.20-13.12L29.48-13.12Q29.56-16.28 28.86-18.34Q28.16-20.40 26.76-20.40L26.76-20.40Z M48.60-2.72Q51.88-2.72 53.88-5.92L53.88-5.92L54.60-5.68Q53.80-3.08 51.74-1.26Q49.68 0.56 46.60 0.56L46.60 0.56Q42.36 0.56 39.86-2.14Q37.36-4.84 37.36-10.12L37.36-10.12Q37.36-15.52 40.04-18.38Q42.72-21.24 47.16-21.24L47.16-21.24Q54.68-21.24 54.68-12.36L54.68-12.36L43.44-12.36Q43.40-11.76 43.40-10.48L43.40-10.48Q43.40-7.84 44.14-6.08Q44.88-4.32 46.06-3.52Q47.24-2.72 48.60-2.72L48.60-2.72ZM46.92-20.40Q45.48-20.40 44.54-18.62Q43.60-16.84 43.36-13.12L43.36-13.12L49.64-13.12Q49.72-16.28 49.02-18.34Q48.32-20.40 46.92-20.40L46.92-20.40Z M73.00-20.56Q75.00-20.56 76.08-20.68L76.08-20.68L76.08-19.88Q75.24-19.64 74.58-18.86Q73.92-18.08 73.32-16.44L73.32-16.44L66.16 3.68Q65.36 5.76 64.40 6.52L64.40 6.52Q63.24 7.52 60.92 7.52L60.92 7.52Q59.24 7.52 57.90 6.70Q56.56 5.88 56.56 4.32L56.56 4.32Q56.56 3.08 57.44 2.34Q58.32 1.60 59.76 1.60L59.76 1.60Q61.12 1.60 61.94 2.26Q62.76 2.92 62.76 4.12L62.76 4.12Q62.76 4.96 62.24 5.66Q61.72 6.36 60.76 6.72L60.76 6.72Q61.04 6.76 61.68 6.76L61.68 6.76Q64.16 6.76 65.32 3.60L65.32 3.60L65.96 1.68L57.48-17.60Q56.84-18.96 56.24-19.40Q55.64-19.84 55.00-19.84L55.00-19.84L55.00-20.68Q57.64-20.44 60.48-20.44L60.48-20.44Q62.84-20.44 66.04-20.68L66.04-20.68L66.04-19.84Q64.76-19.84 64.14-19.66Q63.52-19.48 63.52-18.72L63.52-18.72Q63.52-18.28 63.80-17.60L63.80-17.60L68.68-5.80L71.44-13.48Q72.08-15.36 72.08-16.68L72.08-16.68Q72.08-19.60 69.12-19.88L69.12-19.88L69.12-20.68Q71.00-20.56 73.00-20.56L73.00-20.56Z M82.12 0.28Q79.56 0.28 78.30-1.04Q77.04-2.36 77.04-4.52L77.04-4.52Q77.04-6.32 77.98-7.50Q78.92-8.68 80.26-9.32Q81.60-9.96 83.68-10.68L83.68-10.68Q85.88-11.44 86.90-12.06Q87.92-12.68 87.92-13.76L87.92-13.76L87.92-16.88Q87.92-18.56 87.14-19.50Q86.36-20.44 84.72-20.44L84.72-20.44Q82.80-20.44 81.80-19.48L81.80-19.48Q82.92-19.08 83.54-18.28Q84.16-17.48 84.16-16.40L84.16-16.40Q84.16-15.04 83.24-14.24Q82.32-13.44 81.00-13.44L81.00-13.44Q79.60-13.44 78.84-14.32Q78.08-15.20 78.08-16.52L78.08-16.52Q78.08-17.64 78.62-18.42Q79.16-19.20 80.28-19.88L80.28-19.88Q81.36-20.52 82.94-20.88Q84.52-21.24 86.40-21.24L86.40-21.24Q88.36-21.24 89.80-20.84Q91.24-20.44 92.20-19.48L92.20-19.48Q93.08-18.60 93.38-17.32Q93.68-16.04 93.68-13.84L93.68-13.84L93.68-2.96Q93.68-2 93.86-1.60Q94.04-1.20 94.56-1.20L94.56-1.20Q95.16-1.20 96.00-1.88L96.00-1.88L96.40-1.20Q94.60 0.28 92.00 0.28L92.00 0.28Q89.80 0.28 88.92-0.60Q88.04-1.48 88.00-2.96L88.00-2.96Q86.00 0.28 82.12 0.28L82.12 0.28ZM85.20-2.28Q86.76-2.28 87.92-3.92L87.92-3.92L87.92-12.12Q87.44-11.32 85.88-10.36L85.88-10.36Q84.32-9.36 83.52-8.36Q82.72-7.36 82.72-5.48L82.72-5.48Q82.72-3.84 83.40-3.06Q84.08-2.28 85.20-2.28L85.20-2.28Z M111.32-21.24Q113.12-21.24 114.04-20.16Q114.96-19.08 114.96-17.56L114.96-17.56Q114.96-16.08 114.10-15.14Q113.24-14.20 111.84-14.20L111.84-14.20Q110.48-14.20 109.68-14.90Q108.88-15.60 108.88-16.76L108.88-16.76Q108.88-18.68 110.64-19.88L110.64-19.88Q110.48-19.92 110.16-19.92L110.16-19.92Q109.76-19.92 109.52-19.84L109.52-19.84Q108.00-19.60 106.94-18Q105.88-16.40 105.88-14.72L105.88-14.72L105.88-4.12Q105.88-2.28 106.78-1.56Q107.68-0.84 109.64-0.84L109.64-0.84L109.64 0Q109.08 0 108.72-0.04L108.72-0.04Q104.64-0.16 103.28-0.16L103.28-0.16Q102.20-0.16 98.36-0.04L98.36-0.04Q98.04 0 97.56 0L97.56 0L97.56-0.84Q99.00-0.84 99.56-1.46Q100.12-2.08 100.12-3.72L100.12-3.72L100.12-16.32Q100.12-18.16 99.56-19Q99.00-19.84 97.56-19.84L97.56-19.84L97.56-20.68Q98.84-20.56 100.04-20.56L100.04-20.56Q103.60-20.56 105.88-21.12L105.88-21.12L105.88-17.40Q106.64-19.12 108.08-20.18Q109.52-21.24 111.32-21.24L111.32-21.24Z M25.68 13.68Q25.40 17.48 25.40 20.48L25.40 20.48Q25.40 22.36 25.52 23.52L25.52 23.52L24.60 23.52Q23.64 18.60 21.98 16.60Q20.32 14.60 17.44 14.60L17.44 14.60L16.52 14.60L16.52 37.44Q16.52 39.12 16.86 39.88Q17.20 40.64 18.06 40.90Q18.92 41.16 20.80 41.20L20.80 41.20L20.80 42Q15.76 41.88 13.20 41.88L13.20 41.88Q10.68 41.88 5.88 42L5.88 42L5.88 41.20Q7.76 41.16 8.62 40.90Q9.48 40.64 9.82 39.88Q10.16 39.12 10.16 37.44L10.16 37.44L10.16 14.60L9.28 14.60Q7.36 14.60 6.02 15.44Q4.68 16.28 3.72 18.22Q2.76 20.16 2.08 23.52L2.08 23.52L1.16 23.52Q1.28 22.36 1.28 20.48L1.28 20.48Q1.28 17.48 1 13.68L1 13.68Q4.64 13.80 13.36 13.80L13.36 13.80Q22.08 13.80 25.68 13.68L25.68 13.68Z M37.80 39.28Q41.08 39.28 43.08 36.08L43.08 36.08L43.80 36.32Q43 38.92 40.94 40.74Q38.88 42.56 35.80 42.56L35.80 42.56Q31.56 42.56 29.06 39.86Q26.56 37.16 26.56 31.88L26.56 31.88Q26.56 26.48 29.24 23.62Q31.92 20.76 36.36 20.76L36.36 20.76Q43.88 20.76 43.88 29.64L43.88 29.64L32.64 29.64Q32.60 30.24 32.60 31.52L32.60 31.52Q32.60 34.16 33.34 35.92Q34.08 37.68 35.26 38.48Q36.44 39.28 37.80 39.28L37.80 39.28ZM36.12 21.60Q34.68 21.60 33.74 23.38Q32.80 25.16 32.56 28.88L32.56 28.88L38.84 28.88Q38.92 25.72 38.22 23.66Q37.52 21.60 36.12 21.60L36.12 21.60Z M56.60 20.76Q58.08 20.76 59.40 21.08Q60.72 21.40 61.60 21.96L61.60 21.96Q62.64 22.60 63.22 23.58Q63.80 24.56 63.80 25.72L63.80 25.72Q63.80 27.12 62.92 28.02Q62.04 28.92 60.64 28.92L60.64 28.92Q59.24 28.92 58.40 28.12Q57.56 27.32 57.56 25.96L57.56 25.96Q57.56 24.76 58.32 23.88Q59.08 23 60.20 22.68L60.20 22.68Q59.88 22.24 59.22 21.98Q58.56 21.72 57.80 21.72L57.80 21.72Q55.40 21.72 54.06 24.34Q52.72 26.96 52.72 31.20L52.72 31.20Q52.72 35.48 54.24 37.36Q55.76 39.24 58.04 39.24L58.04 39.24Q59.40 39.24 60.78 38.52Q62.16 37.80 63.28 36L63.28 36L63.96 36.24Q63.16 38.84 61.16 40.70Q59.16 42.56 56.00 42.56L56.00 42.56Q51.88 42.56 49.28 39.84Q46.68 37.12 46.68 31.76L46.68 31.76Q46.68 28.24 47.96 25.76Q49.24 23.28 51.48 22.02Q53.72 20.76 56.60 20.76L56.60 20.76Z M74.16 10.72L74.16 24.48Q75.96 20.76 80.68 20.76L80.68 20.76Q83.80 20.76 85.08 22.32L85.08 22.32Q85.76 23.08 86.06 24.30Q86.36 25.52 86.36 27.52L86.36 27.52L86.36 38.28Q86.36 39.92 86.92 40.54Q87.48 41.16 88.92 41.16L88.92 41.16L88.92 42Q84.76 41.84 83.64 41.84L83.64 41.84Q82.28 41.84 78.44 42L78.44 42L78.44 41.16Q79.64 41.16 80.12 40.54Q80.60 39.92 80.60 38.28L80.60 38.28L80.60 25.84Q80.60 24.20 80.06 23.36Q79.52 22.52 78.12 22.52L78.12 22.52Q76.44 22.52 75.30 23.82Q74.16 25.12 74.16 27.12L74.16 27.12L74.16 38.28Q74.16 39.92 74.64 40.54Q75.12 41.16 76.32 41.16L76.32 41.16L76.32 42Q72.48 41.84 71.36 41.84L71.36 41.84Q70 41.84 65.84 42L65.84 42L65.84 41.16Q67.24 41.16 67.82 40.54Q68.40 39.92 68.40 38.28L68.40 38.28L68.40 15.52Q68.40 13.68 67.82 12.84Q67.24 12 65.84 12L65.84 12L65.84 11.16Q67.12 11.28 68.32 11.28L68.32 11.28Q71.80 11.28 74.16 10.72L74.16 10.72Z M105.24 20.76Q108.28 20.76 109.64 22.32L109.64 22.32Q110.32 23.08 110.60 24.28Q110.88 25.48 110.88 27.52L110.88 27.52L110.88 38.28Q110.88 39.92 111.46 40.54Q112.04 41.16 113.44 41.16L113.44 41.16L113.44 42Q109.44 41.84 108.16 41.84L108.16 41.84Q106.96 41.84 102.96 42L102.96 42L102.96 41.16Q104.16 41.16 104.64 40.54Q105.12 39.92 105.12 38.28L105.12 38.28L105.12 25.84Q105.12 24.20 104.58 23.36Q104.04 22.52 102.64 22.52L102.64 22.52Q101 22.52 99.84 23.86Q98.68 25.20 98.68 27.16L98.68 27.16L98.68 38.28Q98.68 39.92 99.16 40.54Q99.64 41.16 100.84 41.16L100.84 41.16L100.84 42Q97.16 41.84 95.88 41.84L95.88 41.84Q94.68 41.84 90.36 42L90.36 42L90.36 41.16Q91.80 41.16 92.36 40.54Q92.92 39.92 92.92 38.28L92.92 38.28L92.92 25.68Q92.92 23.84 92.36 23Q91.80 22.16 90.36 22.16L90.36 22.16L90.36 21.32Q91.64 21.44 92.84 21.44L92.84 21.44Q96.40 21.44 98.68 20.88L98.68 20.88L98.68 24.48Q100.48 20.76 105.24 20.76L105.24 20.76Z M125.24 20.76Q129.84 20.76 132.44 23.38Q135.04 26 135.04 31.68L135.04 31.68Q135.04 37.36 132.44 39.96Q129.84 42.56 125.24 42.56L125.24 42.56Q120.68 42.56 118.06 39.96Q115.44 37.36 115.44 31.68L115.44 31.68Q115.44 26 118.06 23.38Q120.68 20.76 125.24 20.76L125.24 20.76ZM125.24 21.56Q123.52 21.56 122.50 24.06Q121.48 26.56 121.48 31.68L121.48 31.68Q121.48 36.80 122.50 39.28Q123.52 41.76 125.24 41.76L125.24 41.76Q127.00 41.76 128 39.30Q129 36.84 129 31.68L129 31.68Q129 26.52 127.98 24.04Q126.96 21.56 125.24 21.56L125.24 21.56Z M145.28 10.68L145.28 38.28Q145.28 39.92 145.84 40.54Q146.40 41.16 147.84 41.16L147.84 41.16L147.84 42Q143.68 41.84 142.48 41.84L142.48 41.84Q141.12 41.84 136.96 42L136.96 42L136.96 41.16Q138.36 41.16 138.94 40.54Q139.52 39.92 139.52 38.28L139.52 38.28L139.52 15.48Q139.52 13.64 138.94 12.80Q138.36 11.96 136.96 11.96L136.96 11.96L136.96 11.12Q138.24 11.24 139.44 11.24L139.44 11.24Q142.92 11.24 145.28 10.68L145.28 10.68Z M159.48 20.76Q164.08 20.76 166.68 23.38Q169.28 26 169.28 31.68L169.28 31.68Q169.28 37.36 166.68 39.96Q164.08 42.56 159.48 42.56L159.48 42.56Q154.92 42.56 152.30 39.96Q149.68 37.36 149.68 31.68L149.68 31.68Q149.68 26 152.30 23.38Q154.92 20.76 159.48 20.76L159.48 20.76ZM159.48 21.56Q157.76 21.56 156.74 24.06Q155.72 26.56 155.72 31.68L155.72 31.68Q155.72 36.80 156.74 39.28Q157.76 41.76 159.48 41.76L159.48 41.76Q161.24 41.76 162.24 39.30Q163.24 36.84 163.24 31.68L163.24 31.68Q163.24 26.52 162.22 24.04Q161.20 21.56 159.48 21.56L159.48 21.56Z M190.72 25.16Q189.92 25.16 189.36 24.62Q188.80 24.08 188.80 23.08L188.80 23.08Q188.80 22.12 189.28 21.12L189.28 21.12Q188.32 21.52 187.70 22.02Q187.08 22.52 186.64 23.28L186.64 23.28Q187.88 24.76 187.88 27.12L187.88 27.12Q187.88 30.28 185.70 31.88Q183.52 33.48 179.92 33.48L179.92 33.48L179.20 33.48Q177.56 34.44 177.56 35.60L177.56 35.60Q177.56 36.88 179.16 36.88L179.16 36.88L183.52 36.88Q187.04 36.88 189.14 38.18Q191.24 39.48 191.24 42.16L191.24 42.16Q191.24 44.20 189.94 45.86Q188.64 47.52 186.00 48.52Q183.36 49.52 179.52 49.52L179.52 49.52Q175.64 49.52 173.30 48.54Q170.96 47.56 170.96 45.72L170.96 45.72Q170.96 44.48 172.08 43.50Q173.20 42.52 175.40 41.96L175.40 41.96L175.76 42.60Q174.32 43.80 174.32 45.36L174.32 45.36Q174.32 47.04 175.84 47.94Q177.36 48.84 180.04 48.84L180.04 48.84Q182.84 48.84 184.58 47.72Q186.32 46.60 186.32 44.56L186.32 44.56Q186.32 43.24 185.34 42.48Q184.36 41.72 181.92 41.72L181.92 41.72L179.44 41.72Q176.88 41.72 175.44 40.86Q174.00 40 174.00 38.24L174.00 38.24Q174.00 36.76 175.04 35.60Q176.08 34.44 178.20 33.36L178.20 33.36Q175.32 33 173.64 31.44Q171.96 29.88 171.96 27.12L171.96 27.12Q171.96 23.96 174.14 22.36Q176.32 20.76 179.92 20.76L179.92 20.76Q183.92 20.76 186.04 22.64L186.04 22.64Q186.80 21.56 187.92 20.92Q189.04 20.28 190.20 20.28L190.20 20.28Q191.40 20.28 192.10 20.98Q192.80 21.68 192.80 22.80L192.80 22.80Q192.80 23.92 192.18 24.54Q191.56 25.16 190.72 25.16L190.72 25.16ZM179.92 32.76Q181.04 32.76 181.62 31.48Q182.20 30.20 182.20 27.12L182.20 27.12Q182.20 24.04 181.62 22.76Q181.04 21.48 179.92 21.48L179.92 21.48Q178.80 21.48 178.22 22.76Q177.64 24.04 177.64 27.12L177.64 27.12Q177.64 30.20 178.22 31.48Q178.80 32.76 179.92 32.76L179.92 32.76Z M199.08 11Q200.76 11 201.74 11.82Q202.72 12.64 202.72 14.08L202.72 14.08Q202.72 15.52 201.74 16.34Q200.76 17.16 199.08 17.16L199.08 17.16Q197.40 17.16 196.42 16.34Q195.44 15.52 195.44 14.08L195.44 14.08Q195.44 12.64 196.42 11.82Q197.40 11 199.08 11L199.08 11ZM202.20 20.88L202.20 38.28Q202.20 39.92 202.78 40.54Q203.36 41.16 204.76 41.16L204.76 41.16L204.76 42Q200.76 41.84 199.44 41.84L199.44 41.84Q198.20 41.84 193.88 42L193.88 42L193.88 41.16Q195.32 41.16 195.88 40.54Q196.44 39.92 196.44 38.28L196.44 38.28L196.44 25.68Q196.44 23.84 195.88 23Q195.32 22.16 193.88 22.16L193.88 22.16L193.88 21.32Q195.16 21.44 196.36 21.44L196.36 21.44Q199.92 21.44 202.20 20.88L202.20 20.88Z M218.24 39.28Q221.52 39.28 223.52 36.08L223.52 36.08L224.24 36.32Q223.44 38.92 221.38 40.74Q219.32 42.56 216.24 42.56L216.24 42.56Q212.00 42.56 209.50 39.86Q207.00 37.16 207.00 31.88L207.00 31.88Q207.00 26.48 209.68 23.62Q212.36 20.76 216.80 20.76L216.80 20.76Q224.32 20.76 224.32 29.64L224.32 29.64L213.08 29.64Q213.04 30.24 213.04 31.52L213.04 31.52Q213.04 34.16 213.78 35.92Q214.52 37.68 215.70 38.48Q216.88 39.28 218.24 39.28L218.24 39.28ZM216.56 21.60Q215.12 21.60 214.18 23.38Q213.24 25.16 213.00 28.88L213.00 28.88L219.28 28.88Q219.36 25.72 218.66 23.66Q217.96 21.60 216.56 21.60L216.56 21.60Z M234.56 20.76Q236.08 20.76 237.36 21.14Q238.64 21.52 239.32 22L239.32 22Q239.72 22.28 240.04 22.28L240.04 22.28Q240.40 22.28 240.66 21.90Q240.92 21.52 241.00 20.80L241.00 20.80L241.84 20.80Q241.68 22.84 241.68 27.84L241.68 27.84L240.84 27.84Q240.48 25.20 239.26 23.42Q238.04 21.64 235.72 21.64L235.72 21.64Q234.52 21.64 233.74 22.32Q232.96 23 232.96 24.20L232.96 24.20Q232.96 25.56 233.88 26.54Q234.80 27.52 236.76 28.92L236.76 28.92L237.92 29.76Q240.36 31.60 241.52 33.04Q242.68 34.48 242.68 36.64L242.68 36.64Q242.68 38.40 241.66 39.76Q240.64 41.12 238.92 41.84Q237.20 42.56 235.12 42.56L235.12 42.56Q232.92 42.56 231.36 41.72L231.36 41.72Q230.08 41.08 229.52 40.88L229.52 40.88Q229.12 40.76 228.82 41.14Q228.52 41.52 228.36 42.28L228.36 42.28L227.52 42.28Q227.68 40 227.68 34.28L227.68 34.28L228.52 34.28Q229.32 41.64 233.92 41.64L233.92 41.64Q235.08 41.64 235.90 40.94Q236.72 40.24 236.72 38.80L236.72 38.80Q236.72 37.68 236.22 36.80Q235.72 35.92 234.96 35.24Q234.20 34.56 232.68 33.36L232.68 33.36Q230.88 31.92 229.94 31.04Q229.00 30.16 228.34 28.96Q227.68 27.76 227.68 26.28L227.68 26.28Q227.68 23.72 229.68 22.24Q231.68 20.76 234.56 20.76L234.56 20.76Z"/></g>
</svg>
</g><g opacity="1" transform="rotate(0 228.9987 146.2641)">
<svg width="3" height="190" x="228.9987" y="146.2641" version="1.1" preserveAspectRatio="none" viewBox="0 0 3 190">
  <defs><rect x="0" y="0" width="3" height="190" rx="0px" ry="0px" id="id-tBXipXk0b1674496919929"></rect></defs><use class="companyName shapeStroke-str" style="stroke-width:0;" xlink:href="#id-tBXipXk0b1674496919929"></use>
</svg>
</g><g opacity="1" transform="rotate(0 263.9987 301.2641)">
<svg width="319.9269" height="20" x="263.9987" y="301.2641" version="1.1" preserveAspectRatio="none" viewBox="4.2 -30.28 612.4799999999999 38.28">
  <g transform="matrix(1 0 0 1 0 0)" class="text"><path id="id-D-YM9nyY426" d="M8.20-3.48L24.52-3.48L24.52 0L4.20 0L4.20-28L23.96-28L23.96-24.52L8.20-24.52L8.20-15.92L22.24-15.92L22.24-12.52L8.20-12.52L8.20-3.48Z M49.04 0L44.68 0L38.56-8.12L32.36 0L28.08 0L36.44-10.84L28.48-21.20L32.76-21.20L38.60-13.56L44.40-21.20L48.60-21.20L40.60-10.84L49.04 0Z M65.68-21.40Q68.76-21.40 71.20-20.04Q73.64-18.68 75.02-16.24Q76.40-13.80 76.40-10.60L76.40-10.60Q76.40-7.40 75.02-4.94Q73.64-2.48 71.20-1.12Q68.76 0.24 65.68 0.24L65.68 0.24Q63.40 0.24 61.50-0.64Q59.60-1.52 58.28-3.20L58.28-3.20L58.28 7.76L54.44 7.76L54.44-21.20L58.12-21.20L58.12-17.84Q59.40-19.60 61.36-20.50Q63.32-21.40 65.68-21.40L65.68-21.40ZM65.36-3.12Q67.40-3.12 69.02-4.06Q70.64-5 71.58-6.70Q72.52-8.40 72.52-10.60L72.52-10.60Q72.52-12.80 71.58-14.50Q70.64-16.20 69.02-17.12Q67.40-18.04 65.36-18.04L65.36-18.04Q63.36-18.04 61.74-17.10Q60.12-16.16 59.18-14.48Q58.24-12.80 58.24-10.60L58.24-10.60Q58.24-8.40 59.16-6.70Q60.08-5 61.72-4.06Q63.36-3.12 65.36-3.12L65.36-3.12Z M90.44-21.40Q94.84-21.40 97.18-19.24Q99.52-17.08 99.52-12.80L99.52-12.80L99.52 0L95.88 0L95.88-2.80Q94.92-1.32 93.14-0.54Q91.36 0.24 88.92 0.24L88.92 0.24Q85.36 0.24 83.22-1.48Q81.08-3.20 81.08-6L81.08-6Q81.08-8.80 83.12-10.50Q85.16-12.20 89.60-12.20L89.60-12.20L95.68-12.20L95.68-12.96Q95.68-15.44 94.24-16.76Q92.80-18.08 90.00-18.08L90.00-18.08Q88.12-18.08 86.32-17.46Q84.52-16.84 83.28-15.80L83.28-15.80L81.68-18.68Q83.32-20 85.60-20.70Q87.88-21.40 90.44-21.40L90.44-21.40ZM89.56-2.72Q91.76-2.72 93.36-3.70Q94.96-4.68 95.68-6.48L95.68-6.48L95.68-9.44L89.76-9.44Q84.88-9.44 84.88-6.16L84.88-6.16Q84.88-4.56 86.12-3.64Q87.36-2.72 89.56-2.72L89.56-2.72Z M119.16-21.40Q123.20-21.40 125.58-19.06Q127.96-16.72 127.96-12.20L127.96-12.20L127.96 0L124.12 0L124.12-11.76Q124.12-14.84 122.64-16.40Q121.16-17.96 118.40-17.96L118.40-17.96Q115.28-17.96 113.48-16.14Q111.68-14.32 111.68-10.92L111.68-10.92L111.68 0L107.84 0L107.84-21.20L111.52-21.20L111.52-18Q112.68-19.64 114.66-20.52Q116.64-21.40 119.16-21.40L119.16-21.40Z M152.56-29.68L156.40-29.68L156.40 0L152.72 0L152.72-3.36Q151.44-1.60 149.48-0.68Q147.52 0.24 145.16 0.24L145.16 0.24Q142.08 0.24 139.64-1.12Q137.20-2.48 135.82-4.94Q134.44-7.40 134.44-10.60L134.44-10.60Q134.44-13.80 135.82-16.24Q137.20-18.68 139.64-20.04Q142.08-21.40 145.16-21.40L145.16-21.40Q147.44-21.40 149.36-20.54Q151.28-19.68 152.56-18L152.56-18L152.56-29.68ZM145.48-3.12Q147.48-3.12 149.12-4.06Q150.76-5 151.68-6.70Q152.60-8.40 152.60-10.60L152.60-10.60Q152.60-12.80 151.68-14.50Q150.76-16.20 149.12-17.12Q147.48-18.04 145.48-18.04L145.48-18.04Q143.44-18.04 141.82-17.12Q140.20-16.20 139.26-14.50Q138.32-12.80 138.32-10.60L138.32-10.60Q138.32-8.40 139.26-6.70Q140.20-5 141.82-4.06Q143.44-3.12 145.48-3.12L145.48-3.12Z M164.88 0L164.88-21.20L168.72-21.20L168.72 0L164.88 0ZM166.80-25.28Q165.68-25.28 164.94-26Q164.20-26.72 164.20-27.76L164.20-27.76Q164.20-28.80 164.94-29.54Q165.68-30.28 166.80-30.28L166.80-30.28Q167.92-30.28 168.66-29.58Q169.40-28.88 169.40-27.84L169.40-27.84Q169.40-26.76 168.66-26.02Q167.92-25.28 166.80-25.28L166.80-25.28Z M188.56-21.40Q192.60-21.40 194.98-19.06Q197.36-16.72 197.36-12.20L197.36-12.20L197.36 0L193.52 0L193.52-11.76Q193.52-14.84 192.04-16.40Q190.56-17.96 187.80-17.96L187.80-17.96Q184.68-17.96 182.88-16.14Q181.08-14.32 181.08-10.92L181.08-10.92L181.08 0L177.24 0L177.24-21.20L180.92-21.20L180.92-18Q182.08-19.64 184.06-20.52Q186.04-21.40 188.56-21.40L188.56-21.40Z M222.44-21.20L226.08-21.20L226.08-2.88Q226.08 2.68 223.32 5.34Q220.56 8 215.08 8L215.08 8Q212.08 8 209.36 7.18Q206.64 6.36 204.96 4.84L204.96 4.84L206.80 1.88Q208.28 3.16 210.46 3.90Q212.64 4.64 214.96 4.64L214.96 4.64Q218.68 4.64 220.46 2.88Q222.24 1.12 222.24-2.48L222.24-2.48L222.24-4.16Q220.88-2.52 218.90-1.70Q216.92-0.88 214.60-0.88L214.60-0.88Q211.56-0.88 209.10-2.18Q206.64-3.48 205.24-5.82Q203.84-8.16 203.84-11.16L203.84-11.16Q203.84-14.16 205.24-16.50Q206.64-18.84 209.10-20.12Q211.56-21.40 214.60-21.40L214.60-21.40Q217-21.40 219.06-20.52Q221.12-19.64 222.44-17.92L222.44-17.92L222.44-21.20ZM215.04-4.24Q217.12-4.24 218.78-5.12Q220.44-6 221.38-7.58Q222.32-9.16 222.32-11.16L222.32-11.16Q222.32-14.24 220.28-16.14Q218.24-18.04 215.04-18.04L215.04-18.04Q211.80-18.04 209.76-16.14Q207.72-14.24 207.72-11.16L207.72-11.16Q207.72-9.16 208.66-7.58Q209.60-6 211.26-5.12Q212.92-4.24 215.04-4.24L215.04-4.24Z M252.68 0L252.68-24.52L243.08-24.52L243.08-28L266.24-28L266.24-24.52L256.64-24.52L256.64 0L252.68 0Z M288.20-10.48Q288.20-10.04 288.12-9.32L288.12-9.32L270.92-9.32Q271.28-6.52 273.38-4.82Q275.48-3.12 278.60-3.12L278.60-3.12Q282.40-3.12 284.72-5.68L284.72-5.68L286.84-3.20Q285.40-1.52 283.26-0.64Q281.12 0.24 278.48 0.24L278.48 0.24Q275.12 0.24 272.52-1.14Q269.92-2.52 268.50-5Q267.08-7.48 267.08-10.60L267.08-10.60Q267.08-13.68 268.46-16.16Q269.84-18.64 272.26-20.02Q274.68-21.40 277.72-21.40L277.72-21.40Q280.76-21.40 283.14-20.02Q285.52-18.64 286.86-16.16Q288.20-13.68 288.20-10.48L288.20-10.48ZM277.72-18.16Q274.96-18.16 273.10-16.48Q271.24-14.80 270.92-12.08L270.92-12.08L284.52-12.08Q284.20-14.76 282.34-16.46Q280.48-18.16 277.72-18.16L277.72-18.16Z M303.96 0.24Q300.72 0.24 298.18-1.16Q295.64-2.56 294.20-5.02Q292.76-7.48 292.76-10.60L292.76-10.60Q292.76-13.72 294.20-16.18Q295.64-18.64 298.18-20.02Q300.72-21.40 303.96-21.40L303.96-21.40Q306.84-21.40 309.10-20.24Q311.36-19.08 312.60-16.88L312.60-16.88L309.68-15Q308.68-16.52 307.20-17.28Q305.72-18.04 303.92-18.04L303.92-18.04Q301.84-18.04 300.18-17.12Q298.52-16.20 297.58-14.50Q296.64-12.80 296.64-10.60L296.64-10.60Q296.64-8.36 297.58-6.66Q298.52-4.96 300.18-4.04Q301.84-3.12 303.92-3.12L303.92-3.12Q305.72-3.12 307.20-3.88Q308.68-4.64 309.68-6.16L309.68-6.16L312.60-4.32Q311.36-2.12 309.10-0.94Q306.84 0.24 303.96 0.24L303.96 0.24Z M329.80-21.40Q333.84-21.40 336.22-19.06Q338.60-16.72 338.60-12.20L338.60-12.20L338.60 0L334.76 0L334.76-11.76Q334.76-14.84 333.28-16.40Q331.80-17.96 329.04-17.96L329.04-17.96Q325.92-17.96 324.12-16.14Q322.32-14.32 322.32-10.92L322.32-10.92L322.32 0L318.48 0L318.48-29.68L322.32-29.68L322.32-18.20Q323.52-19.72 325.46-20.56Q327.40-21.40 329.80-21.40L329.80-21.40Z M358.24-21.40Q362.28-21.40 364.66-19.06Q367.04-16.72 367.04-12.20L367.04-12.20L367.04 0L363.20 0L363.20-11.76Q363.20-14.84 361.72-16.40Q360.24-17.96 357.48-17.96L357.48-17.96Q354.36-17.96 352.56-16.14Q350.76-14.32 350.76-10.92L350.76-10.92L350.76 0L346.92 0L346.92-21.20L350.60-21.20L350.60-18Q351.76-19.64 353.74-20.52Q355.72-21.40 358.24-21.40L358.24-21.40Z M384.56 0.24Q381.40 0.24 378.88-1.16Q376.36-2.56 374.94-5.02Q373.52-7.48 373.52-10.60L373.52-10.60Q373.52-13.72 374.94-16.18Q376.36-18.64 378.88-20.02Q381.40-21.40 384.56-21.40L384.56-21.40Q387.72-21.40 390.22-20.02Q392.72-18.64 394.14-16.18Q395.56-13.72 395.56-10.60L395.56-10.60Q395.56-7.48 394.14-5.02Q392.72-2.56 390.22-1.16Q387.72 0.24 384.56 0.24L384.56 0.24ZM384.56-3.12Q386.60-3.12 388.22-4.06Q389.84-5 390.76-6.70Q391.68-8.40 391.68-10.60L391.68-10.60Q391.68-12.80 390.76-14.50Q389.84-16.20 388.22-17.12Q386.60-18.04 384.56-18.04L384.56-18.04Q382.52-18.04 380.90-17.12Q379.28-16.20 378.34-14.50Q377.40-12.80 377.40-10.60L377.40-10.60Q377.40-8.40 378.34-6.70Q379.28-5 380.90-4.06Q382.52-3.12 384.56-3.12L384.56-3.12Z M402.08 0L402.08-29.68L405.92-29.68L405.92 0L402.08 0Z M423.52 0.24Q420.36 0.24 417.84-1.16Q415.32-2.56 413.90-5.02Q412.48-7.48 412.48-10.60L412.48-10.60Q412.48-13.72 413.90-16.18Q415.32-18.64 417.84-20.02Q420.36-21.40 423.52-21.40L423.52-21.40Q426.68-21.40 429.18-20.02Q431.68-18.64 433.10-16.18Q434.52-13.72 434.52-10.60L434.52-10.60Q434.52-7.48 433.10-5.02Q431.68-2.56 429.18-1.16Q426.68 0.24 423.52 0.24L423.52 0.24ZM423.52-3.12Q425.56-3.12 427.18-4.06Q428.80-5 429.72-6.70Q430.64-8.40 430.64-10.60L430.64-10.60Q430.64-12.80 429.72-14.50Q428.80-16.20 427.18-17.12Q425.56-18.04 423.52-18.04L423.52-18.04Q421.48-18.04 419.86-17.12Q418.24-16.20 417.30-14.50Q416.36-12.80 416.36-10.60L416.36-10.60Q416.36-8.40 417.30-6.70Q418.24-5 419.86-4.06Q421.48-3.12 423.52-3.12L423.52-3.12Z M457.68-21.20L461.32-21.20L461.32-2.88Q461.32 2.68 458.56 5.34Q455.80 8 450.32 8L450.32 8Q447.32 8 444.60 7.18Q441.88 6.36 440.20 4.84L440.20 4.84L442.04 1.88Q443.52 3.16 445.70 3.90Q447.88 4.64 450.20 4.64L450.20 4.64Q453.92 4.64 455.70 2.88Q457.48 1.12 457.48-2.48L457.48-2.48L457.48-4.16Q456.12-2.52 454.14-1.70Q452.16-0.88 449.84-0.88L449.84-0.88Q446.80-0.88 444.34-2.18Q441.88-3.48 440.48-5.82Q439.08-8.16 439.08-11.16L439.08-11.16Q439.08-14.16 440.48-16.50Q441.88-18.84 444.34-20.12Q446.80-21.40 449.84-21.40L449.84-21.40Q452.24-21.40 454.30-20.52Q456.36-19.64 457.68-17.92L457.68-17.92L457.68-21.20ZM450.28-4.24Q452.36-4.24 454.02-5.12Q455.68-6 456.62-7.58Q457.56-9.16 457.56-11.16L457.56-11.16Q457.56-14.24 455.52-16.14Q453.48-18.04 450.28-18.04L450.28-18.04Q447.04-18.04 445.00-16.14Q442.96-14.24 442.96-11.16L442.96-11.16Q442.96-9.16 443.90-7.58Q444.84-6 446.50-5.12Q448.16-4.24 450.28-4.24L450.28-4.24Z M484.84-21.20L488.60-21.20L478.32 2.12Q476.96 5.36 475.14 6.68Q473.32 8 470.76 8L470.76 8Q469.20 8 467.74 7.50Q466.28 7 465.32 6.04L465.32 6.04L466.96 3.16Q468.60 4.72 470.76 4.72L470.76 4.72Q472.16 4.72 473.10 3.98Q474.04 3.24 474.80 1.44L474.80 1.44L475.48-0.04L466.12-21.20L470.12-21.20L477.52-4.24L484.84-21.20Z M509.04-17.64Q510.04-19.48 512.00-20.44Q513.96-21.40 516.76-21.40L516.76-21.40L516.76-17.68Q516.44-17.72 515.88-17.72L515.88-17.72Q512.76-17.72 510.98-15.86Q509.20-14 509.20-10.56L509.20-10.56L509.20 0L505.36 0L505.36-21.20L509.04-21.20L509.04-17.64Z M541.64-10.48Q541.64-10.04 541.56-9.32L541.56-9.32L524.36-9.32Q524.72-6.52 526.82-4.82Q528.92-3.12 532.04-3.12L532.04-3.12Q535.84-3.12 538.16-5.68L538.16-5.68L540.28-3.20Q538.84-1.52 536.70-0.64Q534.56 0.24 531.92 0.24L531.92 0.24Q528.56 0.24 525.96-1.14Q523.36-2.52 521.94-5Q520.52-7.48 520.52-10.60L520.52-10.60Q520.52-13.68 521.90-16.16Q523.28-18.64 525.70-20.02Q528.12-21.40 531.16-21.40L531.16-21.40Q534.20-21.40 536.58-20.02Q538.96-18.64 540.30-16.16Q541.64-13.68 541.64-10.48L541.64-10.48ZM531.16-18.16Q528.40-18.16 526.54-16.48Q524.68-14.80 524.36-12.08L524.36-12.08L537.96-12.08Q537.64-14.76 535.78-16.46Q533.92-18.16 531.16-18.16L531.16-18.16Z M555.28-21.40Q559.68-21.40 562.02-19.24Q564.36-17.08 564.36-12.80L564.36-12.80L564.36 0L560.72 0L560.72-2.80Q559.76-1.32 557.98-0.54Q556.20 0.24 553.76 0.24L553.76 0.24Q550.20 0.24 548.06-1.48Q545.92-3.20 545.92-6L545.92-6Q545.92-8.80 547.96-10.50Q550-12.20 554.44-12.20L554.44-12.20L560.52-12.20L560.52-12.96Q560.52-15.44 559.08-16.76Q557.64-18.08 554.84-18.08L554.84-18.08Q552.96-18.08 551.16-17.46Q549.36-16.84 548.12-15.80L548.12-15.80L546.52-18.68Q548.16-20 550.44-20.70Q552.72-21.40 555.28-21.40L555.28-21.40ZM554.40-2.72Q556.60-2.72 558.20-3.70Q559.80-4.68 560.52-6.48L560.52-6.48L560.52-9.44L554.60-9.44Q549.72-9.44 549.72-6.16L549.72-6.16Q549.72-4.56 550.96-3.64Q552.20-2.72 554.40-2.72L554.40-2.72Z M582.04 0.24Q578.80 0.24 576.26-1.16Q573.72-2.56 572.28-5.02Q570.84-7.48 570.84-10.60L570.84-10.60Q570.84-13.72 572.28-16.18Q573.72-18.64 576.26-20.02Q578.80-21.40 582.04-21.40L582.04-21.40Q584.92-21.40 587.18-20.24Q589.44-19.08 590.68-16.88L590.68-16.88L587.76-15Q586.76-16.52 585.28-17.28Q583.80-18.04 582-18.04L582-18.04Q579.92-18.04 578.26-17.12Q576.60-16.20 575.66-14.50Q574.72-12.80 574.72-10.60L574.72-10.60Q574.72-8.36 575.66-6.66Q576.60-4.96 578.26-4.04Q579.92-3.12 582-3.12L582-3.12Q583.80-3.12 585.28-3.88Q586.76-4.64 587.76-6.16L587.76-6.16L590.68-4.32Q589.44-2.12 587.18-0.94Q584.92 0.24 582.04 0.24L582.04 0.24Z M607.88-21.40Q611.92-21.40 614.30-19.06Q616.68-16.72 616.68-12.20L616.68-12.20L616.68 0L612.84 0L612.84-11.76Q612.84-14.84 611.36-16.40Q609.88-17.96 607.12-17.96L607.12-17.96Q604.00-17.96 602.20-16.14Q600.40-14.32 600.40-10.92L600.40-10.92L600.40 0L596.56 0L596.56-29.68L600.40-29.68L600.40-18.20Q601.60-19.72 603.54-20.56Q605.48-21.40 607.88-21.40L607.88-21.40Z"/></g>
</svg>
</g></svg></svg>