<svg version="1.1" preserveAspectRatio="none" xmlns="http://www.w3.org/2000/svg" width="500" height="500" viewBox="0 0 500 500"><rect width="100%" height="100%" fill="#FFFFFF" fill-opacity="1"/><svg viewBox="11.5539 113.3335 521.8185 120" width="333" height="76.57835051842738" x="83.5px" y="211.7108px" xmlns="http://www.w3.org/2000/svg" xmlns:xlink="http://www.w3.org/1999/xlink" preserveAspectRatio="none"><defs></defs><style>.companyName {fill:#182145;fill-opacity:1;}.icon1 {fill:#182145;fill-opacity:1;}.icon2 {fill:#E35B34;fill-opacity:1;}.icon3 {fill:#E3D454;fill-opacity:1;}.icon3-str {stroke:#E3D454;stroke-opacity:1;}.text {fill:#182145;fill-opacity:1;}</style><g opacity="1" transform="rotate(0 11.5539 113.3335)">
<svg width="104.3048" height="120" x="11.5539" y="113.3335" version="1.1" preserveAspectRatio="none" viewBox="26.493999481201172 15.76099967956543 147.28799438476562 169.4510040283203">
  <g transform="matrix(1 0 0 1 0 0)" class="icon1"><g><polygon points="109.434,21.799 99.229,15.761 26.494,58.054 36.587,63.781  "></polygon><polygon points="113.824,24.394 41.089,66.687 51.183,72.415 124.028,30.432  "></polygon><polygon points="139.084,39.097 128.88,33.059 56.145,75.352 66.207,81.062 66.398,164.886 71.135,167.472    71.135,84.026 66.249,81.073  "></polygon><polygon points="168.973,56.41 158.769,50.372 86.055,92.654 81.321,89.736 154.125,47.778 143.921,41.74    71.185,84.034 81.23,89.734 81.418,173.519 86.063,176.105 86.063,92.682 96.128,98.393  "></polygon><polygon points="36.577,147.524 41.039,150.11 41.039,66.665 36.396,63.686  "></polygon><polygon points="51.421,156.253 56.158,158.839 56.158,75.393 51.23,72.415  "></polygon><polygon points="100.979,101.269 100.979,185.212 173.682,143.211 173.782,59.367  "></polygon></g></g>
</svg>
</g><g opacity="1" transform="rotate(0 145.8587 113.3335)">
<svg width="387.5137" height="80" x="145.8587" y="113.3335" version="1.1" preserveAspectRatio="none" viewBox="0.16 -28 331.68 68.48">
  <g transform="matrix(1 0 0 1 0 0)" class="companyName"><path id="id-D6z1nYkh18" d="M9.28 0.48Q6.44 0.48 4.06-0.58Q1.68-1.64 0.16-3.60L0.16-3.60L3.76-7.92Q6.04-4.84 8.96-4.84L8.96-4.84Q12.92-4.84 12.92-9.48L12.92-9.48L12.92-22.80L3.08-22.80L3.08-28L19.36-28L19.36-9.84Q19.36-4.68 16.80-2.10Q14.24 0.48 9.28 0.48L9.28 0.48Z M32.20-5.20L47.44-5.20L47.44 0L25.76 0L25.76-28L46.92-28L46.92-22.80L32.20-22.80L32.20-16.72L45.20-16.72L45.20-11.68L32.20-11.68L32.20-5.20Z M76.64-28L65.76-9.92L65.76 0L59.28 0L59.28-10L48.44-28L55.32-28L62.80-15.56L70.28-28L76.64-28Z M103.44-28L92.56-9.92L92.56 0L86.08 0L86.08-10L75.24-28L82.12-28L89.60-15.56L97.08-28L103.44-28Z M125.36 0L122.88-6L109.88-6L107.40 0L100.76 0L113.24-28L119.64-28L132.16 0L125.36 0ZM111.96-10.92L120.84-10.92L116.40-21.64L111.96-10.92Z M159.88 0L152.92 0L147.52-7.80L147.20-7.80L141.56-7.80L141.56 0L135.08 0L135.08-28L147.20-28Q150.92-28 153.66-26.76Q156.40-25.52 157.88-23.24Q159.36-20.96 159.36-17.84L159.36-17.84Q159.36-14.72 157.86-12.46Q156.36-10.20 153.60-9L153.60-9L159.88 0ZM152.80-17.84Q152.80-20.20 151.28-21.46Q149.76-22.72 146.84-22.72L146.84-22.72L141.56-22.72L141.56-12.96L146.84-12.96Q149.76-12.96 151.28-14.24Q152.80-15.52 152.80-17.84L152.80-17.84Z M9.12 40L9.12 17.28L0.16 17.28L0.16 12L24.56 12L24.56 17.28L15.60 17.28L15.60 40L9.12 40Z M34.48 34.80L49.72 34.80L49.72 40L28.04 40L28.04 12L49.20 12L49.20 17.20L34.48 17.20L34.48 23.28L47.48 23.28L47.48 28.32L34.48 28.32L34.48 34.80Z M68.20 40.48Q63.92 40.48 60.46 38.62Q57.00 36.76 55.02 33.46Q53.04 30.16 53.04 26L53.04 26Q53.04 21.84 55.02 18.54Q57.00 15.24 60.46 13.38Q63.92 11.52 68.24 11.52L68.24 11.52Q71.88 11.52 74.82 12.80Q77.76 14.08 79.76 16.48L79.76 16.48L75.60 20.32Q72.76 17.04 68.56 17.04L68.56 17.04Q65.96 17.04 63.92 18.18Q61.88 19.32 60.74 21.36Q59.60 23.40 59.60 26L59.60 26Q59.60 28.60 60.74 30.64Q61.88 32.68 63.92 33.82Q65.96 34.96 68.56 34.96L68.56 34.96Q72.76 34.96 75.60 31.64L75.60 31.64L79.76 35.48Q77.76 37.92 74.80 39.20Q71.84 40.48 68.20 40.48L68.20 40.48Z M103.32 12L109.80 12L109.80 40L103.32 40L103.32 28.52L90.60 28.52L90.60 40L84.12 40L84.12 12L90.60 12L90.60 23.04L103.32 23.04L103.32 12Z M135.72 12L142.12 12L142.12 40L136.80 40L122.84 23L122.84 40L116.44 40L116.44 12L121.80 12L135.72 29L135.72 12Z M162.32 40.48Q157.96 40.48 154.46 38.60Q150.96 36.72 148.98 33.42Q147 30.12 147 26L147 26Q147 21.88 148.98 18.58Q150.96 15.28 154.46 13.40Q157.96 11.52 162.32 11.52L162.32 11.52Q166.68 11.52 170.16 13.40Q173.64 15.28 175.64 18.58Q177.64 21.88 177.64 26L177.64 26Q177.64 30.12 175.64 33.42Q173.64 36.72 170.16 38.60Q166.68 40.48 162.32 40.48L162.32 40.48ZM162.32 34.96Q164.80 34.96 166.80 33.82Q168.80 32.68 169.94 30.64Q171.08 28.60 171.08 26L171.08 26Q171.08 23.40 169.94 21.36Q168.80 19.32 166.80 18.18Q164.80 17.04 162.32 17.04L162.32 17.04Q159.84 17.04 157.84 18.18Q155.84 19.32 154.70 21.36Q153.56 23.40 153.56 26L153.56 26Q153.56 28.60 154.70 30.64Q155.84 32.68 157.84 33.82Q159.84 34.96 162.32 34.96L162.32 34.96Z M182.52 40L182.52 12L189 12L189 34.72L203.04 34.72L203.04 40L182.52 40Z M219.76 40.48Q215.40 40.48 211.90 38.60Q208.40 36.72 206.42 33.42Q204.44 30.12 204.44 26L204.44 26Q204.44 21.88 206.42 18.58Q208.40 15.28 211.90 13.40Q215.40 11.52 219.76 11.52L219.76 11.52Q224.12 11.52 227.60 13.40Q231.08 15.28 233.08 18.58Q235.08 21.88 235.08 26L235.08 26Q235.08 30.12 233.08 33.42Q231.08 36.72 227.60 38.60Q224.12 40.48 219.76 40.48L219.76 40.48ZM219.76 34.96Q222.24 34.96 224.24 33.82Q226.24 32.68 227.38 30.64Q228.52 28.60 228.52 26L228.52 26Q228.52 23.40 227.38 21.36Q226.24 19.32 224.24 18.18Q222.24 17.04 219.76 17.04L219.76 17.04Q217.28 17.04 215.28 18.18Q213.28 19.32 212.14 21.36Q211 23.40 211 26L211 26Q211 28.60 212.14 30.64Q213.28 32.68 215.28 33.82Q217.28 34.96 219.76 34.96L219.76 34.96Z M258.88 33.76L258.88 25.56L264.80 25.56L264.80 36.92Q262.52 38.64 259.52 39.56Q256.52 40.48 253.48 40.48L253.48 40.48Q249.12 40.48 245.64 38.62Q242.16 36.76 240.18 33.46Q238.20 30.16 238.20 26L238.20 26Q238.20 21.84 240.18 18.54Q242.16 15.24 245.68 13.38Q249.20 11.52 253.60 11.52L253.60 11.52Q257.28 11.52 260.28 12.76Q263.28 14 265.32 16.36L265.32 16.36L261.16 20.20Q258.16 17.04 253.92 17.04L253.92 17.04Q251.24 17.04 249.16 18.16Q247.08 19.28 245.92 21.32Q244.76 23.36 244.76 26L244.76 26Q244.76 28.60 245.92 30.64Q247.08 32.68 249.14 33.82Q251.20 34.96 253.84 34.96L253.84 34.96Q256.64 34.96 258.88 33.76L258.88 33.76Z M270.80 40L270.80 12L277.28 12L277.28 40L270.80 40Z M290.36 34.80L305.60 34.80L305.60 40L283.92 40L283.92 12L305.08 12L305.08 17.20L290.36 17.20L290.36 23.28L303.36 23.28L303.36 28.32L290.36 28.32L290.36 34.80Z M319.96 40.48Q316.64 40.48 313.54 39.58Q310.44 38.68 308.56 37.24L308.56 37.24L310.76 32.36Q312.56 33.68 315.04 34.48Q317.52 35.28 320.00 35.28L320.00 35.28Q322.76 35.28 324.08 34.46Q325.40 33.64 325.40 32.28L325.40 32.28Q325.40 31.28 324.62 30.62Q323.84 29.96 322.62 29.56Q321.40 29.16 319.32 28.68L319.32 28.68Q316.12 27.92 314.08 27.16Q312.04 26.40 310.58 24.72Q309.12 23.04 309.12 20.24L309.12 20.24Q309.12 17.80 310.44 15.82Q311.76 13.84 314.42 12.68Q317.08 11.52 320.92 11.52L320.92 11.52Q323.60 11.52 326.16 12.16Q328.72 12.80 330.64 14L330.64 14L328.64 18.92Q324.76 16.72 320.88 16.72L320.88 16.72Q318.16 16.72 316.86 17.60Q315.56 18.48 315.56 19.92L315.56 19.92Q315.56 21.36 317.06 22.06Q318.56 22.76 321.64 23.44L321.64 23.44Q324.84 24.20 326.88 24.96Q328.92 25.72 330.38 27.36Q331.84 29 331.84 31.80L331.84 31.80Q331.84 34.20 330.50 36.18Q329.16 38.16 326.48 39.32Q323.80 40.48 319.96 40.48L319.96 40.48Z"/></g>
</svg>
</g><g opacity="1" transform="rotate(0 145.8587 213.3335)">
<svg width="184.6939" height="20" x="145.8587" y="213.3335" version="1.1" preserveAspectRatio="none" viewBox="4.2 -29.92 348.04 37.68000000000001">
  <g transform="matrix(1 0 0 1 0 0)" class="text"><path id="id-D-YM9nyY416" d="M27.28 0L22.92 0L16.88-8.60Q15.76-8.52 15.12-8.52L15.12-8.52L8.20-8.52L8.20 0L4.20 0L4.20-28L15.12-28Q20.56-28 23.68-25.40Q26.80-22.80 26.80-18.24L26.80-18.24Q26.80-15 25.20-12.72Q23.60-10.44 20.64-9.40L20.64-9.40L27.28 0ZM15-11.92Q18.80-11.92 20.80-13.56Q22.80-15.20 22.80-18.24L22.80-18.24Q22.80-21.28 20.80-22.90Q18.80-24.52 15-24.52L15-24.52L8.20-24.52L8.20-11.92L15-11.92Z M53.08-10.48Q53.08-10.04 53-9.32L53-9.32L35.80-9.32Q36.16-6.52 38.26-4.82Q40.36-3.12 43.48-3.12L43.48-3.12Q47.28-3.12 49.60-5.68L49.60-5.68L51.72-3.20Q50.28-1.52 48.14-0.64Q46 0.24 43.36 0.24L43.36 0.24Q40 0.24 37.40-1.14Q34.80-2.52 33.38-5Q31.96-7.48 31.96-10.60L31.96-10.60Q31.96-13.68 33.34-16.16Q34.72-18.64 37.14-20.02Q39.56-21.40 42.60-21.40L42.60-21.40Q45.64-21.40 48.02-20.02Q50.40-18.64 51.74-16.16Q53.08-13.68 53.08-10.48L53.08-10.48ZM42.60-18.16Q39.84-18.16 37.98-16.48Q36.12-14.80 35.80-12.08L35.80-12.08L49.40-12.08Q49.08-14.76 47.22-16.46Q45.36-18.16 42.60-18.16L42.60-18.16Z M65.68 0.24Q63.08 0.24 60.68-0.46Q58.28-1.16 56.92-2.24L56.92-2.24L58.52-5.28Q59.92-4.28 61.92-3.68Q63.92-3.08 65.96-3.08L65.96-3.08Q71.00-3.08 71.00-5.96L71.00-5.96Q71.00-6.92 70.32-7.48Q69.64-8.04 68.62-8.30Q67.60-8.56 65.72-8.88L65.72-8.88Q63.16-9.28 61.54-9.80Q59.92-10.32 58.76-11.56Q57.60-12.80 57.60-15.04L57.60-15.04Q57.60-17.92 60.00-19.66Q62.40-21.40 66.44-21.40L66.44-21.40Q68.56-21.40 70.68-20.88Q72.80-20.36 74.16-19.48L74.16-19.48L72.52-16.44Q69.92-18.12 66.40-18.12L66.40-18.12Q63.96-18.12 62.68-17.32Q61.40-16.52 61.40-15.20L61.40-15.20Q61.40-14.16 62.12-13.56Q62.84-12.96 63.90-12.68Q64.96-12.40 66.88-12.04L66.88-12.04Q69.44-11.60 71.02-11.10Q72.60-10.60 73.72-9.40Q74.84-8.20 74.84-6.04L74.84-6.04Q74.84-3.16 72.38-1.46Q69.92 0.24 65.68 0.24L65.68 0.24Z M92.08-21.40Q95.16-21.40 97.60-20.04Q100.04-18.68 101.42-16.24Q102.80-13.80 102.80-10.60L102.80-10.60Q102.80-7.40 101.42-4.94Q100.04-2.48 97.60-1.12Q95.16 0.24 92.08 0.24L92.08 0.24Q89.80 0.24 87.90-0.64Q86-1.52 84.68-3.20L84.68-3.20L84.68 7.76L80.84 7.76L80.84-21.20L84.52-21.20L84.52-17.84Q85.80-19.60 87.76-20.50Q89.72-21.40 92.08-21.40L92.08-21.40ZM91.76-3.12Q93.80-3.12 95.42-4.06Q97.04-5 97.98-6.70Q98.92-8.40 98.92-10.60L98.92-10.60Q98.92-12.80 97.98-14.50Q97.04-16.20 95.42-17.12Q93.80-18.04 91.76-18.04L91.76-18.04Q89.76-18.04 88.14-17.10Q86.52-16.16 85.58-14.48Q84.64-12.80 84.64-10.60L84.64-10.60Q84.64-8.40 85.56-6.70Q86.48-5 88.12-4.06Q89.76-3.12 91.76-3.12L91.76-3.12Z M128.48-10.48Q128.48-10.04 128.40-9.32L128.40-9.32L111.20-9.32Q111.56-6.52 113.66-4.82Q115.76-3.12 118.88-3.12L118.88-3.12Q122.68-3.12 125-5.68L125-5.68L127.12-3.20Q125.68-1.52 123.54-0.64Q121.40 0.24 118.76 0.24L118.76 0.24Q115.40 0.24 112.80-1.14Q110.20-2.52 108.78-5Q107.36-7.48 107.36-10.60L107.36-10.60Q107.36-13.68 108.74-16.16Q110.12-18.64 112.54-20.02Q114.96-21.40 118-21.40L118-21.40Q121.04-21.40 123.42-20.02Q125.80-18.64 127.14-16.16Q128.48-13.68 128.48-10.48L128.48-10.48ZM118-18.16Q115.24-18.16 113.38-16.48Q111.52-14.80 111.20-12.08L111.20-12.08L124.80-12.08Q124.48-14.76 122.62-16.46Q120.76-18.16 118-18.16L118-18.16Z M144.24 0.24Q141 0.24 138.46-1.16Q135.92-2.56 134.48-5.02Q133.04-7.48 133.04-10.60L133.04-10.60Q133.04-13.72 134.48-16.18Q135.92-18.64 138.46-20.02Q141-21.40 144.24-21.40L144.24-21.40Q147.12-21.40 149.38-20.24Q151.64-19.08 152.88-16.88L152.88-16.88L149.96-15Q148.96-16.52 147.48-17.28Q146-18.04 144.20-18.04L144.20-18.04Q142.12-18.04 140.46-17.12Q138.80-16.20 137.86-14.50Q136.92-12.80 136.92-10.60L136.92-10.60Q136.92-8.36 137.86-6.66Q138.80-4.96 140.46-4.04Q142.12-3.12 144.20-3.12L144.20-3.12Q146-3.12 147.48-3.88Q148.96-4.64 149.96-6.16L149.96-6.16L152.88-4.32Q151.64-2.12 149.38-0.94Q147.12 0.24 144.24 0.24L144.24 0.24Z M170.04-4L171.24-1.24Q170.40-0.52 169.16-0.14Q167.92 0.24 166.60 0.24L166.60 0.24Q163.40 0.24 161.64-1.48Q159.88-3.20 159.88-6.40L159.88-6.40L159.88-18.04L156.28-18.04L156.28-21.20L159.88-21.20L159.88-25.84L163.72-25.84L163.72-21.20L169.80-21.20L169.80-18.04L163.72-18.04L163.72-6.56Q163.72-4.84 164.58-3.92Q165.44-3 167.04-3L167.04-3Q168.80-3 170.04-4L170.04-4Z M196.80-26.76Q193.36-26.76 193.36-23.04L193.36-23.04L193.36-21.20L199.52-21.20L199.52-18.04L193.44-18.04L193.44 0L189.60 0L189.60-18.04L186.00-18.04L186.00-21.20L189.60-21.20L189.60-23.08Q189.60-26.24 191.44-28.08Q193.28-29.92 196.60-29.92L196.60-29.92Q197.88-29.92 199.00-29.60Q200.12-29.28 200.92-28.68L200.92-28.68L199.76-25.76Q198.44-26.76 196.80-26.76L196.80-26.76Z M213.12 0.24Q209.96 0.24 207.44-1.16Q204.92-2.56 203.50-5.02Q202.08-7.48 202.08-10.60L202.08-10.60Q202.08-13.72 203.50-16.18Q204.92-18.64 207.44-20.02Q209.96-21.40 213.12-21.40L213.12-21.40Q216.28-21.40 218.78-20.02Q221.28-18.64 222.70-16.18Q224.12-13.72 224.12-10.60L224.12-10.60Q224.12-7.48 222.70-5.02Q221.28-2.56 218.78-1.16Q216.28 0.24 213.12 0.24L213.12 0.24ZM213.12-3.12Q215.16-3.12 216.78-4.06Q218.40-5 219.32-6.70Q220.24-8.40 220.24-10.60L220.24-10.60Q220.24-12.80 219.32-14.50Q218.40-16.20 216.78-17.12Q215.16-18.04 213.12-18.04L213.12-18.04Q211.08-18.04 209.46-17.12Q207.84-16.20 206.90-14.50Q205.96-12.80 205.96-10.60L205.96-10.60Q205.96-8.40 206.90-6.70Q207.84-5 209.46-4.06Q211.08-3.12 213.12-3.12L213.12-3.12Z M234.32-17.64Q235.32-19.48 237.28-20.44Q239.24-21.40 242.04-21.40L242.04-21.40L242.04-17.68Q241.72-17.72 241.16-17.72L241.16-17.72Q238.04-17.72 236.26-15.86Q234.48-14 234.48-10.56L234.48-10.56L234.48 0L230.64 0L230.64-21.20L234.32-21.20L234.32-17.64Z M266.32 0L266.32-24.52L256.72-24.52L256.72-28L279.88-28L279.88-24.52L270.28-24.52L270.28 0L266.32 0Z M301.84-10.48Q301.84-10.04 301.76-9.32L301.76-9.32L284.56-9.32Q284.92-6.52 287.02-4.82Q289.12-3.12 292.24-3.12L292.24-3.12Q296.04-3.12 298.36-5.68L298.36-5.68L300.48-3.20Q299.04-1.52 296.90-0.64Q294.76 0.24 292.12 0.24L292.12 0.24Q288.76 0.24 286.16-1.14Q283.56-2.52 282.14-5Q280.72-7.48 280.72-10.60L280.72-10.60Q280.72-13.68 282.10-16.16Q283.48-18.64 285.90-20.02Q288.32-21.40 291.36-21.40L291.36-21.40Q294.40-21.40 296.78-20.02Q299.16-18.64 300.50-16.16Q301.84-13.68 301.84-10.48L301.84-10.48ZM291.36-18.16Q288.60-18.16 286.74-16.48Q284.88-14.80 284.56-12.08L284.56-12.08L298.16-12.08Q297.84-14.76 295.98-16.46Q294.12-18.16 291.36-18.16L291.36-18.16Z M317.60 0.24Q314.36 0.24 311.82-1.16Q309.28-2.56 307.84-5.02Q306.40-7.48 306.40-10.60L306.40-10.60Q306.40-13.72 307.84-16.18Q309.28-18.64 311.82-20.02Q314.36-21.40 317.60-21.40L317.60-21.40Q320.48-21.40 322.74-20.24Q325-19.08 326.24-16.88L326.24-16.88L323.32-15Q322.32-16.52 320.84-17.28Q319.36-18.04 317.56-18.04L317.56-18.04Q315.48-18.04 313.82-17.12Q312.16-16.20 311.22-14.50Q310.28-12.80 310.28-10.60L310.28-10.60Q310.28-8.36 311.22-6.66Q312.16-4.96 313.82-4.04Q315.48-3.12 317.56-3.12L317.56-3.12Q319.36-3.12 320.84-3.88Q322.32-4.64 323.32-6.16L323.32-6.16L326.24-4.32Q325-2.12 322.74-0.94Q320.48 0.24 317.60 0.24L317.60 0.24Z M343.44-21.40Q347.48-21.40 349.86-19.06Q352.24-16.72 352.24-12.20L352.24-12.20L352.24 0L348.40 0L348.40-11.76Q348.40-14.84 346.92-16.40Q345.44-17.96 342.68-17.96L342.68-17.96Q339.56-17.96 337.76-16.14Q335.96-14.32 335.96-10.92L335.96-10.92L335.96 0L332.12 0L332.12-29.68L335.96-29.68L335.96-18.20Q337.16-19.72 339.10-20.56Q341.04-21.40 343.44-21.40L343.44-21.40Z"/></g>
</svg>
</g></svg></svg>