<svg version="1.1" preserveAspectRatio="none" xmlns="http://www.w3.org/2000/svg" width="500" height="500" viewBox="0 0 500 500"><rect width="100%" height="100%" fill="#F5F5F5" fill-opacity="1"/><svg viewBox="-4.4013 138.5277 613.591 184" width="333" height="99.8580487653828" x="83.5px" y="200.071px" xmlns="http://www.w3.org/2000/svg" xmlns:xlink="http://www.w3.org/1999/xlink" preserveAspectRatio="none"><defs></defs><style>.companyName {fill:#08376B;fill-opacity:1;}.icon1 {fill:#35C0ED;fill-opacity:1;}.icon2 {fill:#9AEBA6;fill-opacity:1;}.icon3 {fill:#2F90B0;fill-opacity:1;}.icon3-str {stroke:#2F90B0;stroke-opacity:1;}.shapeStroke-str {stroke:#08376B;stroke-opacity:1;}.text {fill:#08376B;fill-opacity:1;}</style><g opacity="1" transform="rotate(0 -4.4013 153.5277)">
<svg width="178.9268" height="154" x="-4.4013" y="153.5277" version="1.1" preserveAspectRatio="none" viewBox="19.999998092651367 31.14590072631836 159.99899291992188 137.7091064453125">
  <g transform="matrix(1 0 0 1 0 0)" ><g><path d="M157.593 73.145v73.813h-118.1V73.145h118.1z" data-color="1" class="icon1"></path><path d="M157.593 151.096h-118.1a4.137 4.137 0 01-4.137-4.137V73.145a4.137 4.137 0 014.137-4.137h118.1a4.137 4.137 0 014.137 4.137v73.813a4.138 4.138 0 01-4.137 4.138zM43.63 142.821h109.826V77.283H43.63v65.538z" data-color="2" class="icon2"></path><path d="M164 164.717H35c-2.372 0-10.863-9.345-10.863-11.717v-6.053h151.726V154c0 2.372-9.491 10.717-11.863 10.717z" data-color="1" class="icon1"></path><path d="M158.094 168.855H41.906c-12.079 0-21.906-9.827-21.906-21.907a4.137 4.137 0 014.137-4.137h151.725a4.137 4.137 0 014.137 4.137c.001 12.079-9.826 21.907-21.905 21.907zm-129.178-17.77c1.757 5.5 6.915 9.495 12.99 9.495h116.187c6.075 0 11.233-3.995 12.99-9.495H28.916z" data-color="2" class="icon2"></path><path d="M139.705 91.589v36.925H57.38V91.589h82.325z" data-color="1" class="icon1"></path><path d="M139.706 132.651H57.38a4.137 4.137 0 01-4.137-4.137V91.589a4.137 4.137 0 014.137-4.137h82.325a4.137 4.137 0 014.137 4.137v36.925a4.136 4.136 0 01-4.136 4.137zm-78.188-8.275h74.05v-28.65h-74.05v28.65z" data-color="2" class="icon2"></path><path d="M98.555 41.837l-.002-.002c-8.752-8.752-22.942-8.752-31.694 0s-8.752 22.942 0 31.694l-.02.02 31.694 31.694 31.694-31.694c8.752-8.752 8.752-22.942 0-31.694-8.746-8.745-22.919-8.749-31.672-.018z" data-color="3" class="icon3"></path><path d="M98.532 109.381a4.135 4.135 0 01-2.925-1.212L63.914 76.475a4.388 4.388 0 01-.352-.399c-4.779-4.969-7.405-11.479-7.405-18.393 0-7.092 2.762-13.759 7.777-18.773 9.425-9.427 24.236-10.27 34.625-2.526 10.387-7.716 25.182-6.865 34.593 2.546 10.351 10.352 10.351 27.194 0 37.545l-31.694 31.694a4.139 4.139 0 01-2.926 1.212zM70.108 70.968l28.425 28.425 28.769-28.768c7.124-7.125 7.124-18.718 0-25.844-7.114-7.113-18.699-7.121-25.826-.014a4.137 4.137 0 01-5.847-.004c-7.127-7.125-18.719-7.125-25.845-.002-3.452 3.452-5.353 8.042-5.353 12.922s1.901 9.47 5.353 12.921c.116.115.224.236.324.364z" data-color="2" class="icon2"></path></g></g>
</svg>
</g><g opacity="1" transform="rotate(0 238.5255 153.5277)">
<svg width="370.6642" height="120" x="238.5255" y="153.5277" version="1.1" preserveAspectRatio="none" viewBox="0.8 -28 247 79.96">
  <g transform="matrix(1 0 0 1 0 0)" class="companyName"><path id="id-D6z1nYkh18" d="M16.48-28L12.84-28L12.84-7.80Q12.84-6.84 12.78-5.70Q12.72-4.56 12.32-3.58Q11.92-2.60 11.10-1.94Q10.28-1.28 8.76-1.28L8.76-1.28Q7.44-1.28 6.58-1.76Q5.72-2.24 5.22-2.96Q4.72-3.68 4.50-4.50Q4.28-5.32 4.28-5.96L4.28-5.96L0.80-5.96Q0.88-2.88 2.80-1.20Q4.72 0.48 8.56 0.48L8.56 0.48Q11.32 0.48 12.92-0.34Q14.52-1.16 15.30-2.42Q16.08-3.68 16.28-5.16Q16.48-6.64 16.48-7.92L16.48-7.92L16.48-28Z M27.04-9.12L42.24-9.12L42.24-9.96Q42.24-12.64 41.48-14.60Q40.72-16.56 39.42-17.84Q38.12-19.12 36.40-19.76Q34.68-20.40 32.76-20.40L32.76-20.40Q30.72-20.40 29.00-19.70Q27.28-19 26.00-17.66Q24.72-16.32 24.00-14.42Q23.28-12.52 23.28-10.12L23.28-10.12Q23.28-8.12 23.90-6.22Q24.52-4.32 25.78-2.82Q27.04-1.32 28.98-0.42Q30.92 0.48 33.56 0.48L33.56 0.48Q36.12 0.48 38.28-0.42Q40.44-1.32 42.04-3L42.04-3L40.76-4.28Q39.92-3.56 39.18-2.96Q38.44-2.36 37.68-1.96Q36.92-1.56 36.10-1.34Q35.28-1.12 34.28-1.12L34.28-1.12Q33.16-1.12 31.90-1.46Q30.64-1.80 29.56-2.68Q28.48-3.56 27.76-5.12Q27.04-6.68 27.04-9.12L27.04-9.12ZM38.76-10.72L27.04-10.72Q27.04-12.32 27.38-13.82Q27.72-15.32 28.42-16.48Q29.12-17.64 30.20-18.34Q31.28-19.04 32.76-19.04L32.76-19.04Q35.60-19.04 37.18-16.82Q38.76-14.60 38.76-10.72L38.76-10.72Z M50-9.12L65.20-9.12L65.20-9.96Q65.20-12.64 64.44-14.60Q63.68-16.56 62.38-17.84Q61.08-19.12 59.36-19.76Q57.64-20.40 55.72-20.40L55.72-20.40Q53.68-20.40 51.96-19.70Q50.24-19 48.96-17.66Q47.68-16.32 46.96-14.42Q46.24-12.52 46.24-10.12L46.24-10.12Q46.24-8.12 46.86-6.22Q47.48-4.32 48.74-2.82Q50-1.32 51.94-0.42Q53.88 0.48 56.52 0.48L56.52 0.48Q59.08 0.48 61.24-0.42Q63.40-1.32 65-3L65-3L63.72-4.28Q62.88-3.56 62.14-2.96Q61.40-2.36 60.64-1.96Q59.88-1.56 59.06-1.34Q58.24-1.12 57.24-1.12L57.24-1.12Q56.12-1.12 54.86-1.46Q53.60-1.80 52.52-2.68Q51.44-3.56 50.72-5.12Q50-6.68 50-9.12L50-9.12ZM61.72-10.72L50-10.72Q50-12.32 50.34-13.82Q50.68-15.32 51.38-16.48Q52.08-17.64 53.16-18.34Q54.24-19.04 55.72-19.04L55.72-19.04Q58.56-19.04 60.14-16.82Q61.72-14.60 61.72-10.72L61.72-10.72Z M78.32-4.68L78.16-4.68L71.24-20L67.60-20L76.56-0.24L74.44 4.96Q74.08 5.88 73.50 6.44Q72.92 7 72.16 7L72.16 7Q71.44 7 70.78 6.58Q70.12 6.16 69.76 5.36L69.76 5.36L68.00 8.68Q68.76 9.36 69.68 9.68Q70.60 10 71.40 10L71.40 10Q72.52 10 73.36 9.44Q74.20 8.88 74.84 7.98Q75.48 7.08 75.96 5.98Q76.44 4.88 76.88 3.80L76.88 3.80L86.56-20L84.60-20L78.32-4.68Z M97.92-20.44L97.92-20.44Q100.84-20.44 102.44-19.62Q104.04-18.80 104.78-17.48Q105.52-16.16 105.64-14.44Q105.76-12.72 105.76-10.92L105.76-10.92L105.76 0L102.52 0L102.52-1.96Q101.36-0.84 99.56-0.18Q97.76 0.48 95.96 0.48L95.96 0.48Q94.24 0.48 92.92-0.12Q91.60-0.72 90.72-1.68Q89.84-2.64 89.40-3.84Q88.96-5.04 88.96-6.28L88.96-6.28Q88.96-7.56 89.44-8.84Q89.92-10.12 90.88-11.14Q91.84-12.16 93.24-12.80Q94.64-13.44 96.44-13.44L96.44-13.44Q98.24-13.44 99.86-12.74Q101.48-12.04 102.52-10.76L102.52-10.76L102.52-12.48Q102.52-15.76 101.54-17.36Q100.56-18.96 97.96-18.96L97.96-18.96Q96.84-18.96 96.00-18.68Q95.16-18.40 94.50-17.90Q93.84-17.40 93.28-16.66Q92.72-15.92 92.16-15L92.16-15L90.08-17.08Q90.64-17.68 91.26-18.28Q91.88-18.88 92.78-19.36Q93.68-19.84 94.92-20.14Q96.16-20.44 97.92-20.44ZM102.52-4.84L102.52-7.92Q102.32-8.40 101.94-9.04Q101.56-9.68 100.96-10.28Q100.36-10.88 99.52-11.30Q98.68-11.72 97.52-11.72L97.52-11.72Q96.36-11.72 95.40-11.26Q94.44-10.80 93.78-10.06Q93.12-9.32 92.76-8.32Q92.40-7.32 92.40-6.24L92.40-6.24Q92.40-4.96 92.86-4.02Q93.32-3.08 94.04-2.42Q94.76-1.76 95.64-1.44Q96.52-1.12 97.32-1.12L97.32-1.12Q98.08-1.12 98.86-1.40Q99.64-1.68 100.34-2.18Q101.04-2.68 101.60-3.36Q102.16-4.04 102.52-4.84L102.52-4.84Z M115.56-20L112.16-20L112.16 0L115.56 0L115.56-12.08Q115.56-13.72 115.94-14.86Q116.32-16 116.92-16.72Q117.52-17.44 118.24-17.76Q118.96-18.08 119.64-18.08L119.64-18.08Q120.56-18.08 121.34-17.48Q122.12-16.88 122.48-16.36L122.48-16.36L123.84-18.84Q123.48-19.32 122.98-19.64Q122.48-19.96 121.98-20.14Q121.48-20.32 121.06-20.38Q120.64-20.44 120.44-20.44L120.44-20.44Q118.76-20.44 117.64-19.52Q116.52-18.60 115.80-16.80L115.80-16.80L115.56-16.80L115.56-20Z M11.52 42L15.16 42L15.16 16.20L25.88 16.20L25.88 14L0.80 14L0.80 16.20L11.52 16.20L11.52 42Z M25.64 32.88L40.84 32.88L40.84 32.04Q40.84 29.36 40.08 27.40Q39.32 25.44 38.02 24.16Q36.72 22.88 35 22.24Q33.28 21.60 31.36 21.60L31.36 21.60Q29.32 21.60 27.60 22.30Q25.88 23 24.60 24.34Q23.32 25.68 22.60 27.58Q21.88 29.48 21.88 31.88L21.88 31.88Q21.88 33.88 22.50 35.78Q23.12 37.68 24.38 39.18Q25.64 40.68 27.58 41.58Q29.52 42.48 32.16 42.48L32.16 42.48Q34.72 42.48 36.88 41.58Q39.04 40.68 40.64 39L40.64 39L39.36 37.72Q38.52 38.44 37.78 39.04Q37.04 39.64 36.28 40.04Q35.52 40.44 34.70 40.66Q33.88 40.88 32.88 40.88L32.88 40.88Q31.76 40.88 30.50 40.54Q29.24 40.20 28.16 39.32Q27.08 38.44 26.36 36.88Q25.64 35.32 25.64 32.88L25.64 32.88ZM37.36 31.28L25.64 31.28Q25.64 29.68 25.98 28.18Q26.32 26.68 27.02 25.52Q27.72 24.36 28.80 23.66Q29.88 22.96 31.36 22.96L31.36 22.96Q34.20 22.96 35.78 25.18Q37.36 27.40 37.36 31.28L37.36 31.28Z M56.08 40.40L56.08 40.40Q54.64 40.40 53.30 39.96Q51.96 39.52 50.92 38.54Q49.88 37.56 49.26 35.94Q48.64 34.32 48.64 31.96L48.64 31.96Q48.64 29.52 49.32 27.82Q50 26.12 51.02 25.10Q52.04 24.08 53.28 23.62Q54.52 23.16 55.64 23.16L55.64 23.16Q57.48 23.16 58.84 24.12Q60.20 25.08 60.64 26.48L60.64 26.48L63.40 26.48Q63 25.04 62.12 24.10Q61.24 23.16 60.10 22.58Q58.96 22 57.66 21.78Q56.36 21.56 55.16 21.56L55.16 21.56Q52.64 21.56 50.72 22.38Q48.80 23.20 47.48 24.60Q46.16 26 45.50 27.88Q44.84 29.76 44.84 31.88L44.84 31.88Q44.84 34.12 45.56 36.06Q46.28 38 47.62 39.42Q48.96 40.84 50.84 41.66Q52.72 42.48 55.08 42.48L55.08 42.48Q57.72 42.48 59.70 41.60Q61.68 40.72 63.04 39.68L63.04 39.68L61.88 38.16Q60.48 39.32 59.10 39.86Q57.72 40.40 56.08 40.40Z M71.20 14L67.80 14L67.80 42L71.20 42L71.20 30.44Q71.20 29.64 71.32 28.48Q71.44 27.32 71.98 26.24Q72.52 25.16 73.60 24.38Q74.68 23.60 76.60 23.60L76.60 23.60Q77.96 23.60 78.78 24.10Q79.60 24.60 80.04 25.44Q80.48 26.28 80.62 27.40Q80.76 28.52 80.76 29.72L80.76 29.72L80.76 42L84.16 42L84.16 28.80Q84.16 26.56 83.52 25.14Q82.88 23.72 81.92 22.92Q80.96 22.12 79.82 21.84Q78.68 21.56 77.64 21.56L77.64 21.56Q76.24 21.56 74.70 22.10Q73.16 22.64 71.80 24.16L71.80 24.16L71.36 24.72L71.20 24.72L71.20 14Z M103.88 42L107.28 42L107.28 29.04Q107.28 28.32 107.16 27.06Q107.04 25.80 106.38 24.58Q105.72 23.36 104.28 22.46Q102.84 21.56 100.20 21.56L100.20 21.56Q99.04 21.52 97.60 22.02Q96.16 22.52 94.76 23.92L94.76 23.92L94.12 24.56L93.96 24.56L93.96 22L90.56 22L90.56 42L93.96 42L93.96 29.64Q93.96 28.08 94.40 26.96Q94.84 25.84 95.60 25.08Q96.36 24.32 97.34 23.96Q98.32 23.60 99.36 23.60L99.36 23.60Q101.04 23.60 101.96 24.26Q102.88 24.92 103.30 25.80Q103.72 26.68 103.80 27.56Q103.88 28.44 103.88 28.84L103.88 28.84L103.88 42Z M133.32 32.04L133.32 32.04Q133.32 34.12 132.60 36.02Q131.88 37.92 130.54 39.36Q129.20 40.80 127.30 41.64Q125.40 42.48 123.04 42.48L123.04 42.48Q120.64 42.48 118.70 41.62Q116.76 40.76 115.42 39.32Q114.08 37.88 113.34 35.98Q112.60 34.08 112.60 32.04L112.60 32.04Q112.60 29.96 113.34 28.06Q114.08 26.16 115.42 24.72Q116.76 23.28 118.70 22.42Q120.64 21.56 123.04 21.56L123.04 21.56Q125.40 21.56 127.30 22.42Q129.20 23.28 130.54 24.72Q131.88 26.16 132.60 28.06Q133.32 29.96 133.32 32.04ZM129.52 32.04L129.52 32.04Q129.52 29.24 128.92 27.50Q128.32 25.76 127.36 24.80Q126.40 23.84 125.24 23.50Q124.08 23.16 123.00 23.16L123.00 23.16Q121.92 23.16 120.76 23.50Q119.60 23.84 118.62 24.80Q117.64 25.76 117.02 27.50Q116.40 29.24 116.40 32.04L116.40 32.04Q116.40 34.80 117.02 36.54Q117.64 38.28 118.62 39.24Q119.60 40.20 120.76 40.54Q121.92 40.88 123.00 40.88L123.00 40.88Q124.08 40.88 125.24 40.54Q126.40 40.20 127.36 39.24Q128.32 38.28 128.92 36.54Q129.52 34.80 129.52 32.04Z M142.72 42L142.72 14L139.32 14L139.32 42L142.72 42Z M169.44 32.04L169.44 32.04Q169.44 34.12 168.72 36.02Q168.00 37.92 166.66 39.36Q165.32 40.80 163.42 41.64Q161.52 42.48 159.16 42.48L159.16 42.48Q156.76 42.48 154.82 41.62Q152.88 40.76 151.54 39.32Q150.20 37.88 149.46 35.98Q148.72 34.08 148.72 32.04L148.72 32.04Q148.72 29.96 149.46 28.06Q150.20 26.16 151.54 24.72Q152.88 23.28 154.82 22.42Q156.76 21.56 159.16 21.56L159.16 21.56Q161.52 21.56 163.42 22.42Q165.32 23.28 166.66 24.72Q168.00 26.16 168.72 28.06Q169.44 29.96 169.44 32.04ZM165.64 32.04L165.64 32.04Q165.64 29.24 165.04 27.50Q164.44 25.76 163.48 24.80Q162.52 23.84 161.36 23.50Q160.20 23.16 159.12 23.16L159.12 23.16Q158.04 23.16 156.88 23.50Q155.72 23.84 154.74 24.80Q153.76 25.76 153.14 27.50Q152.52 29.24 152.52 32.04L152.52 32.04Q152.52 34.80 153.14 36.54Q153.76 38.28 154.74 39.24Q155.72 40.20 156.88 40.54Q158.04 40.88 159.12 40.88L159.12 40.88Q160.20 40.88 161.36 40.54Q162.52 40.20 163.48 39.24Q164.44 38.28 165.04 36.54Q165.64 34.80 165.64 32.04Z M188.92 38.80L188.92 43.68Q188.92 45.52 188.48 46.80Q188.04 48.08 187.26 48.88Q186.48 49.68 185.42 50.04Q184.36 50.40 183.16 50.40L183.16 50.40Q181.04 50.40 179.74 49.32Q178.44 48.24 177.36 46.44L177.36 46.44L175.16 48.44Q175.44 48.80 176.04 49.38Q176.64 49.96 177.56 50.54Q178.48 51.12 179.76 51.54Q181.04 51.96 182.68 51.96L182.68 51.96Q185.72 51.96 187.60 51.10Q189.48 50.24 190.52 48.80Q191.56 47.36 191.94 45.50Q192.32 43.64 192.32 41.64L192.32 41.64L192.32 22L188.92 22L188.92 25.12L188.76 25.12Q188.28 23.44 186.70 22.50Q185.12 21.56 182.56 21.56L182.56 21.56Q180.52 21.56 178.84 22.30Q177.16 23.04 175.96 24.40Q174.76 25.76 174.10 27.68Q173.44 29.60 173.44 31.96L173.44 31.96Q173.44 34.36 174.10 36.30Q174.76 38.24 175.96 39.62Q177.16 41 178.82 41.74Q180.48 42.48 182.52 42.48L182.52 42.48Q184.76 42.48 186.42 41.60Q188.08 40.72 188.76 38.80L188.76 38.80L188.92 38.80ZM188.92 30.52L188.92 33.48Q188.92 35.16 188.46 36.44Q188.00 37.72 187.24 38.60Q186.48 39.48 185.48 39.94Q184.48 40.40 183.40 40.40L183.40 40.40Q182.44 40.40 181.34 40.06Q180.24 39.72 179.30 38.80Q178.36 37.88 177.74 36.20Q177.12 34.52 177.12 31.88L177.12 31.88Q177.12 29.08 177.88 27.42Q178.64 25.76 179.66 24.88Q180.68 24 181.74 23.74Q182.80 23.48 183.40 23.48L183.40 23.48Q184.72 23.48 185.76 24.06Q186.80 24.64 187.50 25.62Q188.20 26.60 188.56 27.88Q188.92 29.16 188.92 30.52L188.92 30.52Z M203.40 22L200.00 22L200.00 42L203.40 42L203.40 22ZM199.52 15.68L199.52 15.68Q199.52 16.56 200.16 17.20Q200.80 17.84 201.68 17.84L201.68 17.84Q202.56 17.84 203.20 17.20Q203.84 16.56 203.84 15.68L203.84 15.68Q203.84 14.80 203.20 14.16Q202.56 13.52 201.68 13.52L201.68 13.52Q200.80 13.52 200.16 14.16Q199.52 14.80 199.52 15.68Z M213.60 32.88L228.80 32.88L228.80 32.04Q228.80 29.36 228.04 27.40Q227.28 25.44 225.98 24.16Q224.68 22.88 222.96 22.24Q221.24 21.60 219.32 21.60L219.32 21.60Q217.28 21.60 215.56 22.30Q213.84 23 212.56 24.34Q211.28 25.68 210.56 27.58Q209.84 29.48 209.84 31.88L209.84 31.88Q209.84 33.88 210.46 35.78Q211.08 37.68 212.34 39.18Q213.60 40.68 215.54 41.58Q217.48 42.48 220.12 42.48L220.12 42.48Q222.68 42.48 224.84 41.58Q227.00 40.68 228.60 39L228.60 39L227.32 37.72Q226.48 38.44 225.74 39.04Q225.00 39.64 224.24 40.04Q223.48 40.44 222.66 40.66Q221.84 40.88 220.84 40.88L220.84 40.88Q219.72 40.88 218.46 40.54Q217.20 40.20 216.12 39.32Q215.04 38.44 214.32 36.88Q213.60 35.32 213.60 32.88L213.60 32.88ZM225.32 31.28L213.60 31.28Q213.60 29.68 213.94 28.18Q214.28 26.68 214.98 25.52Q215.68 24.36 216.76 23.66Q217.84 22.96 219.32 22.96L219.32 22.96Q222.16 22.96 223.74 25.18Q225.32 27.40 225.32 31.28L225.32 31.28Z M244.48 26.56L246.76 26.56Q246.76 25.48 246.20 24.56Q245.64 23.64 244.66 22.98Q243.68 22.32 242.38 21.94Q241.08 21.56 239.60 21.56L239.60 21.56Q238.20 21.56 236.98 21.92Q235.76 22.28 234.86 23Q233.96 23.72 233.44 24.78Q232.92 25.84 232.92 27.24L232.92 27.24Q232.92 29.16 233.80 30.28Q234.68 31.40 236.00 32.08Q237.32 32.76 238.86 33.18Q240.40 33.60 241.72 34.10Q243.04 34.60 243.92 35.36Q244.80 36.12 244.80 37.44L244.80 37.44Q244.80 38 244.62 38.60Q244.44 39.20 243.96 39.70Q243.48 40.20 242.64 40.54Q241.80 40.88 240.52 40.88L240.52 40.88Q238.92 40.88 237.82 40.38Q236.72 39.88 236.02 39.18Q235.32 38.48 235.02 37.76Q234.72 37.04 234.72 36.56L234.72 36.56L232.12 36.56Q232.12 37.68 232.64 38.74Q233.16 39.80 234.22 40.64Q235.28 41.48 236.82 41.98Q238.36 42.48 240.40 42.48L240.40 42.48Q244.08 42.48 245.94 40.86Q247.80 39.24 247.80 36.60L247.80 36.60Q247.80 34.68 246.90 33.52Q246.00 32.36 244.64 31.66Q243.28 30.96 241.70 30.52Q240.12 30.08 238.76 29.60Q237.40 29.12 236.50 28.44Q235.60 27.76 235.60 26.52L235.60 26.52Q235.60 26 235.80 25.42Q236.00 24.84 236.48 24.34Q236.96 23.84 237.76 23.50Q238.56 23.16 239.76 23.16L239.76 23.16Q240.96 23.16 241.84 23.50Q242.72 23.84 243.32 24.34Q243.92 24.84 244.20 25.44Q244.48 26.04 244.48 26.56L244.48 26.56Z"/></g>
</svg>
</g><g opacity="1" transform="rotate(0 203.5255 138.5277)">
<svg width="3" height="184" x="203.5255" y="138.5277" version="1.1" preserveAspectRatio="none" viewBox="0 0 3 184">
  <defs><rect x="0" y="0" width="3" height="184" rx="0px" ry="0px" id="id-tBXipXk0b1674496899360"></rect></defs><use class="companyName shapeStroke-str" style="stroke-width:0;" xlink:href="#id-tBXipXk0b1674496899360"></use>
</svg>
</g><g opacity="1" transform="rotate(0 238.5255 289.5277)">
<svg width="288.7012" height="18" x="238.5255" y="289.5277" version="1.1" preserveAspectRatio="none" viewBox="4.56 -29.68 603.84 37.64">
  <g transform="matrix(1 0 0 1 0 0)" class="text"><path id="id-D-YM9nyY426" d="M7.52-2.56L24.36-2.56L24.36 0L4.56 0L4.56-28L23.76-28L23.76-25.44L7.52-25.44L7.52-15.48L22-15.48L22-12.96L7.52-12.96L7.52-2.56Z M47.96 0L44.72 0L38.04-8.80L31.32 0L28.12 0L36.44-10.80L28.52-21.04L31.72-21.04L38.04-12.80L44.36-21.04L47.48-21.04L39.56-10.80L47.96 0Z M64.72-21.20Q67.68-21.20 70.08-19.86Q72.48-18.52 73.84-16.08Q75.20-13.64 75.20-10.52L75.20-10.52Q75.20-7.36 73.84-4.92Q72.48-2.48 70.10-1.14Q67.72 0.20 64.72 0.20L64.72 0.20Q62.16 0.20 60.10-0.86Q58.04-1.92 56.72-3.96L56.72-3.96L56.72 7.76L53.88 7.76L53.88-21.04L56.60-21.04L56.60-16.88Q57.88-18.96 59.98-20.08Q62.08-21.20 64.72-21.20L64.72-21.20ZM64.52-2.32Q66.72-2.32 68.52-3.34Q70.32-4.36 71.34-6.24Q72.36-8.12 72.36-10.52L72.36-10.52Q72.36-12.92 71.34-14.78Q70.32-16.64 68.52-17.68Q66.72-18.72 64.52-18.72L64.52-18.72Q62.28-18.72 60.50-17.68Q58.72-16.64 57.70-14.78Q56.68-12.92 56.68-10.52L56.68-10.52Q56.68-8.12 57.70-6.24Q58.72-4.36 60.50-3.34Q62.28-2.32 64.52-2.32L64.52-2.32Z M89.44-21.20Q93.56-21.20 95.76-19.14Q97.96-17.08 97.96-13.04L97.96-13.04L97.96 0L95.24 0L95.24-3.28Q94.28-1.64 92.42-0.72Q90.56 0.20 88 0.20L88 0.20Q84.48 0.20 82.40-1.48Q80.32-3.16 80.32-5.92L80.32-5.92Q80.32-8.60 82.26-10.24Q84.20-11.88 88.44-11.88L88.44-11.88L95.12-11.88L95.12-13.16Q95.12-15.88 93.60-17.30Q92.08-18.72 89.16-18.72L89.16-18.72Q87.16-18.72 85.32-18.06Q83.48-17.40 82.16-16.24L82.16-16.24L80.88-18.36Q82.48-19.72 84.72-20.46Q86.96-21.20 89.44-21.20L89.44-21.20ZM88.44-2.04Q90.84-2.04 92.56-3.14Q94.28-4.24 95.12-6.32L95.12-6.32L95.12-9.76L88.52-9.76Q83.12-9.76 83.12-6L83.12-6Q83.12-4.16 84.52-3.10Q85.92-2.04 88.44-2.04L88.44-2.04Z M117.60-21.20Q121.56-21.20 123.90-18.90Q126.24-16.60 126.24-12.20L126.24-12.20L126.24 0L123.40 0L123.40-11.92Q123.40-15.20 121.76-16.92Q120.12-18.64 117.08-18.64L117.08-18.64Q113.68-18.64 111.70-16.62Q109.72-14.60 109.72-11.04L109.72-11.04L109.72 0L106.88 0L106.88-21.04L109.60-21.04L109.60-17.16Q110.76-19.08 112.82-20.14Q114.88-21.20 117.60-21.20L117.60-21.20Z M151.60-29.68L154.44-29.68L154.44 0L151.72 0L151.72-4.16Q150.44-2.04 148.34-0.92Q146.24 0.20 143.60 0.20L143.60 0.20Q140.64 0.20 138.24-1.16Q135.84-2.52 134.48-4.96Q133.12-7.40 133.12-10.52L133.12-10.52Q133.12-13.64 134.48-16.08Q135.84-18.52 138.24-19.86Q140.64-21.20 143.60-21.20L143.60-21.20Q146.16-21.20 148.22-20.14Q150.28-19.08 151.60-17.04L151.60-17.04L151.60-29.68ZM143.84-2.32Q146.04-2.32 147.82-3.34Q149.60-4.36 150.62-6.24Q151.64-8.12 151.64-10.52L151.64-10.52Q151.64-12.92 150.62-14.80Q149.60-16.68 147.82-17.70Q146.04-18.72 143.84-18.72L143.84-18.72Q141.60-18.72 139.82-17.70Q138.04-16.68 137.02-14.80Q136-12.92 136-10.52L136-10.52Q136-8.12 137.02-6.24Q138.04-4.36 139.82-3.34Q141.60-2.32 143.84-2.32L143.84-2.32Z M163.56 0L163.56-21.04L166.40-21.04L166.40 0L163.56 0ZM165-25.64Q164.12-25.64 163.52-26.24Q162.92-26.84 162.92-27.68L162.92-27.68Q162.92-28.48 163.52-29.08Q164.12-29.68 165-29.68L165-29.68Q165.88-29.68 166.48-29.10Q167.08-28.52 167.08-27.72L167.08-27.72Q167.08-26.84 166.48-26.24Q165.88-25.64 165-25.64L165-25.64Z M186.24-21.20Q190.20-21.20 192.54-18.90Q194.88-16.60 194.88-12.20L194.88-12.20L194.88 0L192.04 0L192.04-11.92Q192.04-15.20 190.40-16.92Q188.76-18.64 185.72-18.64L185.72-18.64Q182.32-18.64 180.34-16.62Q178.36-14.60 178.36-11.04L178.36-11.04L178.36 0L175.52 0L175.52-21.04L178.24-21.04L178.24-17.16Q179.40-19.08 181.46-20.14Q183.52-21.20 186.24-21.20L186.24-21.20Z M220.64-21.04L223.36-21.04L223.36-2.56Q223.36 2.80 220.74 5.38Q218.12 7.96 212.84 7.96L212.84 7.96Q209.92 7.96 207.30 7.10Q204.68 6.24 203.04 4.72L203.04 4.72L204.48 2.56Q206 3.92 208.18 4.68Q210.36 5.44 212.76 5.44L212.76 5.44Q216.76 5.44 218.64 3.58Q220.52 1.72 220.52-2.20L220.52-2.20L220.52-4.88Q219.20-2.88 217.06-1.84Q214.92-0.80 212.32-0.80L212.32-0.80Q209.36-0.80 206.94-2.10Q204.52-3.40 203.14-5.74Q201.76-8.08 201.76-11.04L201.76-11.04Q201.76-14 203.14-16.32Q204.52-18.64 206.92-19.92Q209.32-21.20 212.32-21.20L212.32-21.20Q215-21.20 217.16-20.12Q219.32-19.04 220.64-17L220.64-17L220.64-21.04ZM212.60-3.32Q214.88-3.32 216.72-4.30Q218.56-5.28 219.58-7.04Q220.60-8.80 220.60-11.04L220.60-11.04Q220.60-13.28 219.58-15.02Q218.56-16.76 216.74-17.74Q214.92-18.72 212.60-18.72L212.60-18.72Q210.32-18.72 208.50-17.76Q206.68-16.80 205.66-15.04Q204.64-13.28 204.64-11.04L204.64-11.04Q204.64-8.80 205.66-7.04Q206.68-5.28 208.50-4.30Q210.32-3.32 212.60-3.32L212.60-3.32Z M250.24 0L250.24-25.44L240.40-25.44L240.40-28L263.04-28L263.04-25.44L253.20-25.44L253.20 0L250.24 0Z M284.52-10.52L284.48-9.64L266.88-9.64Q267.12-6.36 269.40-4.34Q271.68-2.32 275.16-2.32L275.16-2.32Q277.12-2.32 278.76-3.02Q280.40-3.72 281.60-5.08L281.60-5.08L283.20-3.24Q281.80-1.56 279.70-0.68Q277.60 0.20 275.08 0.20L275.08 0.20Q271.84 0.20 269.34-1.18Q266.84-2.56 265.44-5Q264.04-7.44 264.04-10.52L264.04-10.52Q264.04-13.60 265.38-16.04Q266.72-18.48 269.06-19.84Q271.40-21.20 274.32-21.20L274.32-21.20Q277.24-21.20 279.56-19.84Q281.88-18.48 283.20-16.06Q284.52-13.64 284.52-10.52L284.52-10.52ZM274.32-18.76Q271.28-18.76 269.22-16.82Q267.16-14.88 266.88-11.76L266.88-11.76L281.80-11.76Q281.52-14.88 279.46-16.82Q277.40-18.76 274.32-18.76L274.32-18.76Z M300.24 0.20Q297.12 0.20 294.66-1.16Q292.20-2.52 290.80-4.98Q289.40-7.44 289.40-10.52L289.40-10.52Q289.40-13.60 290.80-16.04Q292.20-18.48 294.66-19.84Q297.12-21.20 300.24-21.20L300.24-21.20Q302.96-21.20 305.10-20.14Q307.24-19.08 308.48-17.04L308.48-17.04L306.36-15.60Q305.32-17.16 303.72-17.94Q302.12-18.72 300.24-18.72L300.24-18.72Q297.96-18.72 296.14-17.70Q294.32-16.68 293.30-14.80Q292.28-12.92 292.28-10.52L292.28-10.52Q292.28-8.08 293.30-6.22Q294.32-4.36 296.14-3.34Q297.96-2.32 300.24-2.32L300.24-2.32Q302.12-2.32 303.72-3.08Q305.32-3.84 306.36-5.40L306.36-5.40L308.48-3.96Q307.24-1.92 305.08-0.86Q302.92 0.20 300.24 0.20L300.24 0.20Z M325.64-21.20Q329.60-21.20 331.94-18.90Q334.28-16.60 334.28-12.20L334.28-12.20L334.28 0L331.44 0L331.44-11.92Q331.44-15.20 329.80-16.92Q328.16-18.64 325.12-18.64L325.12-18.64Q321.72-18.64 319.74-16.62Q317.76-14.60 317.76-11.04L317.76-11.04L317.76 0L314.92 0L314.92-29.68L317.76-29.68L317.76-17.36Q318.92-19.20 320.96-20.20Q323.00-21.20 325.64-21.20L325.64-21.20Z M353.92-21.20Q357.88-21.20 360.22-18.90Q362.56-16.60 362.56-12.20L362.56-12.20L362.56 0L359.72 0L359.72-11.92Q359.72-15.20 358.08-16.92Q356.44-18.64 353.40-18.64L353.40-18.64Q350.00-18.64 348.02-16.62Q346.04-14.60 346.04-11.04L346.04-11.04L346.04 0L343.20 0L343.20-21.04L345.92-21.04L345.92-17.16Q347.08-19.08 349.14-20.14Q351.20-21.20 353.92-21.20L353.92-21.20Z M380.16 0.20Q377.12 0.20 374.68-1.18Q372.24-2.56 370.84-5Q369.44-7.44 369.44-10.52L369.44-10.52Q369.44-13.60 370.84-16.04Q372.24-18.48 374.68-19.84Q377.12-21.20 380.16-21.20L380.16-21.20Q383.20-21.20 385.64-19.84Q388.08-18.48 389.46-16.04Q390.84-13.60 390.84-10.52L390.84-10.52Q390.84-7.44 389.46-5Q388.08-2.56 385.64-1.18Q383.20 0.20 380.16 0.20L380.16 0.20ZM380.16-2.32Q382.40-2.32 384.18-3.34Q385.96-4.36 386.96-6.24Q387.96-8.12 387.96-10.52L387.96-10.52Q387.96-12.92 386.96-14.80Q385.96-16.68 384.18-17.70Q382.40-18.72 380.16-18.72L380.16-18.72Q377.92-18.72 376.14-17.70Q374.36-16.68 373.34-14.80Q372.32-12.92 372.32-10.52L372.32-10.52Q372.32-8.12 373.34-6.24Q374.36-4.36 376.14-3.34Q377.92-2.32 380.16-2.32L380.16-2.32Z M397.84 0L397.84-29.68L400.68-29.68L400.68 0L397.84 0Z M418.40 0.20Q415.36 0.20 412.92-1.18Q410.48-2.56 409.08-5Q407.68-7.44 407.68-10.52L407.68-10.52Q407.68-13.60 409.08-16.04Q410.48-18.48 412.92-19.84Q415.36-21.20 418.40-21.20L418.40-21.20Q421.44-21.20 423.88-19.84Q426.32-18.48 427.70-16.04Q429.08-13.60 429.08-10.52L429.08-10.52Q429.08-7.44 427.70-5Q426.32-2.56 423.88-1.18Q421.44 0.20 418.40 0.20L418.40 0.20ZM418.40-2.32Q420.64-2.32 422.42-3.34Q424.20-4.36 425.20-6.24Q426.20-8.12 426.20-10.52L426.20-10.52Q426.20-12.92 425.20-14.80Q424.20-16.68 422.42-17.70Q420.64-18.72 418.40-18.72L418.40-18.72Q416.16-18.72 414.38-17.70Q412.60-16.68 411.58-14.80Q410.56-12.92 410.56-10.52L410.56-10.52Q410.56-8.12 411.58-6.24Q412.60-4.36 414.38-3.34Q416.16-2.32 418.40-2.32L418.40-2.32Z M452.84-21.04L455.56-21.04L455.56-2.56Q455.56 2.80 452.94 5.38Q450.32 7.96 445.04 7.96L445.04 7.96Q442.12 7.96 439.50 7.10Q436.88 6.24 435.24 4.72L435.24 4.72L436.68 2.56Q438.20 3.92 440.38 4.68Q442.56 5.44 444.96 5.44L444.96 5.44Q448.96 5.44 450.84 3.58Q452.72 1.72 452.72-2.20L452.72-2.20L452.72-4.88Q451.40-2.88 449.26-1.84Q447.12-0.80 444.52-0.80L444.52-0.80Q441.56-0.80 439.14-2.10Q436.72-3.40 435.34-5.74Q433.96-8.08 433.96-11.04L433.96-11.04Q433.96-14 435.34-16.32Q436.72-18.64 439.12-19.92Q441.52-21.20 444.52-21.20L444.52-21.20Q447.20-21.20 449.36-20.12Q451.52-19.04 452.84-17L452.84-17L452.84-21.04ZM444.80-3.32Q447.08-3.32 448.92-4.30Q450.76-5.28 451.78-7.04Q452.80-8.80 452.80-11.04L452.80-11.04Q452.80-13.28 451.78-15.02Q450.76-16.76 448.94-17.74Q447.12-18.72 444.80-18.72L444.80-18.72Q442.52-18.72 440.70-17.76Q438.88-16.80 437.86-15.04Q436.84-13.28 436.84-11.04L436.84-11.04Q436.84-8.80 437.86-7.04Q438.88-5.28 440.70-4.30Q442.52-3.32 444.80-3.32L444.80-3.32Z M479.60-21.04L482.40-21.04L471.88 2.52Q470.60 5.48 468.92 6.72Q467.24 7.96 464.88 7.96L464.88 7.96Q463.36 7.96 462.04 7.48Q460.72 7 459.76 6.04L459.76 6.04L461.08 3.92Q462.68 5.52 464.92 5.52L464.92 5.52Q466.36 5.52 467.38 4.72Q468.40 3.92 469.28 2L469.28 2L470.20-0.04L460.80-21.04L463.76-21.04L471.68-3.16L479.60-21.04Z M502.00-16.92Q503.00-19.04 504.98-20.12Q506.96-21.20 509.88-21.20L509.88-21.20L509.88-18.44L509.20-18.48Q505.88-18.48 504.00-16.44Q502.12-14.40 502.12-10.72L502.12-10.72L502.12 0L499.28 0L499.28-21.04L502.00-21.04L502.00-16.92Z M534.36-10.52L534.32-9.64L516.72-9.64Q516.96-6.36 519.24-4.34Q521.52-2.32 525.00-2.32L525.00-2.32Q526.96-2.32 528.60-3.02Q530.24-3.72 531.44-5.08L531.44-5.08L533.04-3.24Q531.64-1.56 529.54-0.68Q527.44 0.20 524.92 0.20L524.92 0.20Q521.68 0.20 519.18-1.18Q516.68-2.56 515.28-5Q513.88-7.44 513.88-10.52L513.88-10.52Q513.88-13.60 515.22-16.04Q516.56-18.48 518.90-19.84Q521.24-21.20 524.16-21.20L524.16-21.20Q527.08-21.20 529.40-19.84Q531.72-18.48 533.04-16.06Q534.36-13.64 534.36-10.52L534.36-10.52ZM524.16-18.76Q521.12-18.76 519.06-16.82Q517.00-14.88 516.72-11.76L516.72-11.76L531.64-11.76Q531.36-14.88 529.30-16.82Q527.24-18.76 524.16-18.76L524.16-18.76Z M548.12-21.20Q552.24-21.20 554.44-19.14Q556.64-17.08 556.64-13.04L556.64-13.04L556.64 0L553.92 0L553.92-3.28Q552.96-1.64 551.10-0.72Q549.24 0.20 546.68 0.20L546.68 0.20Q543.16 0.20 541.08-1.48Q539.00-3.16 539.00-5.92L539.00-5.92Q539.00-8.60 540.94-10.24Q542.88-11.88 547.12-11.88L547.12-11.88L553.80-11.88L553.80-13.16Q553.80-15.88 552.28-17.30Q550.76-18.72 547.84-18.72L547.84-18.72Q545.84-18.72 544.00-18.06Q542.16-17.40 540.84-16.24L540.84-16.24L539.56-18.36Q541.16-19.72 543.40-20.46Q545.64-21.20 548.12-21.20L548.12-21.20ZM547.12-2.04Q549.52-2.04 551.24-3.14Q552.96-4.24 553.80-6.32L553.80-6.32L553.80-9.76L547.20-9.76Q541.80-9.76 541.80-6L541.80-6Q541.80-4.16 543.20-3.10Q544.60-2.04 547.12-2.04L547.12-2.04Z M574.36 0.20Q571.24 0.20 568.78-1.16Q566.32-2.52 564.92-4.98Q563.52-7.44 563.52-10.52L563.52-10.52Q563.52-13.60 564.92-16.04Q566.32-18.48 568.78-19.84Q571.24-21.20 574.36-21.20L574.36-21.20Q577.08-21.20 579.22-20.14Q581.36-19.08 582.60-17.04L582.60-17.04L580.48-15.60Q579.44-17.16 577.84-17.94Q576.24-18.72 574.36-18.72L574.36-18.72Q572.08-18.72 570.26-17.70Q568.44-16.68 567.42-14.80Q566.40-12.92 566.40-10.52L566.40-10.52Q566.40-8.08 567.42-6.22Q568.44-4.36 570.26-3.34Q572.08-2.32 574.36-2.32L574.36-2.32Q576.24-2.32 577.84-3.08Q579.44-3.84 580.48-5.40L580.48-5.40L582.60-3.96Q581.36-1.92 579.20-0.86Q577.04 0.20 574.36 0.20L574.36 0.20Z M599.76-21.20Q603.72-21.20 606.06-18.90Q608.40-16.60 608.40-12.20L608.40-12.20L608.40 0L605.56 0L605.56-11.92Q605.56-15.20 603.92-16.92Q602.28-18.64 599.24-18.64L599.24-18.64Q595.84-18.64 593.86-16.62Q591.88-14.60 591.88-11.04L591.88-11.04L591.88 0L589.04 0L589.04-29.68L591.88-29.68L591.88-17.36Q593.04-19.20 595.08-20.20Q597.12-21.20 599.76-21.20L599.76-21.20Z"/></g>
</svg>
</g></svg></svg>