<svg version="1.1" preserveAspectRatio="none" xmlns="http://www.w3.org/2000/svg" width="500" height="500" viewBox="0 0 500 500"><rect width="100%" height="100%" fill="#F7F4F2" fill-opacity="1"/><svg viewBox="-38.1947 -85.9132 341.35 317" width="333" height="309.24564230262195" x="83.5px" y="95.3772px" xmlns="http://www.w3.org/2000/svg" xmlns:xlink="http://www.w3.org/1999/xlink" preserveAspectRatio="none"><defs></defs><style>.companyName {fill:#161616;fill-opacity:1;}.icon1 {fill:#161616;fill-opacity:1;}.icon2 {fill:#E5B7D2;fill-opacity:1;}.icon3 {fill:#848282;fill-opacity:1;}.icon3-str {stroke:#848282;stroke-opacity:1;}.text {fill:#161616;fill-opacity:1;}</style><g opacity="1" transform="rotate(0 51.0877 212.0868)">
<svg width="162.7852" height="19" x="51.0877" y="212.0868" version="1.1" preserveAspectRatio="none" viewBox="3.56 -29.6 326.56 38.120000000000005">
  <g transform="matrix(1 0 0 1 0 0)" class="text"><path id="id-6izo4zJp16" d="M6.36 0L3.56 0L3.56-28.40L15.56-28.40Q17.40-28.40 18.94-27.62Q20.48-26.84 21.60-25.58Q22.72-24.32 23.34-22.72Q23.96-21.12 23.96-19.48L23.96-19.48Q23.96-17.92 23.50-16.50Q23.04-15.08 22.22-13.94Q21.40-12.80 20.24-12.02Q19.08-11.24 17.64-10.96L17.64-10.96L24.60 0L21.44 0L14.76-10.48L6.36-10.48L6.36 0ZM6.36-25.92L6.36-12.96L15.64-12.96Q16.88-12.96 17.90-13.50Q18.92-14.04 19.64-14.96Q20.36-15.88 20.76-17.04Q21.16-18.20 21.16-19.48L21.16-19.48Q21.16-20.76 20.70-21.94Q20.24-23.12 19.46-24Q18.68-24.88 17.62-25.40Q16.56-25.92 15.40-25.92L15.40-25.92L6.36-25.92Z M39.12 0.40L39.12 0.40Q36.84 0.40 34.94-0.46Q33.04-1.32 31.64-2.82Q30.24-4.32 29.46-6.28Q28.68-8.24 28.68-10.48L28.68-10.48Q28.68-12.68 29.46-14.62Q30.24-16.56 31.62-18.02Q33-19.48 34.92-20.34Q36.84-21.20 39.08-21.20L39.08-21.20Q41.36-21.20 43.26-20.34Q45.16-19.48 46.52-18Q47.88-16.52 48.64-14.60Q49.40-12.68 49.40-10.52L49.40-10.52Q49.40-10.20 49.40-9.88Q49.40-9.56 49.36-9.44L49.36-9.44L31.52-9.44Q31.64-7.76 32.30-6.34Q32.96-4.92 34-3.88Q35.04-2.84 36.38-2.26Q37.72-1.68 39.24-1.68L39.24-1.68Q40.24-1.68 41.24-1.96Q42.24-2.24 43.08-2.72Q43.92-3.20 44.60-3.90Q45.28-4.60 45.64-5.44L45.64-5.44L48-4.80Q47.52-3.64 46.64-2.70Q45.76-1.76 44.60-1.06Q43.44-0.36 42.04 0.02Q40.64 0.40 39.12 0.40ZM31.48-11.52L46.80-11.52Q46.68-13.20 46.02-14.58Q45.36-15.96 44.34-16.96Q43.32-17.96 41.98-18.52Q40.64-19.08 39.12-19.08L39.12-19.08Q37.60-19.08 36.24-18.52Q34.88-17.96 33.86-16.96Q32.84-15.96 32.22-14.56Q31.60-13.16 31.48-11.52L31.48-11.52Z M62.12 0.40L62.12 0.40Q59.68 0.40 57.36-0.40Q55.04-1.20 53.36-2.72L53.36-2.72L54.60-4.56Q56.36-3.12 58.18-2.40Q60-1.68 62.08-1.68L62.08-1.68Q64.60-1.68 66.10-2.70Q67.60-3.72 67.60-5.60L67.60-5.60Q67.60-6.48 67.20-7.06Q66.80-7.64 66.02-8.08Q65.24-8.52 64.06-8.86Q62.88-9.20 61.32-9.56L61.32-9.56Q59.52-10 58.20-10.44Q56.88-10.88 56.02-11.44Q55.16-12 54.74-12.82Q54.32-13.64 54.32-14.88L54.32-14.88Q54.32-16.44 54.94-17.64Q55.56-18.84 56.62-19.62Q57.68-20.40 59.10-20.80Q60.52-21.20 62.12-21.20L62.12-21.20Q64.52-21.20 66.48-20.42Q68.44-19.64 69.64-18.36L69.64-18.36L68.32-16.76Q67.16-17.96 65.50-18.56Q63.84-19.16 62.04-19.16L62.04-19.16Q60.96-19.16 60.04-18.94Q59.12-18.72 58.42-18.24Q57.72-17.76 57.32-17.02Q56.92-16.28 56.92-15.28L56.92-15.28Q56.92-14.44 57.20-13.92Q57.48-13.40 58.12-13.02Q58.76-12.64 59.74-12.34Q60.72-12.04 62.12-11.72L62.12-11.72Q64.12-11.24 65.64-10.76Q67.16-10.28 68.18-9.64Q69.20-9 69.72-8.08Q70.24-7.16 70.24-5.84L70.24-5.84Q70.24-2.96 68.04-1.28Q65.84 0.40 62.12 0.40Z M86.92 0.40L86.92 0.40Q84.28 0.40 82.26-0.94Q80.24-2.28 79-4.32L79-4.32L79 8.52L76.28 8.52L76.28-20.84L78.72-20.84L78.72-16.80Q80-18.76 82.04-19.98Q84.08-21.20 86.48-21.20L86.48-21.20Q88.64-21.20 90.44-20.30Q92.24-19.40 93.56-17.90Q94.88-16.40 95.62-14.44Q96.36-12.48 96.36-10.40L96.36-10.40Q96.36-8.20 95.68-6.24Q95-4.28 93.74-2.80Q92.48-1.32 90.74-0.46Q89 0.40 86.92 0.40ZM86.16-2L86.16-2Q87.84-2 89.22-2.72Q90.60-3.44 91.58-4.62Q92.56-5.80 93.08-7.30Q93.60-8.80 93.60-10.40L93.60-10.40Q93.60-12.08 93-13.60Q92.40-15.12 91.36-16.28Q90.32-17.44 88.90-18.12Q87.48-18.80 85.84-18.80L85.84-18.80Q84.80-18.80 83.66-18.38Q82.52-17.96 81.54-17.26Q80.56-16.56 79.86-15.62Q79.16-14.68 79-13.64L79-13.64L79-7.24Q79.48-6.12 80.22-5.16Q80.96-4.20 81.90-3.50Q82.84-2.80 83.92-2.40Q85-2 86.16-2Z M111.56 0.40L111.56 0.40Q109.28 0.40 107.38-0.46Q105.48-1.32 104.08-2.82Q102.68-4.32 101.90-6.28Q101.12-8.24 101.12-10.48L101.12-10.48Q101.12-12.68 101.90-14.62Q102.68-16.56 104.06-18.02Q105.44-19.48 107.36-20.34Q109.28-21.20 111.52-21.20L111.52-21.20Q113.80-21.20 115.70-20.34Q117.60-19.48 118.96-18Q120.32-16.52 121.08-14.60Q121.84-12.68 121.84-10.52L121.84-10.52Q121.84-10.20 121.84-9.88Q121.84-9.56 121.80-9.44L121.80-9.44L103.96-9.44Q104.08-7.76 104.74-6.34Q105.40-4.92 106.44-3.88Q107.48-2.84 108.82-2.26Q110.16-1.68 111.68-1.68L111.68-1.68Q112.68-1.68 113.68-1.96Q114.68-2.24 115.52-2.72Q116.36-3.20 117.04-3.90Q117.72-4.60 118.08-5.44L118.08-5.44L120.44-4.80Q119.96-3.64 119.08-2.70Q118.20-1.76 117.04-1.06Q115.88-0.36 114.48 0.02Q113.08 0.40 111.56 0.40ZM103.92-11.52L119.24-11.52Q119.12-13.20 118.46-14.58Q117.80-15.96 116.78-16.96Q115.76-17.96 114.42-18.52Q113.08-19.08 111.56-19.08L111.56-19.08Q110.04-19.08 108.68-18.52Q107.32-17.96 106.30-16.96Q105.28-15.96 104.66-14.56Q104.04-13.16 103.92-11.52L103.92-11.52Z M126.20-10.48L126.20-10.48Q126.20-12.68 126.96-14.64Q127.72-16.60 129.10-18.06Q130.48-19.52 132.40-20.36Q134.32-21.20 136.64-21.20L136.64-21.20Q139.60-21.20 141.80-19.86Q144-18.52 145.12-16.24L145.12-16.24L142.48-15.40Q141.60-17 140.02-17.90Q138.44-18.80 136.52-18.80L136.52-18.80Q134.92-18.80 133.54-18.16Q132.16-17.52 131.14-16.42Q130.12-15.32 129.54-13.80Q128.96-12.28 128.96-10.48L128.96-10.48Q128.96-8.72 129.56-7.16Q130.16-5.60 131.20-4.46Q132.24-3.32 133.62-2.66Q135-2 136.56-2L136.56-2Q137.56-2 138.54-2.28Q139.52-2.56 140.36-3.06Q141.20-3.56 141.80-4.20Q142.40-4.84 142.64-5.56L142.64-5.56L145.32-4.76Q144.88-3.64 144.04-2.70Q143.20-1.76 142.06-1.06Q140.92-0.36 139.54 0.02Q138.16 0.40 136.68 0.40L136.68 0.40Q134.40 0.40 132.48-0.46Q130.56-1.32 129.16-2.82Q127.76-4.32 126.98-6.28Q126.20-8.24 126.20-10.48Z M160.48-3.20L161.20-1Q160.96-0.88 160.50-0.68Q160.04-0.48 159.44-0.28Q158.84-0.08 158.08 0.08Q157.32 0.24 156.48 0.24L156.48 0.24Q155.60 0.24 154.80 0Q154-0.24 153.40-0.74Q152.80-1.24 152.44-2Q152.08-2.76 152.08-3.76L152.08-3.76L152.08-18.68L149.20-18.68L149.20-20.84L152.08-20.84L152.08-27.88L154.80-27.88L154.80-20.84L159.60-20.84L159.60-18.68L154.80-18.68L154.80-4.52Q154.88-3.36 155.62-2.82Q156.36-2.28 157.32-2.28L157.32-2.28Q158.48-2.28 159.36-2.66Q160.24-3.04 160.48-3.20L160.48-3.20Z M181.72 0L179.00 0L179.00-18.68L176.12-18.68L176.12-20.84L179.00-20.84L179.00-21.40Q179.00-25.24 180.64-27.42Q182.28-29.60 185.12-29.60L185.12-29.60Q186.36-29.60 187.52-29.24Q188.68-28.88 189.52-28.28L189.52-28.28L188.68-26.32Q188.12-26.76 187.30-27Q186.48-27.24 185.64-27.24L185.64-27.24Q183.72-27.24 182.72-25.76Q181.72-24.28 181.72-21.48L181.72-21.48L181.72-20.84L187.48-20.84L187.48-18.68L181.72-18.68L181.72 0Z M200.64 0.40L200.64 0.40Q198.36 0.40 196.48-0.46Q194.60-1.32 193.22-2.80Q191.84-4.28 191.08-6.24Q190.32-8.20 190.32-10.36L190.32-10.36Q190.32-12.56 191.10-14.52Q191.88-16.48 193.26-17.96Q194.64-19.44 196.52-20.32Q198.40-21.20 200.64-21.20L200.64-21.20Q202.88-21.20 204.78-20.32Q206.68-19.44 208.06-17.96Q209.44-16.48 210.22-14.52Q211.00-12.56 211.00-10.36L211.00-10.36Q211.00-8.20 210.24-6.24Q209.48-4.28 208.10-2.80Q206.72-1.32 204.82-0.46Q202.92 0.40 200.64 0.40ZM193.08-10.32L193.08-10.32Q193.08-8.56 193.68-7.06Q194.28-5.56 195.30-4.42Q196.32-3.28 197.70-2.64Q199.08-2 200.64-2L200.64-2Q202.20-2 203.58-2.66Q204.96-3.32 206.00-4.46Q207.04-5.60 207.64-7.12Q208.24-8.64 208.24-10.40L208.24-10.40Q208.24-12.12 207.64-13.66Q207.04-15.20 206.00-16.34Q204.96-17.48 203.58-18.14Q202.20-18.80 200.64-18.80L200.64-18.80Q199.08-18.80 197.72-18.14Q196.36-17.48 195.32-16.32Q194.28-15.16 193.68-13.62Q193.08-12.08 193.08-10.32Z M227.56-20.92L227.56-18.44Q224.80-18.36 222.76-16.92Q220.72-15.48 219.88-12.96L219.88-12.96L219.88 0L217.16 0L217.16-20.84L219.72-20.84L219.72-15.84Q220.88-18.24 222.84-19.60Q224.80-20.96 227.04-20.96L227.04-20.96Q227.36-20.96 227.56-20.92L227.56-20.92Z M263.24-28.40L263.24-25.92L253.12-25.92L253.12 0L250.32 0L250.32-25.92L240.20-25.92L240.20-28.40L263.24-28.40Z M272.96 0.40L272.96 0.40Q270.68 0.40 268.78-0.46Q266.88-1.32 265.48-2.82Q264.08-4.32 263.30-6.28Q262.52-8.24 262.52-10.48L262.52-10.48Q262.52-12.68 263.30-14.62Q264.08-16.56 265.46-18.02Q266.84-19.48 268.76-20.34Q270.68-21.20 272.92-21.20L272.92-21.20Q275.20-21.20 277.10-20.34Q279.00-19.48 280.36-18Q281.72-16.52 282.48-14.60Q283.24-12.68 283.24-10.52L283.24-10.52Q283.24-10.20 283.24-9.88Q283.24-9.56 283.20-9.44L283.20-9.44L265.36-9.44Q265.48-7.76 266.14-6.34Q266.80-4.92 267.84-3.88Q268.88-2.84 270.22-2.26Q271.56-1.68 273.08-1.68L273.08-1.68Q274.08-1.68 275.08-1.96Q276.08-2.24 276.92-2.72Q277.76-3.20 278.44-3.90Q279.12-4.60 279.48-5.44L279.48-5.44L281.84-4.80Q281.36-3.64 280.48-2.70Q279.60-1.76 278.44-1.06Q277.28-0.36 275.88 0.02Q274.48 0.40 272.96 0.40ZM265.32-11.52L280.64-11.52Q280.52-13.20 279.86-14.58Q279.20-15.96 278.18-16.96Q277.16-17.96 275.82-18.52Q274.48-19.08 272.96-19.08L272.96-19.08Q271.44-19.08 270.08-18.52Q268.72-17.96 267.70-16.96Q266.68-15.96 266.06-14.56Q265.44-13.16 265.32-11.52L265.32-11.52Z M287.60-10.48L287.60-10.48Q287.60-12.68 288.36-14.64Q289.12-16.60 290.50-18.06Q291.88-19.52 293.80-20.36Q295.72-21.20 298.04-21.20L298.04-21.20Q301.00-21.20 303.20-19.86Q305.40-18.52 306.52-16.24L306.52-16.24L303.88-15.40Q303.00-17 301.42-17.90Q299.84-18.80 297.92-18.80L297.92-18.80Q296.32-18.80 294.94-18.16Q293.56-17.52 292.54-16.42Q291.52-15.32 290.94-13.80Q290.36-12.28 290.36-10.48L290.36-10.48Q290.36-8.72 290.96-7.16Q291.56-5.60 292.60-4.46Q293.64-3.32 295.02-2.66Q296.40-2 297.96-2L297.96-2Q298.96-2 299.94-2.28Q300.92-2.56 301.76-3.06Q302.60-3.56 303.20-4.20Q303.80-4.84 304.04-5.56L304.04-5.56L306.72-4.76Q306.28-3.64 305.44-2.70Q304.60-1.76 303.46-1.06Q302.32-0.36 300.94 0.02Q299.56 0.40 298.08 0.40L298.08 0.40Q295.80 0.40 293.88-0.46Q291.96-1.32 290.56-2.82Q289.16-4.32 288.38-6.28Q287.60-8.24 287.60-10.48Z M330.12-12.20L330.12 0L327.40 0L327.40-11.64Q327.40-15.20 326.18-16.96Q324.96-18.72 322.60-18.72L322.60-18.72Q321.44-18.72 320.30-18.26Q319.16-17.80 318.16-17Q317.16-16.20 316.42-15.12Q315.68-14.04 315.32-12.76L315.32-12.76L315.32 0L312.60 0L312.60-29.20L315.32-29.20L315.32-16.12Q316.56-18.48 318.76-19.84Q320.96-21.20 323.52-21.20L323.52-21.20Q325.32-21.20 326.56-20.54Q327.80-19.88 328.60-18.70Q329.40-17.52 329.76-15.86Q330.12-14.20 330.12-12.20L330.12-12.20Z"/></g>
</svg>
</g><g opacity="1" transform="rotate(0 -38.1947 144.0868)">
<svg width="341.35" height="50" x="-38.1947" y="144.0868" version="1.1" preserveAspectRatio="none" viewBox="0 -29.5508 283.6133 41.543">
  <g transform="matrix(1 0 0 1 0 0)" class="companyName"><path id="id-D6z1nYkh19" d="M20.68-6.41L20.68-6.41Q21.41-6.76 22.71-7.28Q24.00-7.79 24.36-7.79L24.36-7.79Q24.61-7.79 24.61-7.52Q24.61-7.25 24.47-6.95Q24.34-6.66 24.19-6.45Q24.04-6.23 23.81-5.92L23.81-5.92L23.52-5.53Q22.58-4.20 20.82-3.32L20.82-3.32Q20.21-3.01 19.07-2.50Q17.93-1.99 17.48-1.76L17.48-1.76L16.45-0.20Q13.14 4.69 10.93 7.13Q8.71 9.57 6.83 10.66Q4.94 11.76 2.44 11.76L2.44 11.76Q1.23 11.76 0.62 10.71Q0 9.67 0 8.37Q0 7.07 0.81 5.68Q1.62 4.30 3.05 3.04Q4.47 1.78 6.04 0.65Q7.60-0.47 9.49-1.52L9.49-1.52Q12.56-3.18 15.45-4.51L15.45-4.51Q22.56-14.98 29.88-24.80L29.88-24.80Q30.04-24.96 30.04-25.04Q30.04-25.12 29.45-25.12Q28.87-25.12 26.84-24.73L26.84-24.73Q22.40-23.83 18.03-21.47Q13.65-19.12 10.53-16.08Q7.40-13.05 7.40-11.15L7.40-11.15Q7.40-10.20 8.22-9.58Q9.04-8.96 9.99-8.96Q10.94-8.96 11.94-9.44Q12.95-9.92 13.61-10.40Q14.28-10.88 14.38-10.88Q14.47-10.88 14.47-10.61L14.47-10.61Q14.47-9.18 13.72-8.15Q12.97-7.13 11.64-6.62Q10.31-6.11 9.09-6.11Q7.87-6.11 6.60-6.62Q5.33-7.13 4.44-8.20Q3.55-9.28 3.55-10.64L3.55-10.64Q3.55-11.23 3.81-12.03L3.81-12.03Q5.74-18.32 16.45-24.16L16.45-24.16Q20.12-26.15 24.66-27.37Q29.20-28.59 33.24-28.59L33.24-28.59Q33.98-28.59 34.53-28.13Q35.08-27.66 35.08-27.13Q35.08-26.60 35-26.39Q34.92-26.17 34.30-25.27Q33.67-24.38 33.03-23.54L33.03-23.54Q31.25-21.23 30-19.57Q28.75-17.91 20.68-6.41ZM12.40 0.12L12.40 0.12Q2.79 6.07 2.79 8.09L2.79 8.09Q2.79 8.52 3.47 8.52Q4.14 8.52 5.23 7.83Q6.33 7.15 7.29 6.23Q8.26 5.31 9.36 4.02L9.36 4.02Q10.94 2.15 12.40 0.12Z M40.31-14.61L40.31-14.61Q40.31-13.32 39.27-12.34Q38.22-11.37 36.89-11.37L36.89-11.37Q36.46-11.37 36.33-11.57Q36.19-11.78 36.19-12.11Q36.19-12.44 36.27-12.75L36.27-12.75Q35.57-12.52 34.71-12.03Q33.85-11.54 32.60-10.59Q31.35-9.63 31.35-9.16L31.35-9.16Q31.35-9.00 31.81-9.00Q32.27-9.00 33.22-9.33Q34.18-9.65 34.56-9.65Q34.94-9.65 35.06-9.61L35.06-9.61Q35.31-9.47 35.61-9.01Q35.90-8.55 35.90-8.29Q35.90-8.03 35.39-7.60Q34.88-7.17 34.24-6.94Q33.59-6.72 33.38-6.60L33.38-6.60Q29.26-4.30 29.26-3.44L29.26-3.44Q29.26-1.91 31.86-1.91L31.86-1.91Q33.52-1.91 35.20-2.97L35.20-2.97Q36.62-3.87 37.76-4.79Q38.91-5.72 39.21-5.94Q39.51-6.15 39.67-6.15L39.67-6.15Q40.18-6.15 40.18-5.02Q40.18-3.89 40.04-3.53Q39.90-3.16 39.26-2.64L39.26-2.64Q35.08 0.76 31.35 0.76L31.35 0.76Q29.36 0.76 28.16 0.21L28.16 0.21Q25.98-0.78 25.98-2.83L25.98-2.83Q25.98-5.53 29.71-6.91L29.71-6.91Q28.96-7.25 28.75-7.76Q28.54-8.28 28.54-9.42Q28.54-10.57 29.60-11.85Q30.66-13.13 32.21-13.95L32.21-13.95Q35.64-15.80 38.34-15.80L38.34-15.80Q38.98-15.80 39.65-15.49Q40.31-15.18 40.31-14.61Z M45.49 6.48L45.49 6.48Q45.39 6.58 44.89 7.47Q44.39 8.36 43.83 9.27Q43.26 10.18 42.43 11.00Q41.60 11.82 41.04 11.88Q40.49 11.95 40.33 11.95L40.33 11.95Q38.54 11.95 38.54 10.14L38.54 10.14Q38.54 8.01 40.74 5.16L40.74 5.16Q41.58 4.08 42.85 2.84Q44.12 1.60 44.24 1.44Q44.36 1.27 47.17-4.04L47.17-4.04Q45.29-1.99 43.69-0.71Q42.09 0.57 40.61 0.72L40.61 0.72L40.47 0.72Q39.71 0.72 38.96 0.22Q38.22-0.27 38.22-1.52L38.22-1.52Q38.22-3.38 39.22-5.12L39.22-5.12Q39.57-5.72 40.44-7.17Q41.31-8.61 42.05-9.96L42.05-9.96Q42.75-11.04 43.50-12.46Q44.24-13.89 44.63-14.50Q45.02-15.12 45.37-15.12Q45.72-15.12 46.28-14.68Q46.84-14.24 46.84-13.63Q46.84-13.03 44.28-8.38Q41.72-3.73 41.72-3.09L41.72-3.09Q41.72-2.93 41.88-2.93L41.88-2.93Q42.40-2.93 44.21-4.42Q46.02-5.92 48.20-8.26L48.20-8.26Q50.64-10.86 52.03-13.01L52.03-13.01Q52.21-13.28 52.31-13.43Q52.42-13.57 52.59-13.82Q52.75-14.06 52.86-14.20Q52.97-14.34 53.12-14.52Q53.26-14.71 53.38-14.80Q53.50-14.90 53.63-15L53.63-15Q53.85-15.20 54.11-15.20Q54.38-15.20 54.91-15.08Q55.45-14.96 55.56-14.82Q55.66-14.69 55.78-14.57L55.78-14.57Q55.98-14.36 55.98-14.17Q55.98-13.98 55.82-13.68Q55.66-13.38 54.00-10.59L54.00-10.59Q49.12-2.34 47.29 1.45L47.29 1.45Q50.25-1.05 55.64-5.96L55.64-5.96Q55.86-6.13 56.07-6.13L56.07-6.13Q56.68-6.13 56.68-4.28L56.68-4.28Q56.68-3.73 56.48-3.55L56.48-3.55Q50.64 0.94 45.49 6.48Z M61.09 6.48L61.09 6.48Q61.00 6.58 60.50 7.47Q60 8.36 59.43 9.27Q58.87 10.18 58.04 11.00Q57.21 11.82 56.65 11.88Q56.09 11.95 55.94 11.95L55.94 11.95Q54.14 11.95 54.14 10.14L54.14 10.14Q54.14 8.01 56.35 5.16L56.35 5.16Q57.19 4.08 58.46 2.84Q59.73 1.60 59.84 1.44Q59.96 1.27 62.77-4.04L62.77-4.04Q60.90-1.99 59.30-0.71Q57.70 0.57 56.21 0.72L56.21 0.72L56.07 0.72Q55.31 0.72 54.57 0.22Q53.83-0.27 53.83-1.52L53.83-1.52Q53.83-3.38 54.82-5.12L54.82-5.12Q55.18-5.72 56.04-7.17Q56.91-8.61 57.66-9.96L57.66-9.96Q58.36-11.04 59.10-12.46Q59.84-13.89 60.23-14.50Q60.63-15.12 60.98-15.12Q61.33-15.12 61.88-14.68Q62.44-14.24 62.44-13.63Q62.44-13.03 59.88-8.38Q57.32-3.73 57.32-3.09L57.32-3.09Q57.32-2.93 57.48-2.93L57.48-2.93Q58.01-2.93 59.81-4.42Q61.62-5.92 63.81-8.26L63.81-8.26Q66.25-10.86 67.64-13.01L67.64-13.01Q67.81-13.28 67.92-13.43Q68.03-13.57 68.19-13.82Q68.36-14.06 68.47-14.20Q68.57-14.34 68.72-14.52Q68.87-14.71 68.98-14.80Q69.10-14.90 69.24-15L69.24-15Q69.45-15.20 69.72-15.20Q69.98-15.20 70.52-15.08Q71.05-14.96 71.16-14.82Q71.27-14.69 71.39-14.57L71.39-14.57Q71.58-14.36 71.58-14.17Q71.58-13.98 71.43-13.68Q71.27-13.38 69.61-10.59L69.61-10.59Q64.73-2.34 62.89 1.45L62.89 1.45Q65.86-1.05 71.25-5.96L71.25-5.96Q71.46-6.13 71.68-6.13L71.68-6.13Q72.29-6.13 72.29-4.28L72.29-4.28Q72.29-3.73 72.09-3.55L72.09-3.55Q66.25 0.94 61.09 6.48Z M85.68-14.84L85.68-14.84Q87.17-14.84 87.17-13.83L87.17-13.83Q87.17-13.28 86.91-13.03Q86.66-12.77 85.83-11.34Q85-9.90 83.99-7.67Q82.99-5.43 82.70-3.85L82.70-3.85Q82.64-3.65 82.64-3.30L82.64-3.30Q82.64-2.23 83.22-2.23Q83.81-2.23 84.61-2.78Q85.41-3.34 86.04-3.97Q86.66-4.61 87.26-5.27Q87.85-5.94 87.97-6.04Q88.09-6.13 88.32-6.13L88.32-6.13Q88.69-6.13 88.77-5.57Q88.85-5 88.85-4.39Q88.85-3.79 88.73-3.55L88.73-3.55Q88.16-2.44 86.24-0.88Q84.32 0.68 82.74 0.68Q81.17 0.68 80.43-0.27Q79.69-1.23 79.69-2.39Q79.69-3.55 80.08-4.43L80.08-4.43Q78.46-2.32 76.36-0.86Q74.26 0.61 72.93 0.61Q71.60 0.61 70.76-0.20L70.76-0.20Q69.69-1.19 69.69-2.96Q69.69-4.73 70.48-6.51Q71.27-8.30 72.56-9.78Q73.85-11.25 75.39-12.46L75.39-12.46Q78.63-15 81.37-15L81.37-15Q82.42-15 83.09-14.65Q83.75-14.30 83.93-13.77L83.93-13.77Q84.39-14.47 84.72-14.66Q85.04-14.84 85.68-14.84ZM83.09-12.68L83.09-12.68Q79.75-12.68 76.17-8.96L76.17-8.96Q74.90-7.64 73.84-5.78Q72.77-3.93 72.77-3.24Q72.77-2.56 73.16-2.56L73.16-2.56Q73.71-2.56 76.21-4.72Q78.71-6.88 79.53-7.89L79.53-7.89Q80.43-9.02 83.09-12.68Z M94.28-11.88L93.46-10.64Q98.07-15.88 101.31-15.88L101.31-15.88Q102.11-15.88 102.63-15.40Q103.14-14.92 103.14-14.16Q103.14-13.40 102.06-11.61Q100.98-9.82 100.06-8.59L100.06-8.59Q99.57-7.97 98.96-7.97Q98.34-7.97 98.00-8.42Q97.66-8.87 97.66-9.47L97.66-9.47Q97.66-10.82 99.10-12.52L99.10-12.52L99.06-12.56Q98.42-12.50 95.87-10.02Q93.32-7.54 91.53-5.58Q89.75-3.61 87.66-0.80L87.66-0.80Q87.05 0.04 86.63 0.04Q86.21 0.04 85.52-0.22Q84.82-0.49 84.68-0.61Q84.53-0.72 84.53-1.00Q84.53-1.27 84.69-1.63Q84.84-1.99 85.26-2.66Q85.68-3.32 86.53-4.80Q87.38-6.29 89.18-9.30Q90.98-12.30 91.33-12.93L91.33-12.93Q92.07-14.22 92.54-14.80L92.54-14.80Q93.42-15.92 95.51-15.92L95.51-15.92Q95.98-15.92 95.98-15.33L95.98-15.33Q95.98-14.41 94.28-11.88L94.28-11.88Z M118.54-6.21L118.54-6.21L118.44-5.80Q118.44-5.68 118.54-5.59Q118.65-5.49 118.81-5.49Q118.96-5.49 119.06-5.64L119.06-5.64Q121.97-9.51 123.89-12.45Q125.80-15.39 126.69-16.78Q127.58-18.16 128.11-18.98L128.11-18.98Q129.51-21.13 130.90-22.83L130.90-22.83Q125.63-21.50 122.64-21.50Q119.65-21.50 118.34-21.88Q117.03-22.27 116.62-22.74Q116.21-23.22 116.21-23.72Q116.21-24.22 116.25-24.69L116.25-24.69Q116.33-25.66 117.43-26.29Q118.54-26.91 119.26-26.91Q119.98-26.91 119.98-26.70Q119.98-26.48 119.66-26.12Q119.34-25.76 119.34-25.63L119.34-25.63Q119.34-25 123.85-25Q128.36-25 134.22-26.19L134.22-26.19Q137.58-28.93 140.02-28.93L140.02-28.93Q141.64-28.93 142.17-28.01L142.17-28.01Q142.52-27.46 142.52-26.91Q142.52-26.37 141.88-25.82Q141.25-25.27 140.18-24.88L140.18-24.88Q138.22-24.18 135.57-23.77L135.57-23.77Q134.45-22.34 132.41-19.34Q130.37-16.33 129.63-15.27Q128.89-14.22 127.24-11.52Q125.59-8.83 124.38-6.87Q123.16-4.90 121.80-2.99L121.80-2.99Q119.00 0.96 116.82 0.96L116.82 0.96Q115.90 0.96 115.23 0.47Q114.57-0.02 114.57-1.12Q114.57-2.23 115.79-3.88Q117.01-5.53 117.58-6.00Q118.14-6.46 118.34-6.46Q118.54-6.46 118.54-6.21Z M145.45-14.61L145.45-14.61Q145.45-13.32 144.40-12.34Q143.36-11.37 142.03-11.37L142.03-11.37Q141.60-11.37 141.46-11.57Q141.33-11.78 141.33-12.11Q141.33-12.44 141.41-12.75L141.41-12.75Q140.70-12.52 139.84-12.03Q138.98-11.54 137.73-10.59Q136.48-9.63 136.48-9.16L136.48-9.16Q136.48-9.00 136.94-9.00Q137.40-9.00 138.36-9.33Q139.32-9.65 139.70-9.65Q140.08-9.65 140.20-9.61L140.20-9.61Q140.45-9.47 140.74-9.01Q141.04-8.55 141.04-8.29Q141.04-8.03 140.53-7.60Q140.02-7.17 139.38-6.94Q138.73-6.72 138.52-6.60L138.52-6.60Q134.39-4.30 134.39-3.44L134.39-3.44Q134.39-1.91 136.99-1.91L136.99-1.91Q138.65-1.91 140.33-2.97L140.33-2.97Q141.76-3.87 142.90-4.79Q144.04-5.72 144.35-5.94Q144.65-6.15 144.80-6.15L144.80-6.15Q145.31-6.15 145.31-5.02Q145.31-3.89 145.18-3.53Q145.04-3.16 144.39-2.64L144.39-2.64Q140.21 0.76 136.48 0.76L136.48 0.76Q134.49 0.76 133.30 0.21L133.30 0.21Q131.11-0.78 131.11-2.83L131.11-2.83Q131.11-5.53 134.84-6.91L134.84-6.91Q134.10-7.25 133.89-7.76Q133.67-8.28 133.67-9.42Q133.67-10.57 134.74-11.85Q135.80-13.13 137.34-13.95L137.34-13.95Q140.78-15.80 143.48-15.80L143.48-15.80Q144.12-15.80 144.79-15.49Q145.45-15.18 145.45-14.61Z M157.41-4.34Q158.42-4.98 158.71-5.22Q159.00-5.47 159.39-5.80Q159.79-6.13 160.04-6.13L160.04-6.13Q160.43-6.13 160.43-5.24Q160.43-4.36 159.56-3.33Q158.69-2.30 157.40-1.59Q156.11-0.88 154.65-0.35L154.65-0.35Q151.74 0.72 149.70 0.72Q147.66 0.72 146.02-0.62Q144.38-1.95 144.38-4.11Q144.38-6.27 145.45-8.43Q146.52-10.59 148.21-12.22Q149.90-13.85 152.14-14.86Q154.38-15.88 156.56-15.88L156.56-15.88Q157.62-15.88 158.46-15.27Q159.30-14.67 159.30-13.61Q159.30-12.56 158.25-11.08Q157.21-9.61 156.13-9.61L156.13-9.61Q154.88-9.61 154.88-10.80L154.88-10.80Q154.88-11.11 155.47-11.91Q156.05-12.71 156.05-13.00Q156.05-13.28 155.84-13.28L155.84-13.28Q154.77-13.28 153.54-12.54Q152.30-11.80 151.30-10.98Q150.29-10.16 149.39-9.14L149.39-9.14Q147.44-6.93 147.44-4.55L147.44-4.55Q147.44-3.59 148.06-2.90Q148.67-2.21 150.13-2.21Q151.58-2.21 153.05-2.55Q154.51-2.89 155.46-3.29Q156.41-3.69 157.41-4.34Z M176.48-5.76L176.48-5.76Q176.62-4.86 176.62-4.35Q176.62-3.83 176.44-3.45Q176.25-3.07 175.62-2.37Q174.98-1.68 174.10-0.98L174.10-0.98Q171.95 0.72 169.71 0.72L169.71 0.72Q166.48 0.72 166.48-2.13L166.48-2.13Q166.48-4.61 170.80-12.01L170.80-12.01Q170.96-12.29 171.02-12.40L171.02-12.40Q169.51-11.35 165.26-6.65Q161.02-1.95 159.61 0L159.61 0Q159.49 0.18 159.02 0.39Q158.55 0.61 158.29 0.61Q158.03 0.61 157.72 0.44Q157.42 0.27 157.34 0.27L157.34 0.27Q157.09 0.27 157.09 0.11Q157.09-0.06 157.78-1.69Q158.48-3.32 159.61-5.74L159.61-5.74Q162.71-12.42 168.85-23.13L168.85-23.13Q171.00-26.88 172.21-28.44L172.21-28.44Q173.07-29.55 175.10-29.55L175.10-29.55Q175.53-29.55 175.59-29.30Q175.64-29.04 175.64-28.75Q175.64-28.46 175.53-28.16L175.53-28.16L173.44-24.90Q167.23-15.21 164.08-8.85L164.08-8.85Q167.13-12.56 170-14.57L170-14.57Q171.78-15.84 172.67-15.84Q173.55-15.84 174.28-15.56Q175-15.27 175-14.20L175-14.20Q175-13.81 173.73-11.31L173.73-11.31Q169.92-3.81 169.92-2.98Q169.92-2.15 170.61-2.15L170.61-2.15Q171.60-2.15 173.67-4.08L173.67-4.08Q175.23-5.55 175.64-5.96L175.64-5.96Q175.88-6.13 176.07-6.13L176.07-6.13Q176.45-6.13 176.48-5.76Z M185.21-3.01L185.21-3.01Q185.21-2.15 186.39-2.15L186.39-2.15Q187.01-2.15 187.96-2.77Q188.91-3.40 189.67-4.14L189.67-4.14Q191.70-6.15 191.97-6.15L191.97-6.15Q192.48-6.15 192.48-4.69Q192.48-3.22 191.56-2.68L191.56-2.68Q188.77-0.16 187.25 0.39L187.25 0.39Q186.39 0.68 185.35 0.66Q184.32 0.64 183.30-0.23Q182.29-1.11 182.29-2.37Q182.29-3.63 182.95-5.23Q183.61-6.84 184.31-7.98Q185-9.12 186.02-10.63Q187.03-12.15 187.09-12.52L187.09-12.52L187.05-12.56Q186.41-12.50 183.86-10.02Q181.31-7.54 179.65-5.70Q177.99-3.87 175.68-0.80L175.68-0.80Q175.04 0.04 174.63 0.04Q174.22 0.04 173.53-0.22Q172.83-0.49 172.68-0.61Q172.52-0.72 172.52-0.96Q172.52-1.19 172.66-1.53Q172.79-1.88 172.92-2.10Q173.05-2.32 173.34-2.79Q173.63-3.26 174.50-4.78Q175.37-6.29 177.17-9.30Q178.96-12.30 179.32-12.93L179.32-12.93Q180.06-14.22 180.53-14.80L180.53-14.80Q181.41-15.92 183.50-15.92L183.50-15.92Q183.96-15.92 183.96-15.33L183.96-15.33Q183.96-14.41 182.27-11.88L182.27-11.88L181.45-10.64Q184.82-14.39 187.15-15.39L187.15-15.39Q188.28-15.88 189.19-15.88Q190.10-15.88 190.63-15.39Q191.17-14.90 191.17-14.31Q191.17-13.71 190.76-12.88Q190.35-12.05 189.93-11.40Q189.51-10.74 188.83-9.75Q188.14-8.75 188.09-8.66Q188.03-8.57 187.78-8.19Q187.54-7.81 187.42-7.64Q187.30-7.46 187.03-7.02Q186.76-6.58 186.59-6.29Q186.43-6.00 186.18-5.57Q185.94-5.14 185.79-4.82Q185.64-4.51 185.49-4.14L185.49-4.14Q185.21-3.46 185.21-3.01Z M203.91-14.88Q204.49-14.88 205.11-14.36Q205.72-13.83 205.72-12.74Q205.72-11.66 204.96-9.93Q204.20-8.20 202.87-6.42Q201.54-4.63 199.95-3.06Q198.36-1.48 196.51-0.48Q194.67 0.53 193.16 0.53Q191.66 0.53 190.75-0.42Q189.84-1.37 189.84-3.06Q189.84-4.75 190.67-6.80Q191.50-8.85 192.81-10.42Q194.12-11.99 195.64-13.24L195.64-13.24Q198.83-15.80 201.23-15.80L201.23-15.80Q202.30-15.80 202.85-15.27L202.85-15.27Q203.05-15.10 203.05-14.96L203.05-14.96L203.05-14.84Q203.32-14.88 203.91-14.88ZM201.93-12.29L201.93-12.29L201.80-12.29Q201.11-12.29 201.11-13.28L201.11-13.28Q199.69-12.81 198.13-11.64Q196.56-10.47 195.33-8.87L195.33-8.87Q192.83-5.66 192.79-3.46L192.79-3.46Q192.79-2.36 193.59-2.36Q194.39-2.36 195.98-3.42Q197.56-4.47 199.11-6.43Q200.66-8.38 201.44-9.81Q202.21-11.25 202.21-11.77Q202.21-12.29 201.93-12.29Z M221.48-29.32Q222.42-29.32 223.13-28.76Q223.85-28.20 223.85-27.11Q223.85-26.02 222.64-23.68Q221.43-21.35 219.73-18.92Q218.03-16.48 215.88-13.75L215.88-13.75Q212.48-9.41 209.36-5.96L209.36-5.96Q209.34-5.72 209.19-5.09Q209.04-4.45 209.04-3.81Q209.04-3.16 209.64-2.65Q210.23-2.13 211.11-2.13Q211.99-2.13 213.00-2.75Q214.00-3.38 214.75-4.14L214.75-4.14Q216.70-6.15 217.17-6.15Q217.64-6.15 217.64-4.73L217.64-4.73L217.64-4.34Q217.64-3.57 217.36-3.22L217.36-3.22Q215.72-1.21 213.67-0.22Q211.62 0.76 209.79 0.76Q207.95 0.76 206.99-0.36Q206.04-1.48 206.04-3.44L206.04-3.44Q206.04-7.25 208.08-12.39Q210.12-17.54 212.68-21.15L212.68-21.15Q218.44-29.32 221.48-29.32L221.48-29.32ZM220.61-26.07L220.61-26.07Q220.61-26.37 220.41-26.37L220.41-26.37Q219.73-26.37 216.82-22.46Q213.91-18.55 212.61-16.23Q211.31-13.91 210.16-10.39L210.16-10.39Q212.46-13.13 216.53-18.92Q220.61-24.71 220.61-26.07Z M228.87-14.88Q229.45-14.88 230.07-14.36Q230.68-13.83 230.68-12.74Q230.68-11.66 229.92-9.93Q229.16-8.20 227.83-6.42Q226.50-4.63 224.91-3.06Q223.32-1.48 221.47-0.48Q219.63 0.53 218.13 0.53Q216.62 0.53 215.71-0.42Q214.80-1.37 214.80-3.06Q214.80-4.75 215.63-6.80Q216.46-8.85 217.77-10.42Q219.08-11.99 220.61-13.24L220.61-13.24Q223.79-15.80 226.19-15.80L226.19-15.80Q227.27-15.80 227.81-15.27L227.81-15.27Q228.01-15.10 228.01-14.96L228.01-14.96L228.01-14.84Q228.28-14.88 228.87-14.88ZM226.89-12.29L226.89-12.29L226.76-12.29Q226.07-12.29 226.07-13.28L226.07-13.28Q224.65-12.81 223.09-11.64Q221.52-10.47 220.29-8.87L220.29-8.87Q217.79-5.66 217.75-3.46L217.75-3.46Q217.75-2.36 218.55-2.36Q219.36-2.36 220.94-3.42Q222.52-4.47 224.07-6.43Q225.63-8.38 226.40-9.81Q227.17-11.25 227.17-11.77Q227.17-12.29 226.89-12.29Z M236.34-12.98Q238.22-14.28 240.04-14.98Q241.86-15.68 243.18-15.68Q244.51-15.68 244.88-14.92L244.88-14.92Q245.64-15.80 246.78-15.86L246.78-15.86Q247.11-15.88 247.60-15.88Q248.09-15.88 248.20-15.75Q248.32-15.63 248.42-15.27Q248.52-14.92 248.54-14.88Q248.55-14.84 248.55-14.76Q248.55-14.67 248.46-14.54Q248.36-14.41 248.23-14.30Q248.11-14.18 248.09-14.16L248.09-14.16Q243.77-7.97 239.26-0.04L239.26-0.04Q243.91-4.16 247.58-5.96L247.58-5.96Q247.81-6.07 248.03-6.07L248.03-6.07Q248.34-6.07 248.44-5.67Q248.54-5.27 248.54-4.53Q248.54-3.79 248.45-3.61Q248.36-3.44 247.54-2.91Q246.72-2.38 245.41-1.54Q244.10-0.70 242.64 0.31L242.64 0.31Q239.12 2.75 236.86 5.45L236.86 5.45Q233.93 8.98 232.66 11.15L232.66 11.15Q232.19 11.99 231.07 11.99L231.07 11.99Q228.87 11.99 228.87 9.90L228.87 9.90Q228.87 7.77 230.96 5.55L230.96 5.55Q232.52 3.89 233.83 2.83Q235.14 1.78 235.25 1.64L235.25 1.64Q236.70-0.53 239.18-4.51L239.18-4.51Q237.07-2.30 235.09-1.00Q233.11 0.31 232.13 0.31L232.13 0.31Q229.14 0.31 229.14-2.25L229.14-2.25Q229.14-4.28 230.18-6.35Q231.21-8.42 232.83-10.05Q234.45-11.68 236.34-12.98ZM243.77-13.48L243.77-13.48Q241.50-12.99 239.51-11.87Q237.52-10.74 236.23-9.46Q234.94-8.18 234.00-6.84L234.00-6.84Q232.25-4.32 232.25-2.93L232.25-2.93Q232.25-2.60 232.41-2.60Q232.58-2.60 233.15-2.95Q233.73-3.30 234.79-4.15Q235.84-5 237.13-6.17L237.13-6.17Q240.12-8.93 243.77-13.48Z M259.71-21.45L259.71-21.45Q259.71-20.33 258.67-19.21Q257.64-18.09 256.51-18.09Q255.39-18.09 255.39-19.26Q255.39-20.43 256.38-21.49Q257.36-22.56 258.55-22.56L258.55-22.56Q259.08-22.56 259.39-22.27Q259.71-21.97 259.71-21.45ZM256.54-4.39L256.54-4.39Q256.54-3.81 256.43-3.55L256.43-3.55Q255.47-1.60 253.38-0.40Q251.29 0.80 249.75 0.80Q248.20 0.80 247.09-0.23Q245.98-1.27 245.98-2.34Q245.98-3.42 247.05-5.47Q248.13-7.52 249.20-9.26Q250.27-11.00 250.27-11.14Q250.27-11.29 249.87-11.72Q249.47-12.15 249.47-12.35Q249.47-12.56 250.28-13.43Q251.09-14.30 252.26-15.15Q253.42-16.00 254.03-16.00Q254.65-16.00 255.14-15.45Q255.63-14.90 255.63-14.45Q255.63-14.00 250.98-6.00L250.98-6.00Q250.92-5.88 250.65-5.48Q250.39-5.08 250.24-4.81Q250.10-4.55 249.90-4.18L249.90-4.18Q249.51-3.40 249.51-2.87L249.51-2.87Q249.51-2.21 250.41-2.21Q251.31-2.21 252.28-2.82Q253.24-3.44 253.95-4.18L253.95-4.18Q255.78-6.15 256.04-6.15L256.04-6.15Q256.54-6.15 256.54-4.39Z M268.54-14.61L268.54-14.61Q268.54-13.32 267.49-12.34Q266.45-11.37 265.12-11.37L265.12-11.37Q264.69-11.37 264.55-11.57Q264.41-11.78 264.41-12.11Q264.41-12.44 264.49-12.75L264.49-12.75Q263.79-12.52 262.93-12.03Q262.07-11.54 260.82-10.59Q259.57-9.63 259.57-9.16L259.57-9.16Q259.57-9.00 260.03-9.00Q260.49-9.00 261.45-9.33Q262.40-9.65 262.78-9.65Q263.16-9.65 263.28-9.61L263.28-9.61Q263.54-9.47 263.83-9.01Q264.12-8.55 264.12-8.29Q264.12-8.03 263.61-7.60Q263.11-7.17 262.46-6.94Q261.82-6.72 261.60-6.60L261.60-6.60Q257.48-4.30 257.48-3.44L257.48-3.44Q257.48-1.91 260.08-1.91L260.08-1.91Q261.74-1.91 263.42-2.97L263.42-2.97Q264.84-3.87 265.99-4.79Q267.13-5.72 267.43-5.94Q267.73-6.15 267.89-6.15L267.89-6.15Q268.40-6.15 268.40-5.02Q268.40-3.89 268.26-3.53Q268.13-3.16 267.48-2.64L267.48-2.64Q263.30 0.76 259.57 0.76L259.57 0.76Q257.58 0.76 256.39 0.21L256.39 0.21Q254.20-0.78 254.20-2.83L254.20-2.83Q254.20-5.53 257.93-6.91L257.93-6.91Q257.19-7.25 256.97-7.76Q256.76-8.28 256.76-9.42Q256.76-10.57 257.82-11.85Q258.89-13.13 260.43-13.95L260.43-13.95Q263.87-15.80 266.56-15.80L266.56-15.80Q267.21-15.80 267.87-15.49Q268.54-15.18 268.54-14.61Z M269.94-3.91L269.94-3.91L269.92-3.59Q269.92-3.11 270.29-2.75Q270.66-2.40 270.98-2.40L270.98-2.40Q273.32-2.40 275.13-3.11Q276.93-3.81 276.93-4.51L276.93-4.51Q276.93-4.84 276.28-5.09Q275.63-5.33 274.07-5.69Q272.52-6.05 271.82-6.26Q271.11-6.46 270.70-6.64Q270.29-6.82 269.86-7.13L269.86-7.13Q268.95-7.77 268.95-9.05Q268.95-10.33 269.89-11.59Q270.84-12.85 272.27-13.75Q273.69-14.65 275.33-15.33L275.33-15.33Q278.57-16.68 280.78-16.68L280.78-16.68Q282.95-16.68 283.46-15.74L283.46-15.74Q283.61-15.41 283.61-15L283.61-15L283.61-14.86Q283.61-13.83 283.17-13.24Q282.73-12.66 281.79-12.19Q280.84-11.72 280.28-11.72Q279.73-11.72 279.58-11.80Q279.43-11.88 279.34-12.00Q279.24-12.13 279.09-12.19Q278.95-12.25 278.95-12.48Q278.95-12.71 279.14-12.96Q279.34-13.20 279.41-13.48L279.41-13.48Q278.13-13.42 276.72-12.88Q275.31-12.34 274.31-11.68Q273.30-11.02 272.64-10.41Q271.97-9.80 271.97-9.52Q271.97-9.24 272.87-9.06L272.87-9.06Q276.91-8.26 278.18-7.68Q279.45-7.09 279.94-6.35Q280.43-5.61 280.43-5L280.43-5Q280.43-3.75 279.43-2.64Q278.44-1.52 276.97-0.82L276.97-0.82Q273.83 0.72 271.49 0.72Q269.16 0.72 268.27 0.01Q267.38-0.70 267.38-1.68Q267.38-2.66 267.88-3.49Q268.38-4.32 269.16-4.32Q269.94-4.32 269.94-3.91Z"/></g>
</svg>
</g><g opacity="1" transform="rotate(0 73.8596 -85.9132)">
<svg width="117.2414" height="200" x="73.8596" y="-85.9132" version="1.1" preserveAspectRatio="none" viewBox="57.5 27.499998092651367 85.00001525878906 145">
  <g transform="matrix(1 0 0 1 0 0)" ><g><path d="M142.5 120.1h-85v-19.8c0-6.7 3.4-13.1 9-16.8l5.1-3.4V62c0-14.6 11.9-26.5 26.6-26.5h3.5c14.7 0 26.6 11.9 26.6 26.5v18.1l5.1 3.4c5.6 3.7 9 10 9 16.8l.1 19.8zm-81-4h76.9v-15.8c0-5.4-2.7-10.4-7.2-13.4l-6.9-4.6V62c0-12.4-10.1-22.4-22.6-22.4h-3.5c-12.4 0-22.5 10.1-22.6 22.4v20.3l-6.9 4.6c-4.5 3-7.2 8-7.2 13.4v15.8z" data-color="1" class="icon1"></path><path d="M110.1 37.6h-4c0-3.3-2.7-6-6.1-6-3.4 0-6.1 2.7-6.1 6h-4c0-5.6 4.5-10.1 10.1-10.1s10.1 4.5 10.1 10.1z" data-color="1" class="icon1"></path><path d="M100 141.2c-6.1 0-11-4.9-11-11h4c0 3.8 3 7 6.9 7 3.8 0 7-3 7.1-6.9v-.2h4c0 6.2-4.9 11.1-11 11.1z" data-color="1" class="icon1"></path><path d="M100 172.5c-23.5 0-42.5-18.9-42.5-42.3h4c0 21.1 17.2 38.3 38.5 38.3s38.5-17.1 38.5-38.3h4c0 23.4-19 42.3-42.5 42.3z" data-color="1" class="icon1"></path><path d="M100 156.8c-14.8 0-26.7-11.9-26.8-26.6h4c-.1 12.5 10 22.7 22.6 22.8s22.8-10 22.9-22.5v-.3h4c0 14.7-11.9 26.6-26.7 26.6z" data-color="1" class="icon1"></path></g></g>
</svg>
</g></svg></svg>