<svg version="1.1" preserveAspectRatio="none" xmlns="http://www.w3.org/2000/svg" width="500" height="500" viewBox="0 0 500 500"><rect width="100%" height="100%" fill="#121212" fill-opacity="1"/><svg viewBox="-65.6989 -43.7151 464.8395 324.4893" width="333" height="232.45644335302833" x="83.5px" y="133.7718px" xmlns="http://www.w3.org/2000/svg" xmlns:xlink="http://www.w3.org/1999/xlink" preserveAspectRatio="none"><defs></defs><style>.companyName {fill:#E3E3E3;fill-opacity:1;}.icon1 {fill:#F1EC40;fill-opacity:1;}.icon2 {fill:#555555;fill-opacity:1;}.icon3 {fill:#AAAAAA;fill-opacity:1;}.icon3-str {stroke:#AAAAAA;stroke-opacity:1;}.text {fill:#E3E3E3;fill-opacity:1;}</style><g opacity="1" transform="rotate(0 14.6303 262.7742)">
<svg width="304.1811" height="18" x="14.6303" y="262.7742" version="1.1" preserveAspectRatio="none" viewBox="3.24 -28 612.4 36.239999999999995">
  <g transform="matrix(1 0 0 1 0 0)" class="text"><path id="id-6izo4zJp26" d="M22.72-23.60L6.24-23.60L6.24-14.72L20.96-14.72L20.96-11.80L6.24-11.80L6.24-2.88L22.72-2.88L22.72 0L3.24 0L3.24-26.48L22.72-26.48L22.72-23.60Z M46.92-20L39.68-10.32L47.44 0L43.60 0L37.96-8.16L32.28 0L28.48 0L36.20-10.32L28.96-20L32.80-20L37.96-12.44L43.08-20L46.92-20Z M57.20-20L57.20-16.80Q59.60-20.32 64.36-20.32L64.36-20.32Q68.68-20.32 71.36-17.32L71.36-17.32Q74.04-14.36 74.04-10L74.04-10Q74.04-5.64 71.36-2.68L71.36-2.68Q68.68 0.32 64.16 0.32Q59.64 0.32 57.20-3.24L57.20-3.24L57.20 7.92L54.20 7.92L54.20-20L57.20-20ZM63.96-17.60L63.96-17.60Q60.72-17.60 58.84-15.36L58.84-15.36Q57.04-13.24 57.04-10L57.04-10Q57.04-6.76 58.84-4.64L58.84-4.64Q60.72-2.40 63.96-2.40L63.96-2.40Q67.16-2.40 69.16-4.64L69.16-4.64Q71.04-6.76 71.04-10L71.04-10Q71.04-13.24 69.16-15.36L69.16-15.36Q67.16-17.60 63.96-17.60Z M97.56 0L97.56-3.20Q95.16 0.32 90.40 0.32L90.40 0.32Q86.08 0.32 83.36-2.68L83.36-2.68Q80.72-5.64 80.72-10L80.72-10Q80.72-14.36 83.36-17.32L83.36-17.32Q86.08-20.32 90.60-20.32Q95.12-20.32 97.56-16.76L97.56-16.76L97.56-20L100.56-20L100.56 0L97.56 0ZM90.80-2.40L90.80-2.40Q94.04-2.40 95.92-4.64L95.92-4.64Q97.72-6.76 97.72-10L97.72-10Q97.72-13.24 95.92-15.36L95.92-15.36Q94.04-17.60 90.80-17.60L90.80-17.60Q87.60-17.60 85.60-15.36L85.60-15.36Q83.72-13.24 83.72-10L83.72-10Q83.72-6.76 85.60-4.64L85.60-4.64Q87.60-2.40 90.80-2.40Z M109.76-20L112.76-20L112.76-16.88Q113.84-18.32 115.40-19.32Q116.96-20.32 118.96-20.32Q120.96-20.32 122.40-19.76Q123.84-19.20 124.92-18.08L124.92-18.08Q127.40-15.64 127.40-11.64L127.40-11.64L127.40 0L124.40 0L124.40-11.56Q124.40-14.32 122.84-15.96Q121.28-17.60 118.80-17.60L118.80-17.60Q116.28-17.60 114.52-15.92L114.52-15.92Q112.76-14.20 112.76-11.52L112.76-11.52L112.76 0L109.76 0L109.76-20Z M152 0L152-3.20Q149.60 0.32 144.84 0.32L144.84 0.32Q140.52 0.32 137.80-2.68L137.80-2.68Q135.16-5.64 135.16-10L135.16-10Q135.16-14.36 137.80-17.32L137.80-17.32Q140.52-20.32 145.04-20.32Q149.56-20.32 152-16.76L152-16.76L152-28L155-28L155 0L152 0ZM145.24-2.40L145.24-2.40Q148.48-2.40 150.36-4.64L150.36-4.64Q152.16-6.76 152.16-10L152.16-10Q152.16-13.24 150.36-15.36L150.36-15.36Q148.48-17.60 145.24-17.60L145.24-17.60Q142.04-17.60 140.04-15.36L140.04-15.36Q138.16-13.24 138.16-10L138.16-10Q138.16-6.76 140.04-4.64L140.04-4.64Q142.04-2.40 145.24-2.40Z M164.20 0L164.20-20L167.20-20L167.20 0L164.20 0ZM164.08-27.28L167.32-27.28L167.32-23.36L164.08-23.36L164.08-27.28Z M176.40-20L179.40-20L179.40-16.88Q180.48-18.32 182.04-19.32Q183.60-20.32 185.60-20.32Q187.60-20.32 189.04-19.76Q190.48-19.20 191.56-18.08L191.56-18.08Q194.04-15.64 194.04-11.64L194.04-11.64L194.04 0L191.04 0L191.04-11.56Q191.04-14.32 189.48-15.96Q187.92-17.60 185.44-17.60L185.44-17.60Q182.92-17.60 181.16-15.92L181.16-15.92Q179.40-14.20 179.40-11.52L179.40-11.52L179.40 0L176.40 0L176.40-20Z M218.64-16.80L218.64-16.80L218.64-20L221.64-20L221.64-0.60Q221.64 3.72 219.18 5.98Q216.72 8.24 212.56 8.24Q208.40 8.24 206.06 6.64Q203.72 5.04 202.88 2.40L202.88 2.40L206.20 2.40Q207.48 5.52 212.04 5.52L212.04 5.52Q215.52 5.52 217.08 3.92Q218.64 2.32 218.64-0.80L218.64-0.80L218.64-3.56Q216.20 0 211.48 0L211.48 0Q207.16 0 204.44-2.96L204.44-2.96Q201.80-5.84 201.80-10.16L201.80-10.16Q201.80-14.48 204.44-17.36L204.44-17.36Q207.16-20.32 211.70-20.32Q216.24-20.32 218.64-16.80ZM211.88-2.72L211.88-2.72Q213.52-2.72 214.80-3.30Q216.08-3.88 217-4.88L217-4.88Q218.80-6.96 218.80-10.16L218.80-10.16Q218.80-13.36 217-15.44L217-15.44Q215.04-17.60 211.88-17.60L211.88-17.60Q208.64-17.60 206.68-15.44L206.68-15.44Q204.80-13.32 204.80-10.16L204.80-10.16Q204.80-7 206.68-4.88L206.68-4.88Q208.64-2.72 211.88-2.72Z M262.80-26.48L262.80-23.60L253.56-23.60L253.56 0L250.56 0L250.56-23.60L241.32-23.60L241.32-26.48L262.80-26.48Z M274.96-2.40L274.96-2.40Q279-2.40 280.76-5.76L280.76-5.76L284.04-5.76Q283-3.04 280.74-1.36Q278.48 0.32 274.92 0.32L274.92 0.32Q270.40 0.32 267.56-2.68L267.56-2.68Q264.80-5.60 264.80-10L264.80-10Q264.80-14.44 267.44-17.32L267.44-17.32Q270.24-20.32 274.72-20.32L274.72-20.32Q279.20-20.32 282-17.32L282-17.32Q284.64-14.44 284.64-10L284.64-10L284.64-8.80L267.88-8.80Q268.20-6.04 270.08-4.24L270.08-4.24Q272-2.40 274.96-2.40ZM274.72-17.60L274.72-17.60Q271.96-17.60 270.08-15.88L270.08-15.88Q268.32-14.24 267.92-11.60L267.92-11.60L281.52-11.60Q281.12-14.24 279.36-15.88L279.36-15.88Q277.48-17.60 274.72-17.60Z M301.56-2.40L301.56-2.40Q303.48-2.40 304.96-3.48Q306.44-4.56 307.12-6.28L307.12-6.28L310.36-6.28Q309.44-3.32 307-1.52L307-1.52Q304.44 0.32 300.92 0.32L300.92 0.32Q296.52 0.32 293.76-2.68L293.76-2.68Q291.08-5.60 291.08-10L291.08-10Q291.08-14.40 293.76-17.32L293.76-17.32Q296.52-20.32 300.92-20.32L300.92-20.32Q304.44-20.32 307-18.48L307-18.48Q309.44-16.68 310.36-13.72L310.36-13.72L307.12-13.72Q306.44-15.44 304.96-16.52Q303.48-17.60 301.56-17.60Q299.64-17.60 298.30-17Q296.96-16.40 296.04-15.36L296.04-15.36Q294.08-13.20 294.08-10L294.08-10Q294.08-6.80 296.04-4.64L296.04-4.64Q298.04-2.40 301.56-2.40Z M318.08-28L321.08-28L321.08-16.88Q322.16-18.32 323.72-19.32Q325.28-20.32 327.28-20.32Q329.28-20.32 330.72-19.76Q332.16-19.20 333.24-18.08L333.24-18.08Q335.72-15.64 335.72-11.64L335.72-11.64L335.72 0L332.72 0L332.72-11.56Q332.72-14.32 331.16-15.96Q329.60-17.60 327.12-17.60L327.12-17.60Q324.60-17.60 322.84-15.92L322.84-15.92Q321.08-14.20 321.08-11.52L321.08-11.52L321.08 0L318.08 0L318.08-28Z M344.72-20L347.72-20L347.72-16.88Q348.80-18.32 350.36-19.32Q351.92-20.32 353.92-20.32Q355.92-20.32 357.36-19.76Q358.80-19.20 359.88-18.08L359.88-18.08Q362.36-15.64 362.36-11.64L362.36-11.64L362.36 0L359.36 0L359.36-11.56Q359.36-14.32 357.80-15.96Q356.24-17.60 353.76-17.60L353.76-17.60Q351.24-17.60 349.48-15.92L349.48-15.92Q347.72-14.20 347.72-11.52L347.72-11.52L347.72 0L344.72 0L344.72-20Z M380.04-20.32L380.04-20.32Q384.52-20.32 387.32-17.32L387.32-17.32Q389.96-14.44 389.96-10L389.96-10Q389.96-5.56 387.32-2.68L387.32-2.68Q384.52 0.32 380.04 0.32L380.04 0.32Q375.56 0.32 372.76-2.68L372.76-2.68Q370.12-5.56 370.12-10L370.12-10Q370.12-14.44 372.76-17.32L372.76-17.32Q375.56-20.32 380.04-20.32ZM380.04-2.40L380.04-2.40Q383.28-2.40 385.16-4.64L385.16-4.64Q386.96-6.76 386.96-10L386.96-10Q386.96-13.24 385.16-15.36L385.16-15.36Q383.28-17.60 380.04-17.60L380.04-17.60Q376.80-17.60 374.92-15.36L374.92-15.36Q373.12-13.24 373.12-10L373.12-10Q373.12-6.76 374.92-4.64L374.92-4.64Q376.80-2.40 380.04-2.40Z M400.92-28L400.92 0L397.92 0L397.92-28L400.92-28Z M418.80-20.32L418.80-20.32Q423.28-20.32 426.08-17.32L426.08-17.32Q428.72-14.44 428.72-10L428.72-10Q428.72-5.56 426.08-2.68L426.08-2.68Q423.28 0.32 418.80 0.32L418.80 0.32Q414.32 0.32 411.52-2.68L411.52-2.68Q408.88-5.56 408.88-10L408.88-10Q408.88-14.44 411.52-17.32L411.52-17.32Q414.32-20.32 418.80-20.32ZM418.80-2.40L418.80-2.40Q422.04-2.40 423.92-4.64L423.92-4.64Q425.72-6.76 425.72-10L425.72-10Q425.72-13.24 423.92-15.36L423.92-15.36Q422.04-17.60 418.80-17.60L418.80-17.60Q415.56-17.60 413.68-15.36L413.68-15.36Q411.88-13.24 411.88-10L411.88-10Q411.88-6.76 413.68-4.64L413.68-4.64Q415.56-2.40 418.80-2.40Z M452.28-16.80L452.28-16.80L452.28-20L455.28-20L455.28-0.60Q455.28 3.72 452.82 5.98Q450.36 8.24 446.20 8.24Q442.04 8.24 439.70 6.64Q437.36 5.04 436.52 2.40L436.52 2.40L439.84 2.40Q441.12 5.52 445.68 5.52L445.68 5.52Q449.16 5.52 450.72 3.92Q452.28 2.32 452.28-0.80L452.28-0.80L452.28-3.56Q449.84 0 445.12 0L445.12 0Q440.80 0 438.08-2.96L438.08-2.96Q435.44-5.84 435.44-10.16L435.44-10.16Q435.44-14.48 438.08-17.36L438.08-17.36Q440.80-20.32 445.34-20.32Q449.88-20.32 452.28-16.80ZM445.52-2.72L445.52-2.72Q447.16-2.72 448.44-3.30Q449.72-3.88 450.64-4.88L450.64-4.88Q452.44-6.96 452.44-10.16L452.44-10.16Q452.44-13.36 450.64-15.44L450.64-15.44Q448.68-17.60 445.52-17.60L445.52-17.60Q442.28-17.60 440.32-15.44L440.32-15.44Q438.44-13.32 438.44-10.16L438.44-10.16Q438.44-7 440.32-4.88L440.32-4.88Q442.28-2.72 445.52-2.72Z M481.64-20L469.80 7.92L466.56 7.92L470.20-0.28L462.04-20L465.36-20L471.80-3.60L478.36-20L481.64-20Z M511.24-20.32L511.44-20.32L511.44-17.32L511.08-17.32Q507.84-17.32 505.80-14.72L505.80-14.72Q503.88-12.24 503.88-8.80L503.88-8.80L503.88 0L500.88 0L500.88-20L503.88-20L503.88-15.08Q504.84-18.20 508.04-19.68L508.04-19.68Q509.36-20.32 511.24-20.32L511.24-20.32Z M527.08-2.40L527.08-2.40Q531.12-2.40 532.88-5.76L532.88-5.76L536.16-5.76Q535.12-3.04 532.86-1.36Q530.60 0.32 527.04 0.32L527.04 0.32Q522.52 0.32 519.68-2.68L519.68-2.68Q516.92-5.60 516.92-10L516.92-10Q516.92-14.44 519.56-17.32L519.56-17.32Q522.36-20.32 526.84-20.32L526.84-20.32Q531.32-20.32 534.12-17.32L534.12-17.32Q536.76-14.44 536.76-10L536.76-10L536.76-8.80L520-8.80Q520.32-6.04 522.20-4.24L522.20-4.24Q524.12-2.40 527.08-2.40ZM526.84-17.60L526.84-17.60Q524.08-17.60 522.20-15.88L522.20-15.88Q520.44-14.24 520.04-11.60L520.04-11.60L533.64-11.60Q533.24-14.24 531.48-15.88L531.48-15.88Q529.60-17.60 526.84-17.60Z M560.04 0L560.04-3.20Q557.64 0.32 552.88 0.32L552.88 0.32Q548.56 0.32 545.84-2.68L545.84-2.68Q543.20-5.64 543.20-10L543.20-10Q543.20-14.36 545.84-17.32L545.84-17.32Q548.56-20.32 553.08-20.32Q557.60-20.32 560.04-16.76L560.04-16.76L560.04-20L563.04-20L563.04 0L560.04 0ZM553.28-2.40L553.28-2.40Q556.52-2.40 558.40-4.64L558.40-4.64Q560.20-6.76 560.20-10L560.20-10Q560.20-13.24 558.40-15.36L558.40-15.36Q556.52-17.60 553.28-17.60L553.28-17.60Q550.08-17.60 548.08-15.36L548.08-15.36Q546.20-13.24 546.20-10L546.20-10Q546.20-6.76 548.08-4.64L548.08-4.64Q550.08-2.40 553.28-2.40Z M581.48-2.40L581.48-2.40Q583.40-2.40 584.88-3.48Q586.36-4.56 587.04-6.28L587.04-6.28L590.28-6.28Q589.36-3.32 586.92-1.52L586.92-1.52Q584.36 0.32 580.84 0.32L580.84 0.32Q576.44 0.32 573.68-2.68L573.68-2.68Q571.00-5.60 571.00-10L571.00-10Q571.00-14.40 573.68-17.32L573.68-17.32Q576.44-20.32 580.84-20.32L580.84-20.32Q584.36-20.32 586.92-18.48L586.92-18.48Q589.36-16.68 590.28-13.72L590.28-13.72L587.04-13.72Q586.36-15.44 584.88-16.52Q583.40-17.60 581.48-17.60Q579.56-17.60 578.22-17Q576.88-16.40 575.96-15.36L575.96-15.36Q574.00-13.20 574.00-10L574.00-10Q574.00-6.80 575.96-4.64L575.96-4.64Q577.96-2.40 581.48-2.40Z M598.00-28L601.00-28L601.00-16.88Q602.08-18.32 603.64-19.32Q605.20-20.32 607.20-20.32Q609.20-20.32 610.64-19.76Q612.08-19.20 613.16-18.08L613.16-18.08Q615.64-15.64 615.64-11.64L615.64-11.64L615.64 0L612.64 0L612.64-11.56Q612.64-14.32 611.08-15.96Q609.52-17.60 607.04-17.60L607.04-17.60Q604.52-17.60 602.76-15.92L602.76-15.92Q601.00-14.20 601.00-11.52L601.00-11.52L601.00 0L598.00 0L598.00-28Z"/></g>
</svg>
</g><g opacity="1" transform="rotate(0 -65.6989 218.7742)">
<svg width="464.8395" height="24" x="-65.6989" y="218.7742" version="1.1" preserveAspectRatio="none" viewBox="0.7813 -28.3984 557.5975999999999 28.7891">
  <g transform="matrix(1 0 0 1 0 0)" class="companyName"><path id="id-D6z1nYkh19" d="M26.50-28.01L26.50-7.13Q26.50-5.61 25.98-4.30Q25.45-2.99 24.50-2.03Q23.55-1.07 22.25-0.54Q20.94 0 19.39 0L19.39 0L0.78 0L0.78-5.08L19.39-5.08Q20.33-5.08 20.86-5.62Q21.39-6.15 21.39-7.13L21.39-7.13L21.39-28.01L26.50-28.01Z M55.35-16.56L55.35-11.45L39.32-11.45L39.32-16.56L55.35-16.56ZM57.64-5.08L57.64 0L39.32 0Q38.26 0 37.01-0.37Q35.76-0.74 34.70-1.59Q33.63-2.44 32.92-3.80Q32.21-5.16 32.21-7.13L32.21-7.13L32.21-25.45Q32.21-25.98 32.40-26.45Q32.60-26.91 32.94-27.27Q33.28-27.62 33.75-27.81Q34.22-28.01 34.77-28.01L34.77-28.01L57.64-28.01L57.64-22.93L37.29-22.93L37.29-7.13Q37.29-6.13 37.81-5.61Q38.34-5.08 39.36-5.08L39.36-5.08L57.64-5.08Z M85.57-16.56L85.57-11.45L69.53-11.45L69.53-16.56L85.57-16.56ZM87.85-5.08L87.85 0L69.53 0Q68.48 0 67.23-0.37Q65.98-0.74 64.91-1.59Q63.85-2.44 63.13-3.80Q62.42-5.16 62.42-7.13L62.42-7.13L62.42-25.45Q62.42-25.98 62.62-26.45Q62.81-26.91 63.15-27.27Q63.50-27.62 63.96-27.81Q64.43-28.01 64.98-28.01L64.98-28.01L87.85-28.01L87.85-22.93L67.50-22.93L67.50-7.13Q67.50-6.13 68.03-5.61Q68.55-5.08 69.57-5.08L69.57-5.08L87.85-5.08Z M119.43-28.01L119.43-18.63Q119.43-16.89 118.99-15.53Q118.55-14.16 117.83-13.12Q117.11-12.07 116.14-11.33Q115.18-10.59 114.14-10.11Q113.11-9.63 112.04-9.41Q110.98-9.20 110.04-9.20L110.04-9.20L107.99-9.20L107.99 0L102.87 0L102.87-9.20L100.84-9.20Q99.90-9.20 98.84-9.41Q97.77-9.63 96.73-10.11Q95.68-10.59 94.73-11.33Q93.77-12.07 93.04-13.12Q92.30-14.16 91.87-15.54Q91.43-16.91 91.43-18.63L91.43-18.63L91.43-28.01L96.50-28.01L96.50-18.63Q96.50-17.64 96.82-16.85Q97.13-16.05 97.70-15.49Q98.26-14.92 99.07-14.62Q99.88-14.32 100.88-14.32L100.88-14.32L110.04-14.32Q110.76-14.43 111.52-14.62Q112.29-14.80 112.91-15.25Q113.54-15.70 113.95-16.50Q114.36-17.30 114.36-18.63L114.36-18.63L114.36-28.01L119.43-28.01Z M151.35-25.45L151.35 0L146.27 0L146.27-6.88L128.42-6.88L128.42 0L123.34 0L123.34-14.00Q123.34-17.07 124.39-19.65Q125.45-22.23 127.32-24.08Q129.20-25.94 131.76-26.97Q134.32-28.01 137.34-28.01L137.34-28.01L148.79-28.01Q149.32-28.01 149.79-27.81Q150.25-27.62 150.61-27.27Q150.96-26.91 151.15-26.45Q151.35-25.98 151.35-25.45L151.35-25.45ZM128.42-14.00L128.42-11.95L146.27-11.95L146.27-22.93L137.34-22.93Q137.11-22.93 136.36-22.86Q135.61-22.79 134.62-22.52Q133.63-22.25 132.54-21.68Q131.45-21.11 130.53-20.12Q129.61-19.12 129.01-17.63Q128.42-16.13 128.42-14.00L128.42-14.00Z M185.23-21.84L185.23-18.59Q185.23-16.86 184.80-15.49Q184.38-14.12 183.64-13.08Q182.91-12.03 181.95-11.29Q181.00-10.55 179.95-10.07Q178.91-9.59 177.84-9.38Q176.78-9.16 175.84-9.16L175.84-9.16L186.45 0L178.59 0L168.01-9.16L164.36-9.16L164.36-14.24L175.84-14.24Q176.80-14.32 177.59-14.64Q178.38-14.96 178.96-15.51Q179.53-16.05 179.84-16.83Q180.16-17.60 180.16-18.59L180.16-18.59L180.16-21.80Q180.16-22.23 180.05-22.45Q179.94-22.68 179.78-22.78Q179.61-22.89 179.42-22.91Q179.24-22.93 179.08-22.93L179.08-22.93L162.32-22.93L162.32 0L157.25 0L157.25-25.45Q157.25-25.98 157.44-26.45Q157.64-26.91 157.98-27.27Q158.32-27.62 158.79-27.81Q159.26-28.01 159.80-28.01L159.80-28.01L179.08-28.01Q180.78-28.01 181.95-27.39Q183.13-26.78 183.86-25.85Q184.59-24.92 184.91-23.85Q185.23-22.77 185.23-21.84L185.23-21.84Z M228.01-28.01L228.01-22.93L216.82-22.93L216.82 0L211.74 0L211.74-22.93L200.53-22.93L200.53-28.01L228.01-28.01Z M254.77-16.56L254.77-11.45L238.73-11.45L238.73-16.56L254.77-16.56ZM257.05-5.08L257.05 0L238.73 0Q237.68 0 236.43-0.37Q235.18-0.74 234.11-1.59Q233.05-2.44 232.33-3.80Q231.62-5.16 231.62-7.13L231.62-7.13L231.62-25.45Q231.62-25.98 231.82-26.45Q232.01-26.91 232.35-27.27Q232.70-27.62 233.16-27.81Q233.63-28.01 234.18-28.01L234.18-28.01L257.05-28.01L257.05-22.93L236.70-22.93L236.70-7.13Q236.70-6.13 237.23-5.61Q237.75-5.08 238.77-5.08L238.77-5.08L257.05-5.08Z M286.86-5.08L286.86 0L268.54 0Q267.83 0 267.02-0.17Q266.21-0.33 265.42-0.68Q264.63-1.04 263.91-1.59Q263.18-2.15 262.63-2.94Q262.07-3.73 261.74-4.78Q261.41-5.82 261.41-7.13L261.41-7.13L261.41-20.88Q261.41-21.58 261.57-22.39Q261.74-23.20 262.09-23.99Q262.44-24.79 263.01-25.51Q263.57-26.23 264.37-26.79Q265.16-27.34 266.19-27.68Q267.23-28.01 268.54-28.01L268.54-28.01L286.86-28.01L286.86-22.93L268.54-22.93Q267.54-22.93 267.01-22.40Q266.48-21.88 266.48-20.84L266.48-20.84L266.48-7.13Q266.48-6.15 267.02-5.62Q267.56-5.08 268.54-5.08L268.54-5.08L286.86-5.08Z M296.78-28.01L296.78-16.56L314.61-16.56L314.61-28.01L319.69-28.01L319.69 0L314.61 0L314.61-11.45L296.78-11.45L296.78 0L291.70 0L291.70-28.01L296.78-28.01Z M353.61-28.01L353.61-2.17Q353.61-1.62 353.41-1.15Q353.20-0.68 352.86-0.34Q352.52 0 352.05 0.20Q351.58 0.39 351.05 0.39L351.05 0.39Q350.59 0.39 350.11 0.21Q349.63 0.04 349.26-0.35L349.26-0.35L330.70-19.73L330.70 0L325.63 0L325.63-25.84Q325.63-26.62 326.06-27.26Q326.50-27.89 327.19-28.20L327.19-28.20Q327.91-28.50 328.67-28.35Q329.43-28.20 329.98-27.64L329.98-27.64L348.54-8.28L348.54-28.01L353.61-28.01Z M388.91-16.68L388.91-11.33Q388.91-8.77 388.03-6.62Q387.15-4.47 385.59-2.91Q384.02-1.35 381.88-0.48Q379.75 0.39 377.23 0.39L377.23 0.39L370.35 0.39Q367.83 0.39 365.68-0.48Q363.54-1.35 361.97-2.91Q360.41-4.47 359.52-6.62Q358.63-8.77 358.63-11.33L358.63-11.33L358.63-16.68Q358.63-19.22 359.52-21.38Q360.41-23.54 361.97-25.09Q363.54-26.64 365.68-27.52Q367.83-28.40 370.35-28.40L370.35-28.40L377.23-28.40Q379.75-28.40 381.88-27.52Q384.02-26.64 385.59-25.09Q387.15-23.54 388.03-21.38Q388.91-19.22 388.91-16.68L388.91-16.68ZM383.83-11.33L383.83-16.68Q383.83-18.18 383.35-19.40Q382.87-20.63 382.00-21.49Q381.13-22.36 379.91-22.84Q378.69-23.32 377.23-23.32L377.23-23.32L370.35-23.32Q368.87-23.32 367.65-22.84Q366.43-22.36 365.55-21.49Q364.67-20.63 364.19-19.40Q363.71-18.18 363.71-16.68L363.71-16.68L363.71-11.33Q363.71-9.82 364.19-8.60Q364.67-7.38 365.55-6.51Q366.43-5.64 367.65-5.17Q368.87-4.69 370.35-4.69L370.35-4.69L377.19-4.69Q378.67-4.69 379.89-5.17Q381.11-5.64 381.99-6.51Q382.87-7.38 383.35-8.60Q383.83-9.82 383.83-11.33L383.83-11.33Z M419.65-5.08L419.65 0L396.48 0Q395.94 0 395.47-0.20Q395-0.39 394.66-0.73Q394.32-1.07 394.12-1.54Q393.93-2.01 393.93-2.56L393.93-2.56L393.93-28.01L399.00-28.01L399.00-5.08L419.65-5.08Z M452.34-16.68L452.34-11.33Q452.34-8.77 451.46-6.62Q450.59-4.47 449.02-2.91Q447.46-1.35 445.32-0.48Q443.18 0.39 440.66 0.39L440.66 0.39L433.79 0.39Q431.27 0.39 429.12-0.48Q426.97-1.35 425.41-2.91Q423.85-4.47 422.96-6.62Q422.07-8.77 422.07-11.33L422.07-11.33L422.07-16.68Q422.07-19.22 422.96-21.38Q423.85-23.54 425.41-25.09Q426.97-26.64 429.12-27.52Q431.27-28.40 433.79-28.40L433.79-28.40L440.66-28.40Q443.18-28.40 445.32-27.52Q447.46-26.64 449.02-25.09Q450.59-23.54 451.46-21.38Q452.34-19.22 452.34-16.68L452.34-16.68ZM447.27-11.33L447.27-16.68Q447.27-18.18 446.79-19.40Q446.31-20.63 445.44-21.49Q444.57-22.36 443.35-22.84Q442.13-23.32 440.66-23.32L440.66-23.32L433.79-23.32Q432.30-23.32 431.08-22.84Q429.86-22.36 428.98-21.49Q428.11-20.63 427.63-19.40Q427.15-18.18 427.15-16.68L427.15-16.68L427.15-11.33Q427.15-9.82 427.63-8.60Q428.11-7.38 428.98-6.51Q429.86-5.64 431.08-5.17Q432.30-4.69 433.79-4.69L433.79-4.69L440.63-4.69Q442.11-4.69 443.33-5.17Q444.55-5.64 445.43-6.51Q446.31-7.38 446.79-8.60Q447.27-9.82 447.27-11.33L447.27-11.33Z M485-14.00L485-2.56Q485-2.01 484.80-1.54Q484.61-1.07 484.27-0.73Q483.93-0.39 483.46-0.20Q482.99 0 482.44 0L482.44 0L464.12 0Q463.42 0 462.61-0.17Q461.80-0.33 461.01-0.68Q460.21-1.04 459.49-1.59Q458.77-2.15 458.21-2.94Q457.66-3.73 457.32-4.78Q456.99-5.82 456.99-7.13L456.99-7.13L456.99-20.88Q456.99-21.58 457.16-22.39Q457.32-23.20 457.68-23.99Q458.03-24.79 458.59-25.51Q459.16-26.23 459.95-26.79Q460.74-27.34 461.78-27.68Q462.81-28.01 464.12-28.01L464.12-28.01L484.77-28.01L484.77-22.93L464.12-22.93Q463.13-22.93 462.60-22.40Q462.07-21.88 462.07-20.84L462.07-20.84L462.07-7.13Q462.07-6.15 462.61-5.62Q463.14-5.08 464.12-5.08L464.12-5.08L479.92-5.08L479.92-11.45L466.41-11.45L466.41-16.56L482.44-16.56Q482.99-16.56 483.46-16.36Q483.93-16.15 484.27-15.80Q484.61-15.45 484.80-14.99Q485-14.53 485-14.00L485-14.00Z M495.41-28.01L495.41 0L490.33 0L490.33-28.01L495.41-28.01Z M524.38-16.56L524.38-11.45L508.34-11.45L508.34-16.56L524.38-16.56ZM526.66-5.08L526.66 0L508.34 0Q507.29 0 506.04-0.37Q504.79-0.74 503.72-1.59Q502.66-2.44 501.94-3.80Q501.23-5.16 501.23-7.13L501.23-7.13L501.23-25.45Q501.23-25.98 501.43-26.45Q501.62-26.91 501.96-27.27Q502.30-27.62 502.77-27.81Q503.24-28.01 503.79-28.01L503.79-28.01L526.66-28.01L526.66-22.93L506.31-22.93L506.31-7.13Q506.31-6.13 506.84-5.61Q507.36-5.08 508.38-5.08L508.38-5.08L526.66-5.08Z M558.38-8.24L558.38-8.24Q558.38-6.74 558.00-5.54Q557.62-4.34 556.99-3.42Q556.37-2.50 555.53-1.86Q554.69-1.21 553.79-0.80Q552.89-0.39 551.96-0.20Q551.04 0 550.21 0L550.21 0L530.63 0L530.63-5.08L550.21-5.08Q551.68-5.08 552.49-5.94Q553.30-6.80 553.30-8.24L553.30-8.24Q553.30-8.95 553.09-9.53Q552.87-10.12 552.47-10.55Q552.07-10.98 551.49-11.21Q550.92-11.45 550.21-11.45L550.21-11.45L538.54-11.45Q537.30-11.45 535.88-11.88Q534.45-12.32 533.23-13.30Q532.01-14.28 531.20-15.86Q530.39-17.44 530.39-19.73L530.39-19.73Q530.39-22.01 531.20-23.58Q532.01-25.16 533.23-26.14Q534.45-27.13 535.88-27.57Q537.30-28.01 538.54-28.01L538.54-28.01L555.82-28.01L555.82-22.93L538.54-22.93Q537.09-22.93 536.28-22.05Q535.47-21.17 535.47-19.73L535.47-19.73Q535.47-18.26 536.28-17.41Q537.09-16.56 538.54-16.56L538.54-16.56L550.21-16.56L550.25-16.56Q551.07-16.54 551.99-16.34Q552.91-16.13 553.82-15.70Q554.73-15.27 555.55-14.62Q556.37-13.96 557.00-13.05Q557.64-12.13 558.01-10.94Q558.38-9.75 558.38-8.24Z"/></g>
</svg>
</g><g opacity="1" transform="rotate(0 50.511 -43.7151)">
<svg width="232.4197" height="232.4893" x="50.511" y="-43.7151" version="1.1" preserveAspectRatio="none" viewBox="0.8240000009536743 0.8229999542236328 3.3530001640319824 3.3540000915527344">
  <g transform="matrix(1 0 0 1 0 0)" class="icon1"><g><path d="M3.275,1.699C3.381,2.291,2.83,2.517,2.302,2.173C1.554,1.686,0.94,1.796,0.84,2.27C0.83,2.345,0.824,2.422,0.824,2.5   c0,0.926,0.75,1.677,1.676,1.677c0.43,0,0.821-0.162,1.118-0.428c-0.09,0.062-0.195,0.112-0.314,0.15   C2.565,4.133,1.794,3.719,1.722,3.318C1.616,2.726,2.167,2.5,2.696,2.845c0.753,0.49,1.37,0.375,1.464-0.106   C4.171,2.66,4.177,2.581,4.177,2.5c0-0.926-0.751-1.677-1.677-1.677c-0.461,0-0.879,0.187-1.182,0.488   c0.104-0.08,0.229-0.147,0.375-0.194C2.432,0.884,3.203,1.298,3.275,1.699z"></path></g></g>
</svg>
</g></svg></svg>