<svg version="1.1" preserveAspectRatio="none" xmlns="http://www.w3.org/2000/svg" width="500" height="500" viewBox="0 0 500 500"><rect width="100%" height="100%" fill="#FFFFFF" fill-opacity="1"/><svg viewBox="151.1359 -88.1496 351.8834 308.1631" width="333" height="291.62589738532705" x="83.5px" y="104.1871px" xmlns="http://www.w3.org/2000/svg" xmlns:xlink="http://www.w3.org/1999/xlink" preserveAspectRatio="none"><defs></defs><style>.companyName {fill:#0000FF;fill-opacity:1;}.icon1 {fill:#0000FF;fill-opacity:1;}.icon2 {fill:#A9FF94;fill-opacity:1;}.icon3 {fill:#000084;fill-opacity:1;}.icon3-str {stroke:#000084;stroke-opacity:1;}.text {fill:#0000FF;fill-opacity:1;}</style><g opacity="1" transform="rotate(0 215.4478 200.9259)">
<svg width="223.2595" height="19.0876" x="215.4478" y="200.9259" version="1.1" preserveAspectRatio="none" viewBox="0.16 -29.92 352.71999999999997 30.160000000000004">
  <g transform="matrix(1 0 0 1 0 0)" class="text"><path id="id-6izo4zJp16" d="M9.76 0L9.76-24.52L0.16-24.52L0.16-28L23.32-28L23.32-24.52L13.72-24.52L13.72 0L9.76 0Z M40.44-21.40Q44.48-21.40 46.86-19.06Q49.24-16.72 49.24-12.20L49.24-12.20L49.24 0L45.40 0L45.40-11.76Q45.40-14.84 43.92-16.40Q42.44-17.96 39.68-17.96L39.68-17.96Q36.56-17.96 34.76-16.14Q32.96-14.32 32.96-10.92L32.96-10.92L32.96 0L29.12 0L29.12-29.68L32.96-29.68L32.96-18.20Q34.16-19.72 36.10-20.56Q38.04-21.40 40.44-21.40L40.44-21.40Z M77.64-10.48Q77.64-10.04 77.56-9.32L77.56-9.32L60.36-9.32Q60.72-6.52 62.82-4.82Q64.92-3.12 68.04-3.12L68.04-3.12Q71.84-3.12 74.16-5.68L74.16-5.68L76.28-3.20Q74.84-1.52 72.70-0.64Q70.56 0.24 67.92 0.24L67.92 0.24Q64.56 0.24 61.96-1.14Q59.36-2.52 57.94-5Q56.52-7.48 56.52-10.60L56.52-10.60Q56.52-13.68 57.90-16.16Q59.28-18.64 61.70-20.02Q64.12-21.40 67.16-21.40L67.16-21.40Q70.20-21.40 72.58-20.02Q74.96-18.64 76.30-16.16Q77.64-13.68 77.64-10.48L77.64-10.48ZM67.16-18.16Q64.40-18.16 62.54-16.48Q60.68-14.80 60.36-12.08L60.36-12.08L73.96-12.08Q73.64-14.76 71.78-16.46Q69.92-18.16 67.16-18.16L67.16-18.16Z M103.80 0.24Q101.20 0.24 98.80-0.46Q96.40-1.16 95.04-2.24L95.04-2.24L96.64-5.28Q98.04-4.28 100.04-3.68Q102.04-3.08 104.08-3.08L104.08-3.08Q109.12-3.08 109.12-5.96L109.12-5.96Q109.12-6.92 108.44-7.48Q107.76-8.04 106.74-8.30Q105.72-8.56 103.84-8.88L103.84-8.88Q101.28-9.28 99.66-9.80Q98.04-10.32 96.88-11.56Q95.72-12.80 95.72-15.04L95.72-15.04Q95.72-17.92 98.12-19.66Q100.52-21.40 104.56-21.40L104.56-21.40Q106.68-21.40 108.80-20.88Q110.92-20.36 112.28-19.48L112.28-19.48L110.64-16.44Q108.04-18.12 104.52-18.12L104.52-18.12Q102.08-18.12 100.80-17.32Q99.52-16.52 99.52-15.20L99.52-15.20Q99.52-14.16 100.24-13.56Q100.96-12.96 102.02-12.68Q103.08-12.40 105-12.04L105-12.04Q107.56-11.60 109.14-11.10Q110.72-10.60 111.84-9.40Q112.96-8.20 112.96-6.04L112.96-6.04Q112.96-3.16 110.50-1.46Q108.04 0.24 103.80 0.24L103.80 0.24Z M128.84 0.24Q125.68 0.24 123.16-1.16Q120.64-2.56 119.22-5.02Q117.80-7.48 117.80-10.60L117.80-10.60Q117.80-13.72 119.22-16.18Q120.64-18.64 123.16-20.02Q125.68-21.40 128.84-21.40L128.84-21.40Q132-21.40 134.50-20.02Q137-18.64 138.42-16.18Q139.84-13.72 139.84-10.60L139.84-10.60Q139.84-7.48 138.42-5.02Q137-2.56 134.50-1.16Q132 0.24 128.84 0.24L128.84 0.24ZM128.84-3.12Q130.88-3.12 132.50-4.06Q134.12-5 135.04-6.70Q135.96-8.40 135.96-10.60L135.96-10.60Q135.96-12.80 135.04-14.50Q134.12-16.20 132.50-17.12Q130.88-18.04 128.84-18.04L128.84-18.04Q126.80-18.04 125.18-17.12Q123.56-16.20 122.62-14.50Q121.68-12.80 121.68-10.60L121.68-10.60Q121.68-8.40 122.62-6.70Q123.56-5 125.18-4.06Q126.80-3.12 128.84-3.12L128.84-3.12Z M163.08-21.20L166.92-21.20L166.92 0L163.28 0L163.28-3.20Q162.12-1.56 160.22-0.66Q158.32 0.24 156.08 0.24L156.08 0.24Q151.84 0.24 149.40-2.10Q146.96-4.44 146.96-9L146.96-9L146.96-21.20L150.80-21.20L150.80-9.44Q150.80-6.36 152.28-4.78Q153.76-3.20 156.52-3.20L156.52-3.20Q159.56-3.20 161.32-5.04Q163.08-6.88 163.08-10.24L163.08-10.24L163.08-21.20Z M176.24 0L176.24-29.68L180.08-29.68L180.08 0L176.24 0Z M211.24 0.24Q208.08 0.24 205.56-1.16Q203.04-2.56 201.62-5.02Q200.20-7.48 200.20-10.60L200.20-10.60Q200.20-13.72 201.62-16.18Q203.04-18.64 205.56-20.02Q208.08-21.40 211.24-21.40L211.24-21.40Q214.40-21.40 216.90-20.02Q219.40-18.64 220.82-16.18Q222.24-13.72 222.24-10.60L222.24-10.60Q222.24-7.48 220.82-5.02Q219.40-2.56 216.90-1.16Q214.40 0.24 211.24 0.24L211.24 0.24ZM211.24-3.12Q213.28-3.12 214.90-4.06Q216.52-5 217.44-6.70Q218.36-8.40 218.36-10.60L218.36-10.60Q218.36-12.80 217.44-14.50Q216.52-16.20 214.90-17.12Q213.28-18.04 211.24-18.04L211.24-18.04Q209.20-18.04 207.58-17.12Q205.96-16.20 205.02-14.50Q204.08-12.80 204.08-10.60L204.08-10.60Q204.08-8.40 205.02-6.70Q205.96-5 207.58-4.06Q209.20-3.12 211.24-3.12L211.24-3.12Z M237.32-26.76Q233.88-26.76 233.88-23.04L233.88-23.04L233.88-21.20L240.04-21.20L240.04-18.04L233.96-18.04L233.96 0L230.12 0L230.12-18.04L226.52-18.04L226.52-21.20L230.12-21.20L230.12-23.08Q230.12-26.24 231.96-28.08Q233.80-29.92 237.12-29.92L237.12-29.92Q238.40-29.92 239.52-29.60Q240.64-29.28 241.44-28.68L241.44-28.68L240.28-25.76Q238.96-26.76 237.32-26.76L237.32-26.76Z M264.56 0L264.56-24.52L254.96-24.52L254.96-28L278.12-28L278.12-24.52L268.52-24.52L268.52 0L264.56 0Z M300.88-10.48Q300.88-10.04 300.80-9.32L300.80-9.32L283.60-9.32Q283.96-6.52 286.06-4.82Q288.16-3.12 291.28-3.12L291.28-3.12Q295.08-3.12 297.40-5.68L297.40-5.68L299.52-3.20Q298.08-1.52 295.94-0.64Q293.80 0.24 291.16 0.24L291.16 0.24Q287.80 0.24 285.20-1.14Q282.60-2.52 281.18-5Q279.76-7.48 279.76-10.60L279.76-10.60Q279.76-13.68 281.14-16.16Q282.52-18.64 284.94-20.02Q287.36-21.40 290.40-21.40L290.40-21.40Q293.44-21.40 295.82-20.02Q298.20-18.64 299.54-16.16Q300.88-13.68 300.88-10.48L300.88-10.48ZM290.40-18.16Q287.64-18.16 285.78-16.48Q283.92-14.80 283.60-12.08L283.60-12.08L297.20-12.08Q296.88-14.76 295.02-16.46Q293.16-18.16 290.40-18.16L290.40-18.16Z M317.44 0.24Q314.20 0.24 311.66-1.16Q309.12-2.56 307.68-5.02Q306.24-7.48 306.24-10.60L306.24-10.60Q306.24-13.72 307.68-16.18Q309.12-18.64 311.66-20.02Q314.20-21.40 317.44-21.40L317.44-21.40Q320.32-21.40 322.58-20.24Q324.84-19.08 326.08-16.88L326.08-16.88L323.16-15Q322.16-16.52 320.68-17.28Q319.20-18.04 317.40-18.04L317.40-18.04Q315.32-18.04 313.66-17.12Q312.00-16.20 311.06-14.50Q310.12-12.80 310.12-10.60L310.12-10.60Q310.12-8.36 311.06-6.66Q312.00-4.96 313.66-4.04Q315.32-3.12 317.40-3.12L317.40-3.12Q319.20-3.12 320.68-3.88Q322.16-4.64 323.16-6.16L323.16-6.16L326.08-4.32Q324.84-2.12 322.58-0.94Q320.32 0.24 317.44 0.24L317.44 0.24Z M344.08-21.40Q348.12-21.40 350.50-19.06Q352.88-16.72 352.88-12.20L352.88-12.20L352.88 0L349.04 0L349.04-11.76Q349.04-14.84 347.56-16.40Q346.08-17.96 343.32-17.96L343.32-17.96Q340.20-17.96 338.40-16.14Q336.60-14.32 336.60-10.92L336.60-10.92L336.60 0L332.76 0L332.76-29.68L336.60-29.68L336.60-18.20Q337.80-19.72 339.74-20.56Q341.68-21.40 344.08-21.40L344.08-21.40Z"/></g>
</svg>
</g><g opacity="1" transform="rotate(0 151.1359 152.9259)">
<svg width="351.8834" height="28" x="151.1359" y="152.9259" version="1.1" preserveAspectRatio="none" viewBox="-0.64 -31.48 497.16 39.56">
  <g transform="matrix(1 0 0 1 0 0)" class="companyName"><path id="id-D6z1nYkh19" d="M8.48 0.48Q5.64 0.48 3.26-0.58Q0.88-1.64-0.64-3.60L-0.64-3.60L2.96-7.92Q5.24-4.84 8.16-4.84L8.16-4.84Q12.12-4.84 12.12-9.48L12.12-9.48L12.12-22.80L2.28-22.80L2.28-28L18.56-28L18.56-9.84Q18.56-4.68 16-2.10Q13.44 0.48 8.48 0.48L8.48 0.48Z M49.68-10.68Q49.68-10.56 49.56-9L49.56-9L33.28-9Q33.72-7 35.36-5.84Q37-4.68 39.44-4.68L39.44-4.68Q41.12-4.68 42.42-5.18Q43.72-5.68 44.84-6.76L44.84-6.76L48.16-3.16Q45.12 0.32 39.28 0.32L39.28 0.32Q35.64 0.32 32.84-1.10Q30.04-2.52 28.52-5.04Q27-7.56 27-10.76L27-10.76Q27-13.92 28.50-16.46Q30-19 32.62-20.42Q35.24-21.84 38.48-21.84L38.48-21.84Q41.64-21.84 44.20-20.48Q46.76-19.12 48.22-16.58Q49.68-14.04 49.68-10.68L49.68-10.68ZM38.52-17.12Q36.40-17.12 34.96-15.92Q33.52-14.72 33.20-12.64L33.20-12.64L43.80-12.64Q43.48-14.68 42.04-15.90Q40.60-17.12 38.52-17.12L38.52-17.12Z M72.88-21.52L78.88-21.52L69.16 1.32Q67.68 5.04 65.50 6.56Q63.32 8.08 60.24 8.08L60.24 8.08Q58.56 8.08 56.92 7.56Q55.28 7.04 54.24 6.12L54.24 6.12L56.52 1.68Q57.24 2.32 58.18 2.68Q59.12 3.04 60.04 3.04L60.04 3.04Q61.32 3.04 62.12 2.42Q62.92 1.80 63.56 0.36L63.56 0.36L63.64 0.16L54.32-21.52L60.76-21.52L66.80-6.92L72.88-21.52Z M100.36-21.52L106.36-21.52L96.64 1.32Q95.16 5.04 92.98 6.56Q90.80 8.08 87.72 8.08L87.72 8.08Q86.04 8.08 84.40 7.56Q82.76 7.04 81.72 6.12L81.72 6.12L84 1.68Q84.72 2.32 85.66 2.68Q86.60 3.04 87.52 3.04L87.52 3.04Q88.80 3.04 89.60 2.42Q90.40 1.80 91.04 0.36L91.04 0.36L91.12 0.16L81.80-21.52L88.24-21.52L94.28-6.92L100.36-21.52Z M120.96-21.84Q125.96-21.84 128.64-19.46Q131.32-17.08 131.32-12.28L131.32-12.28L131.32 0L125.48 0L125.48-2.68Q123.72 0.32 118.92 0.32L118.92 0.32Q116.44 0.32 114.62-0.52Q112.80-1.36 111.84-2.84Q110.88-4.32 110.88-6.20L110.88-6.20Q110.88-9.20 113.14-10.92Q115.40-12.64 120.12-12.64L120.12-12.64L125.08-12.64Q125.08-14.68 123.84-15.78Q122.60-16.88 120.12-16.88L120.12-16.88Q118.40-16.88 116.74-16.34Q115.08-15.80 113.92-14.88L113.92-14.88L111.68-19.24Q113.44-20.48 115.90-21.16Q118.36-21.84 120.96-21.84L120.96-21.84ZM120.48-3.88Q122.08-3.88 123.32-4.62Q124.56-5.36 125.08-6.80L125.08-6.80L125.08-9L120.80-9Q116.96-9 116.96-6.48L116.96-6.48Q116.96-5.28 117.90-4.58Q118.84-3.88 120.48-3.88L120.48-3.88Z M147.00-18.68Q148.12-20.24 150.02-21.04Q151.92-21.84 154.40-21.84L154.40-21.84L154.40-16.08Q153.36-16.16 153.00-16.16L153.00-16.16Q150.32-16.16 148.80-14.66Q147.28-13.16 147.28-10.16L147.28-10.16L147.28 0L141.04 0L141.04-21.52L147.00-21.52L147.00-18.68Z M184.00 0L184.00-22.72L175.04-22.72L175.04-28L199.44-28L199.44-22.72L190.48-22.72L190.48 0L184.00 0Z M225.44-10.68Q225.44-10.56 225.32-9L225.32-9L209.04-9Q209.48-7 211.12-5.84Q212.76-4.68 215.20-4.68L215.20-4.68Q216.88-4.68 218.18-5.18Q219.48-5.68 220.60-6.76L220.60-6.76L223.92-3.16Q220.88 0.32 215.04 0.32L215.04 0.32Q211.40 0.32 208.60-1.10Q205.80-2.52 204.28-5.04Q202.76-7.56 202.76-10.76L202.76-10.76Q202.76-13.92 204.26-16.46Q205.76-19 208.38-20.42Q211.00-21.84 214.24-21.84L214.24-21.84Q217.40-21.84 219.96-20.48Q222.52-19.12 223.98-16.58Q225.44-14.04 225.44-10.68L225.44-10.68ZM214.28-17.12Q212.16-17.12 210.72-15.92Q209.28-14.72 208.96-12.64L208.96-12.64L219.56-12.64Q219.24-14.68 217.80-15.90Q216.36-17.12 214.28-17.12L214.28-17.12Z M244.08 0.32Q240.64 0.32 237.90-1.10Q235.16-2.52 233.62-5.04Q232.08-7.56 232.08-10.76L232.08-10.76Q232.08-13.96 233.62-16.48Q235.16-19 237.90-20.42Q240.64-21.84 244.08-21.84L244.08-21.84Q247.48-21.84 250.02-20.42Q252.56-19 253.72-16.36L253.72-16.36L248.88-13.76Q247.20-16.72 244.04-16.72L244.04-16.72Q241.60-16.72 240.00-15.12Q238.40-13.52 238.40-10.76L238.40-10.76Q238.40-8 240.00-6.40Q241.60-4.80 244.04-4.80L244.04-4.80Q247.24-4.80 248.88-7.76L248.88-7.76L253.72-5.12Q252.56-2.56 250.02-1.12Q247.48 0.32 244.08 0.32L244.08 0.32Z M274.32-21.84Q278.32-21.84 280.78-19.44Q283.24-17.04 283.24-12.32L283.24-12.32L283.24 0L277.00 0L277.00-11.36Q277.00-13.92 275.88-15.18Q274.76-16.44 272.64-16.44L272.64-16.44Q270.28-16.44 268.88-14.98Q267.48-13.52 267.48-10.64L267.48-10.64L267.48 0L261.24 0L261.24-29.68L267.48-29.68L267.48-19.28Q268.72-20.52 270.48-21.18Q272.24-21.84 274.32-21.84L274.32-21.84Z M306.04-21.84Q310.04-21.84 312.50-19.44Q314.96-17.04 314.96-12.32L314.96-12.32L314.96 0L308.72 0L308.72-11.36Q308.72-13.92 307.60-15.18Q306.48-16.44 304.36-16.44L304.36-16.44Q302.00-16.44 300.60-14.98Q299.20-13.52 299.20-10.64L299.20-10.64L299.20 0L292.96 0L292.96-21.52L298.92-21.52L298.92-19Q300.16-20.36 302.00-21.10Q303.84-21.84 306.04-21.84L306.04-21.84Z M335.16 0.32Q331.76 0.32 329.06-1.10Q326.36-2.52 324.84-5.04Q323.32-7.56 323.32-10.76L323.32-10.76Q323.32-13.96 324.84-16.48Q326.36-19 329.06-20.42Q331.76-21.84 335.16-21.84L335.16-21.84Q338.56-21.84 341.24-20.42Q343.92-19 345.44-16.48Q346.96-13.96 346.96-10.76L346.96-10.76Q346.96-7.56 345.44-5.04Q343.92-2.52 341.24-1.10Q338.56 0.32 335.16 0.32L335.16 0.32ZM335.16-4.80Q337.56-4.80 339.10-6.42Q340.64-8.04 340.64-10.76L340.64-10.76Q340.64-13.48 339.10-15.10Q337.56-16.72 335.16-16.72L335.16-16.72Q332.76-16.72 331.20-15.10Q329.64-13.48 329.64-10.76L329.64-10.76Q329.64-8.04 331.20-6.42Q332.76-4.80 335.16-4.80L335.16-4.80Z M355.20 0L355.20-29.68L361.44-29.68L361.44 0L355.20 0Z M381.56 0.32Q378.16 0.32 375.46-1.10Q372.76-2.52 371.24-5.04Q369.72-7.56 369.72-10.76L369.72-10.76Q369.72-13.96 371.24-16.48Q372.76-19 375.46-20.42Q378.16-21.84 381.56-21.84L381.56-21.84Q384.96-21.84 387.64-20.42Q390.32-19 391.84-16.48Q393.36-13.96 393.36-10.76L393.36-10.76Q393.36-7.56 391.84-5.04Q390.32-2.52 387.64-1.10Q384.96 0.32 381.56 0.32L381.56 0.32ZM381.56-4.80Q383.96-4.80 385.50-6.42Q387.04-8.04 387.04-10.76L387.04-10.76Q387.04-13.48 385.50-15.10Q383.96-16.72 381.56-16.72L381.56-16.72Q379.16-16.72 377.60-15.10Q376.04-13.48 376.04-10.76L376.04-10.76Q376.04-8.04 377.60-6.42Q379.16-4.80 381.56-4.80L381.56-4.80Z M417.88-21.52L423.80-21.52L423.80-3.60Q423.80 2.32 420.72 5.20Q417.64 8.08 411.72 8.08L411.72 8.08Q408.60 8.08 405.80 7.32Q403 6.56 401.16 5.12L401.16 5.12L403.64 0.64Q405 1.76 407.08 2.42Q409.16 3.08 411.24 3.08L411.24 3.08Q414.48 3.08 416.02 1.62Q417.56 0.16 417.56-2.80L417.56-2.80L417.56-3.72Q415.12-1.04 410.76-1.04L410.76-1.04Q407.80-1.04 405.34-2.34Q402.88-3.64 401.44-6Q400-8.36 400-11.44L400-11.44Q400-14.52 401.44-16.88Q402.88-19.24 405.34-20.54Q407.80-21.84 410.76-21.84L410.76-21.84Q415.44-21.84 417.88-18.76L417.88-18.76L417.88-21.52ZM412-6.16Q414.48-6.16 416.06-7.62Q417.64-9.08 417.64-11.44L417.64-11.44Q417.64-13.80 416.06-15.26Q414.48-16.72 412-16.72L412-16.72Q409.52-16.72 407.92-15.26Q406.32-13.80 406.32-11.44L406.32-11.44Q406.32-9.08 407.92-7.62Q409.52-6.16 412-6.16L412-6.16Z M433.68 0L433.68-21.52L439.92-21.52L439.92 0L433.68 0ZM436.80-24.52Q435.08-24.52 434-25.52Q432.92-26.52 432.92-28L432.92-28Q432.92-29.48 434-30.48Q435.08-31.48 436.80-31.48L436.80-31.48Q438.52-31.48 439.60-30.52Q440.68-29.56 440.68-28.12L440.68-28.12Q440.68-26.56 439.60-25.54Q438.52-24.52 436.80-24.52L436.80-24.52Z M470.88-10.68Q470.88-10.56 470.76-9L470.76-9L454.48-9Q454.92-7 456.56-5.84Q458.20-4.68 460.64-4.68L460.64-4.68Q462.32-4.68 463.62-5.18Q464.92-5.68 466.04-6.76L466.04-6.76L469.36-3.16Q466.32 0.32 460.48 0.32L460.48 0.32Q456.84 0.32 454.04-1.10Q451.24-2.52 449.72-5.04Q448.20-7.56 448.20-10.76L448.20-10.76Q448.20-13.92 449.70-16.46Q451.20-19 453.82-20.42Q456.44-21.84 459.68-21.84L459.68-21.84Q462.84-21.84 465.40-20.48Q467.96-19.12 469.42-16.58Q470.88-14.04 470.88-10.68L470.88-10.68ZM459.72-17.12Q457.60-17.12 456.16-15.92Q454.72-14.72 454.40-12.64L454.40-12.64L465-12.64Q464.68-14.68 463.24-15.90Q461.80-17.12 459.72-17.12L459.72-17.12Z M486.36 0.32Q483.68 0.32 481.12-0.34Q478.56-1 477.04-2L477.04-2L479.12-6.48Q480.56-5.56 482.60-4.98Q484.64-4.40 486.60-4.40L486.60-4.40Q490.56-4.40 490.56-6.36L490.56-6.36Q490.56-7.28 489.48-7.68Q488.40-8.08 486.16-8.36L486.16-8.36Q483.52-8.76 481.80-9.28Q480.08-9.80 478.82-11.12Q477.56-12.44 477.56-14.88L477.56-14.88Q477.56-16.92 478.74-18.50Q479.92-20.08 482.18-20.96Q484.44-21.84 487.52-21.84L487.52-21.84Q489.80-21.84 492.06-21.34Q494.32-20.84 495.80-19.96L495.80-19.96L493.72-15.52Q490.88-17.12 487.52-17.12L487.52-17.12Q485.52-17.12 484.52-16.56Q483.52-16 483.52-15.12L483.52-15.12Q483.52-14.12 484.60-13.72Q485.68-13.32 488.04-12.96L488.04-12.96Q490.68-12.52 492.36-12.02Q494.04-11.52 495.28-10.20Q496.52-8.88 496.52-6.52L496.52-6.52Q496.52-4.52 495.32-2.96Q494.12-1.40 491.82-0.54Q489.52 0.32 486.36 0.32L486.36 0.32Z"/></g>
</svg>
</g><g opacity="1" transform="rotate(0 256.7009 -88.1496)">
<svg width="140.7534" height="201.0755" x="256.7009" y="-88.1496" version="1.1" preserveAspectRatio="none" viewBox="47.5 25 105.00032043457031 150">
  <g transform="matrix(1 0 0 1 0 0)" ><g><path d="M100.1 25c-29 0-52.6 23.7-52.6 52.8 0 28 47.5 93 49.5 95.7.7 1 1.8 1.5 3 1.5s2.3-.6 3-1.5c2-2.8 49.5-67.8 49.5-95.7.1-29.2-23.5-52.8-52.4-52.8zm0 139.7c-4.4-6.2-12.8-18.4-21.2-32.1C63.3 107.1 55 88.1 55 77.8c0-24.9 20.2-45.2 45-45.2s45 20.3 45 45.2c0 10.4-8.2 29.3-23.8 54.8-8.3 13.7-16.8 26-21.1 32.1z" data-color="1" class="icon1"></path><path d="M99.8 39.8C79 39.8 62 56.8 62 77.6s17 37.8 37.8 37.8 37.8-17 37.8-37.8-16.9-37.8-37.8-37.8zm12.8 55.8c3.7.7 6.8 1.6 9 2.4-3.7 3.9-8.3 6.8-13.6 8.3 1.4-2.3 3.1-5.9 4.6-10.7zm-5.3-47.1c5.4 1.5 10.4 4.4 14.3 8.5-3.4 1.1-6.7 1.9-9.9 2.4-1.1-3.4-2.5-7.1-4.4-10.9zm6.9 39.9c.3-1.8.5-3.9.6-6.1h14.5c-.5 3.3-1.6 6.5-3.2 9.5-2.6-1-6.7-2.4-11.9-3.4zm.4-13.7c-.2-2.4-.5-5-1.1-7.6 4-.8 8.3-1.8 12.6-3.4 1 1.9 1.8 3.9 2.4 6.1.4 1.6.8 3.3.9 5h-14.8zM92.5 87.3c-.4-1.7-.6-3.4-.9-5h15.6c-.1 1.7-.3 3.4-.5 5-4.3-.4-9.1-.4-14.2 0zm12.5 7.3c-2 6.3-4.8 9.9-4.8 10-.4.5-.6 1-.7 1.5l-.3-.9c-1.8-3.6-3.3-7.1-4.5-10.6 3.6-.2 7.1-.2 10.3 0zm-6.9-26.1c2.6 0 5.3-.1 8.1-.4.5 2.2.8 4.4 1 6.6H91.3c.1-2.2.2-4.3.5-6.4 2 .1 4.1.2 6.3.2zm-4.5-7.9c2.1-6.4 4.8-10.1 4.9-10.1.4-.5.6-1 .7-1.5l.3.9c1.8 3.6 3.3 7.1 4.5 10.6-3.7.2-7.2.2-10.4.1zm-9.3 6.8c-.3 2.2-.5 4.6-.6 7.3H70.1c.4-3.5 1.3-6.9 2.9-10.1 2.5.9 6.4 2 11.3 2.8zm-7-9.5c3.5-4 8-7 13.1-8.8-1.3 2.4-3.1 5.9-4.4 10.7-3.5-.6-6.5-1.3-8.7-1.9zm6.8 24.4c.2 2 .5 4.1 1 6.2-3.7.8-7.6 1.8-11.6 3.3-1-1.9-1.8-3.9-2.4-6.1-.3-1.1-.5-2.3-.8-3.4h13.8zM87 95.7c1.1 3.4 2.4 6.9 4.1 10.5-5.1-1.6-9.5-4.4-13.1-8.2 3.2-1 6.1-1.8 9-2.3z" data-color="1" class="icon1"></path></g></g>
</svg>
</g></svg></svg>